<svg width="27" height="27" viewBox="0 0 27 27" fill="none" xmlns="http://www.w3.org/2000/svg">
<g clip-path="url(#clip0_3004_8553)">
<path d="M11.9872 18.4134H12.9093C13.1031 18.4116 13.2907 18.3455 13.4428 18.2254C13.5949 18.1054 13.7028 17.9382 13.7496 17.7502C13.7998 17.5672 13.9086 17.4056 14.0595 17.2905C14.2104 17.1754 14.3949 17.113 14.5847 17.113C14.7745 17.113 14.9591 17.1754 15.1099 17.2905C15.2608 17.4056 15.3697 17.5672 15.4198 17.7502C15.4666 17.9382 15.5745 18.1054 15.7266 18.2254C15.8787 18.3455 16.0664 18.4116 16.2601 18.4134H17.1822C17.5267 18.4134 17.857 18.2766 18.1006 18.033C18.3441 17.7895 18.481 17.4591 18.481 17.1147V15.383H16.7493C16.6345 15.383 16.5244 15.3374 16.4432 15.2562C16.362 15.175 16.3164 15.0649 16.3164 14.9501C16.3164 14.8353 16.362 14.7252 16.4432 14.644C16.5244 14.5628 16.6345 14.5172 16.7493 14.5172H18.481V10.188C18.4803 9.61415 18.252 9.06398 17.8462 8.65819C17.4404 8.2524 16.8903 8.02412 16.3164 8.02344H16.2601C16.0664 8.02528 15.8787 8.09141 15.7266 8.21145C15.5745 8.33149 15.4666 8.49865 15.4198 8.68667C15.3697 8.86972 15.2608 9.03123 15.1099 9.14636C14.9591 9.26149 14.7745 9.32385 14.5847 9.32385C14.3949 9.32385 14.2104 9.26149 14.0595 9.14636C13.9086 9.03123 13.7998 8.86972 13.7496 8.68667C13.7028 8.49865 13.5949 8.33149 13.4428 8.21145C13.2907 8.09141 13.1031 8.02528 12.9093 8.02344H12.8531C12.2792 8.02412 11.729 8.2524 11.3232 8.65819C10.9174 9.06398 10.6892 9.61415 10.6885 10.188V14.5172H12.4201C12.535 14.5172 12.6451 14.5628 12.7263 14.644C12.8074 14.7252 12.8531 14.8353 12.8531 14.9501C12.8531 15.0649 12.8074 15.175 12.7263 15.2562C12.6451 15.3374 12.535 15.383 12.4201 15.383H10.6885V17.1147C10.6885 17.4591 10.8253 17.7895 11.0689 18.033C11.3124 18.2766 11.6428 18.4134 11.9872 18.4134ZM14.1518 14.5172H15.0176C15.1325 14.5172 15.2426 14.5628 15.3238 14.644C15.4049 14.7252 15.4506 14.8353 15.4506 14.9501C15.4506 15.0649 15.4049 15.175 15.3238 15.2562C15.2426 15.3374 15.1325 15.383 15.0176 15.383H14.1518C14.037 15.383 13.9269 15.3374 13.8457 15.2562C13.7645 15.175 13.7189 15.0649 13.7189 14.9501C13.7189 14.8353 13.7645 14.7252 13.8457 14.644C13.9269 14.5628 14.037 14.5172 14.1518 14.5172Z" fill="#14532D"/>
</g>
<circle cx="13.8747" cy="13.2184" r="12.5602" stroke="#14532D" stroke-width="0.866221"/>
<defs>
<clipPath id="clip0_3004_8553">
<rect width="10.39" height="10.39" fill="white" transform="translate(9.38965 8.02344)"/>
</clipPath>
</defs>
</svg>
