<svg id="Layer_1" data-name="Layer 1" xmlns="http://www.w3.org/2000/svg" viewBox="0 0 22 22"><defs><style>.cls-1,.cls-2{fill:#4a484a;}.cls-2{font-size:7px;font-family:MyriadPro-Regular, Myriad Pro;}</style></defs><path class="cls-1" d="M18,17.74v-11L12.74,1.53H6.37A2.31,2.31,0,0,0,4.05,3.84v13.9a2.32,2.32,0,0,0,2.32,2.32h9.26A2.32,2.32,0,0,0,18,17.74ZM12.74,5a1.74,1.74,0,0,0,1.74,1.74h2.31v11a1.16,1.16,0,0,1-1.16,1.16H6.37a1.16,1.16,0,0,1-1.16-1.16V3.84A1.16,1.16,0,0,1,6.37,2.68h6.37Z"/><text class="cls-2" transform="translate(6 15.97)">1st</text></svg>