<svg id="Layer_1" data-name="Layer 1" xmlns="http://www.w3.org/2000/svg" viewBox="0 0 22 22"><defs><style>.cls-1,.cls-2{fill:#4a484a;}.cls-2{font-size:7px;font-family:MyriadPro-Regular, Myriad Pro;}.cls-3{letter-spacing:-0.01em;}</style></defs><path class="cls-1" d="M17.65,18.69v-11L12.44,2.47H6.07A2.32,2.32,0,0,0,3.75,4.79v13.9A2.32,2.32,0,0,0,6.07,21h9.26A2.32,2.32,0,0,0,17.65,18.69ZM12.44,5.94a1.74,1.74,0,0,0,1.74,1.74h2.31v11a1.15,1.15,0,0,1-1.16,1.15H6.07a1.15,1.15,0,0,1-1.16-1.15V4.79A1.16,1.16,0,0,1,6.07,3.63h6.37Z"/><text class="cls-2" transform="translate(5.47 17.77)">3<tspan class="cls-3" x="3.59" y="0">r</tspan><tspan x="5.81" y="0">d</tspan></text></svg>