<svg id="Layer_1" data-name="Layer 1" xmlns="http://www.w3.org/2000/svg" viewBox="0 0 22 22"><defs><style>.cls-1{fill:#fff;}.cls-2{fill:#1b1b1b;}</style></defs><path class="cls-1" d="M17.21,8.1a1,1,0,0,1-1-1,1,1,0,1,1,2,0A1,1,0,0,1,17.21,8.1Z"/><path class="cls-1" d="M4.64,8.1a1,1,0,1,1,1-.94A1,1,0,0,1,4.64,8.1Z"/><path class="cls-2" d="M6.17,18.79V11c-.57,0-1.14,0-1.7,0a.7.7,0,0,1-.8-.55c-.42-1.31-.86-2.61-1.3-3.91-.18-.53,0-.77.56-.76H6c-.11-.44-.21-.81-.31-1.18-.17-.68-.06-.83.62-.85h1c0-.58,0-1.13,0-1.67,0-.22.26-.43.39-.64.16.22.41.43.44.67a12.66,12.66,0,0,1,0,1.64H9.37c.53,0,.68.27.55.74s-.22.79-.36,1.29h3c.75,0,.86.15.63.86-.41,1.26-.84,2.51-1.24,3.77a.72.72,0,0,1-.84.59c-.53,0-1.06,0-1.65,0v7.78h1.11a9.1,9.1,0,0,1,0-1.28c0-.2.27-.36.41-.55.15.18.39.35.42.55a8.83,8.83,0,0,1,0,1.27h1.17a8.84,8.84,0,0,1,0-1.26c0-.2.27-.37.41-.56.14.18.39.35.42.54a9,9,0,0,1,0,1.28h1.16a7.77,7.77,0,0,1,0-1.18c0-.23.26-.43.4-.64.15.21.39.39.43.61a6.86,6.86,0,0,1,0,1.21h1.16c0-.33,0-.68,0-1s-.1-.76.41-.77.43.46.45.8,0,.67,0,1.13c.26-.12.53-.15.58-.27.38-1.06.73-2.13,1.11-3.29H14c-.92,0-1.84,0-2.75,0-.25,0-.66-.23-.68-.4-.07-.5.37-.45.71-.45h8.26c.69,0,.81.18.59.84-.36,1.15-.74,2.28-1.15,3.51a4.14,4.14,0,0,1,1,0c.2.05.35.28.52.43a2.74,2.74,0,0,1-.5.4c-.11.06-.28,0-.43,0H3.23c-.14,0-.31.05-.43,0a3.65,3.65,0,0,1-.5-.4c.17-.15.34-.42.52-.43.94,0,1.89,0,2.83,0ZM12.23,6.66H3.36l1.15,3.43c2.1,0,4.17,0,6.24,0a.5.5,0,0,0,.39-.2C11.51,8.82,11.86,7.76,12.23,6.66ZM7.11,11v7.75H8.47V11ZM8.92,4.63H6.68L7,5.72H8.61Z"/></svg>