<svg id="Layer_1" data-name="Layer 1" xmlns="http://www.w3.org/2000/svg" viewBox="0 0 22 22"><defs><style>.cls-1{fill:#4a484a;}.cls-2{fill:#4b484a;fill-rule:evenodd;}</style></defs><path class="cls-1" d="M2.44,3.93A2.55,2.55,0,0,1,5.15,1.56H16A2.55,2.55,0,0,1,18.7,3.93V18.18A2.56,2.56,0,0,1,16,20.56H5.15a2.56,2.56,0,0,1-2.71-2.38ZM16,2.75H5.15A1.28,1.28,0,0,0,3.79,3.93V18.18a1.28,1.28,0,0,0,1.36,1.19H16a1.27,1.27,0,0,0,1.35-1.19V3.93A1.27,1.27,0,0,0,16,2.75Z"/><path class="cls-2" d="M11.39,7.63a.26.26,0,0,1,0,.35h0L8.6,10.76l2.79,2.79a.25.25,0,1,1-.35.35l-3-3a.24.24,0,0,1,0-.35h0l3-3a.24.24,0,0,1,.35,0Z"/></svg>