<svg id="Layer_1" data-name="Layer 1" xmlns="http://www.w3.org/2000/svg" viewBox="0 0 22 22"><defs><style>.cls-1{fill:#4a484a;}</style></defs><path class="cls-1" d="M13.66,11.5H11.93V9.77a.58.58,0,0,0-1.16,0V11.5H9a.58.58,0,0,0,0,1.16h1.73v1.73a.58.58,0,0,0,1.16,0V12.66h1.73a.58.58,0,0,0,0-1.16Z"/><path class="cls-1" d="M13.09,1.67H6.72A2.31,2.31,0,0,0,4.41,4V17.86a2.32,2.32,0,0,0,2.31,2.32H16a2.31,2.31,0,0,0,2.31-2.32v-11Zm4,16.19A1.15,1.15,0,0,1,16,19H6.72a1.15,1.15,0,0,1-1.15-1.16V4A1.15,1.15,0,0,1,6.72,2.82h6.37V5.14a1.72,1.72,0,0,0,1.73,1.73h2.31Z"/></svg>