<svg id="Layer_1" data-name="Layer 1" xmlns="http://www.w3.org/2000/svg" viewBox="0 0 22 22"><defs><style>.cls-1{fill:#4b484a;}</style></defs><path class="cls-1" d="M17,19.37H12.27a.47.47,0,0,1-.47-.48V17A1.42,1.42,0,0,0,9,17v1.89a.47.47,0,0,1-.48.48H3.75a.48.48,0,0,1-.48-.48V14.16a.49.49,0,0,1,.48-.48H5.64a1.42,1.42,0,0,0,0-2.84H3.75a.48.48,0,0,1-.48-.47V5.63a.48.48,0,0,1,.48-.47H8V3.74a2.37,2.37,0,1,1,4.74,0V5.16H17a.47.47,0,0,1,.47.47V9.89h1.43a2.37,2.37,0,0,1,0,4.74H17.48v4.26A.47.47,0,0,1,17,19.37Zm-4.26-.95h3.79V14.16a.48.48,0,0,1,.47-.48h1.9a1.42,1.42,0,0,0,0-2.84H17a.47.47,0,0,1-.47-.47V6.1H12.27a.47.47,0,0,1-.47-.47V3.74A1.42,1.42,0,1,0,9,3.74V5.63a.47.47,0,0,1-.48.47H4.22V9.89H5.64a2.37,2.37,0,0,1,0,4.74H4.22v3.79H8V17a2.37,2.37,0,0,1,4.74,0Z"/></svg>