<svg id="Layer_1" data-name="Layer 1" xmlns="http://www.w3.org/2000/svg" viewBox="0 0 22 22"><defs><style>.cls-1{fill:#494849;}</style></defs><path class="cls-1" d="M10.75,1.73A7.25,7.25,0,0,0,3.5,9c0,5.21,7.25,12.09,7.25,12.09S18,14.2,18,9A7.26,7.26,0,0,0,10.75,1.73Zm2.67,14.53a35.75,35.75,0,0,1-2.67,3.1,39.59,39.59,0,0,1-2.67-3.1,24.14,24.14,0,0,1-2.37-3.72A8.38,8.38,0,0,1,4.7,9,6.05,6.05,0,0,1,16.8,9a8.38,8.38,0,0,1-1,3.55A22.72,22.72,0,0,1,13.42,16.26Z"/><path class="cls-1" d="M10.75,5.36A3.63,3.63,0,1,0,14.38,9,3.63,3.63,0,0,0,10.75,5.36Zm0,6.05A2.42,2.42,0,1,1,13.17,9,2.43,2.43,0,0,1,10.75,11.41Z"/></svg>