<svg id="Layer_1" data-name="Layer 1" xmlns="http://www.w3.org/2000/svg" viewBox="0 0 22 22"><defs><style>.cls-1{fill:#494849;}</style></defs><path class="cls-1" d="M20.28,8.74a.6.6,0,0,0,.6-.6V5.73a.6.6,0,0,0-.6-.61H19.2l-8-3.68-8,3.68H2.18a.61.61,0,0,0-.61.61V8.14a.6.6,0,0,0,.61.6h.6v8.45a.61.61,0,0,0-.59.46l-.6,2.41a.77.77,0,0,0,0,.15.6.6,0,0,0,.61.6h18.1a.34.34,0,0,0,.14,0,.59.59,0,0,0,.44-.73l-.6-2.41a.61.61,0,0,0-.59-.46V8.74Zm-9-6,5.09,2.35H6.13ZM3,19.6l.3-1.2h16l.3,1.2Zm1-2.41V8.74h1.2v8.45Zm2.41,0V8.74h3v8.45Zm4.22,0V8.74h1.21v8.45Zm2.42,0V8.74h3v8.45Zm4.22,0V8.74h1.21v8.45ZM2.78,7.54V6.33H19.67V7.54Z"/></svg>