<svg id="Layer_1" data-name="Layer 1" xmlns="http://www.w3.org/2000/svg" viewBox="0 0 22 22"><defs><style>.cls-1{fill:#494849;}</style></defs><path class="cls-1" d="M20.05,8.83a.6.6,0,0,0,.6-.6V5.81a.6.6,0,0,0-.6-.6H19L11,1.53,3,5.21H2a.6.6,0,0,0-.6.6V8.23a.6.6,0,0,0,.6.6h.6v8.45a.6.6,0,0,0-.58.46l-.61,2.41a.76.76,0,0,0,0,.15.6.6,0,0,0,.6.6h18.1l.15,0a.61.61,0,0,0,.44-.73L20,17.74a.6.6,0,0,0-.58-.46V8.83Zm-9-6,5.1,2.35H5.9ZM2.72,19.69l.3-1.2H19l.3,1.2Zm1-2.41V8.83H5v8.45Zm2.41,0V8.83h3v8.45Zm4.23,0V8.83h1.2v8.45Zm2.41,0V8.83h3v8.45Zm4.22,0V8.83h1.21v8.45ZM2.55,7.63V6.42h16.9V7.63Z"/></svg>