<svg id="Layer_1" data-name="Layer 1" xmlns="http://www.w3.org/2000/svg" viewBox="0 0 22 22"><defs><style>.cls-1{fill:#fff;}.cls-2{fill:#222;}</style></defs><path class="cls-1" d="M13.28,2.24h5.83v16.9H2.21v-12a.16.16,0,0,1,0,.07,3.36,3.36,0,0,0,6.58.46c.07-.25.1-.5.15-.74L9.35,7a.8.8,0,0,1,.25.11.8.8,0,0,0,1,0A.5.5,0,0,1,10.83,7a.77.77,0,0,0,.67-.72.42.42,0,0,1,.08-.18.78.78,0,0,0,0-1A.37.37,0,0,1,11.5,5a.77.77,0,0,0-.72-.76.41.41,0,0,1-.19-.08.77.77,0,0,0-1,0,.41.41,0,0,1-.19.08A.78.78,0,0,0,8.67,5a.92.92,0,0,1-.1.2l-.13-.21A3.29,3.29,0,0,0,5.8,3.37,3.37,3.37,0,0,0,2.33,5.85l-.12.51V2.24H4.36c-.06.07-.15.14-.16.21s0,.42,0,.63h.55l0-.27h8.13V5c0,.26.1.36.36.37h2.18V6.73H16C16,6.16,16,5.6,16,5a.39.39,0,0,0-.13-.24c-.35-.37-.72-.73-1.09-1.09ZM5.59,19.11H16.72c.31,0,.39-.08.39-.39V12.26a1,1,0,0,0,0-.17h-.55V13.3l-1-.94L17,11A.25.25,0,0,1,17.2,11,2,2,0,0,0,17.27,7a1.92,1.92,0,0,0-2.06,1.52,1.69,1.69,0,0,1-.55,1c-.06.05-.11.12-.17.18l-.78.81-.82-.82c-.21-.21-.34-.21-.54,0-.8.79-1.6,1.59-2.39,2.39-.21.21-.21.33,0,.55l3.79,3.78c.21.22.33.22.55,0l2.1-2.1.13-.12v4.35H5.59ZM4.18,10.68v6.93c0,.27.09.38.34.38H15.65c.23,0,.34-.11.34-.33V15.84s0-.06,0-.1h-.56v1.67H4.74V10.68Zm6.46,3.09H9.05c-.28,0-.37.09-.38.37v2c0,.31.09.4.41.4h3.53V16H9.26V14.33h1.38Zm5.91-9.84V6.45h.56V3.66a.26.26,0,0,0-.23-.29c-.39,0-.78,0-1.16,0v.56Zm-4.79,5.9V9.27H8.41v.56Zm-2.52,1.7H5.88v.55H9.24ZM7.56,11H10c.41,0,.4,0,.41-.4,0-.14,0-.18-.18-.18H7.56Zm4.49-3.09H9.25v.55h2.8Zm-6.17,5.9v.55H8.1v-.55ZM8.11,14.9H5.88v.54H8.11Zm0,1.12H5.88v.55H8.11Zm3.38-1.12H9.81v.54h1.68ZM7.55,12.65H5.88v.55H7.55ZM7,11V10.4H5.88V11ZM8.12,13.2H9.23v-.55H8.12Z"/><path class="cls-2" d="M3.21,6.36l.12-.51A3.37,3.37,0,0,1,6.8,3.37,3.29,3.29,0,0,1,9.44,4.94l.13.21a.92.92,0,0,0,.1-.2.78.78,0,0,1,.72-.76.41.41,0,0,0,.19-.08.77.77,0,0,1,1,0,.41.41,0,0,0,.19.08A.77.77,0,0,1,12.5,5a.37.37,0,0,0,.07.14.78.78,0,0,1,0,1,.42.42,0,0,0-.08.18.77.77,0,0,1-.67.72.5.5,0,0,0-.26.11.8.8,0,0,1-1,0A.8.8,0,0,0,10.35,7L10,6.91c-.05.24-.08.49-.15.74a3.36,3.36,0,0,1-6.58-.46.16.16,0,0,0,0-.07Zm6.18.48a2.81,2.81,0,1,0-2.92,2.7A2.8,2.8,0,0,0,9.39,6.84Zm.85-1.69.07,0a1.21,1.21,0,0,1-.21.24c-.18.14-.19.26,0,.38a.3.3,0,0,1,.16.39c0,.2.06.31.26.25a.3.3,0,0,1,.38.16c.1.18.26.18.37,0s.18-.21.38-.17.32-.06.26-.26a.29.29,0,0,1,.15-.37q.3-.19,0-.39a.27.27,0,0,1-.15-.35c.06-.23,0-.34-.28-.28a.29.29,0,0,1-.35-.14c-.13-.21-.25-.2-.4,0a.41.41,0,0,1-.25.15c-.11,0-.26,0-.32,0S10.26,5,10.24,5.15Z"/><path class="cls-2" d="M14.28,2.24l1.48,1.47c.37.36.74.72,1.09,1.09A.39.39,0,0,1,17,5c0,.56,0,1.12,0,1.69h-.55V5.34H14.25c-.26,0-.36-.11-.36-.37V2.81H5.76l0,.27H5.19c0-.21,0-.42,0-.63s.1-.14.16-.21Zm1.66,2.52L14.47,3.3V4.76Z"/><path class="cls-2" d="M6.59,19.11v-.56H17.53V14.2l-.13.12-2.1,2.1c-.22.22-.34.22-.55,0L11,12.64c-.21-.22-.21-.34,0-.55.79-.8,1.59-1.6,2.39-2.39.2-.21.33-.21.54,0l.82.82.78-.81c.06-.06.11-.13.17-.18a1.69,1.69,0,0,0,.55-1A1.92,1.92,0,0,1,18.27,7,2,2,0,0,1,18.2,11,.25.25,0,0,0,18,11L16.6,12.36l.95.94V12.09h.55a1,1,0,0,1,0,.17v6.46c0,.31-.08.39-.39.39H6.59Zm8.74-6.33a.71.71,0,0,0,.13-.12c.73-.69,1.46-1.37,2.17-2.06a.71.71,0,0,1,.53-.22,1.4,1.4,0,1,0-.3-2.77A1.37,1.37,0,0,0,16.72,9a.69.69,0,0,1-.21.51c-.64.66-1.26,1.33-1.89,2l-.3.32Zm-2.95-1.29L15.86,15l1.23-1.23-.95-.95-.58.54c-.2.19-.33.19-.53,0l-1.24-1.25c-.24-.23-.24-.34,0-.58L14.3,11l-.69-.7Zm-.86.85L15,15.85l.4-.38L11.92,12Z"/><path class="cls-2" d="M5.18,10.68h.56v6.73H16.42V15.74H17s0,.07,0,.1v1.82c0,.22-.11.33-.34.33H5.52c-.25,0-.34-.11-.34-.38V10.68Z"/><path class="cls-2" d="M11.64,13.77v.56H10.26V16h3.35v.56H10.08c-.32,0-.41-.09-.41-.4v-2c0-.28.1-.37.38-.37Z"/><path class="cls-2" d="M17.55,3.93h-.83V3.37c.38,0,.77,0,1.16,0a.26.26,0,0,1,.23.29V6.45h-.56Z"/><path class="cls-2" d="M12.76,9.83H9.41V9.27h3.35Z"/><path class="cls-2" d="M10.24,11.53v.55H6.88v-.55Z"/><path class="cls-2" d="M8.56,11v-.57H11.2c.14,0,.18,0,.18.18,0,.4,0,.4-.41.4H8.56Z"/><path class="cls-2" d="M13.05,7.87v.55h-2.8V7.87Z"/><path class="cls-2" d="M6.88,13.77H9.1v.55H6.88Z"/><path class="cls-2" d="M9.11,14.9v.54H6.88V14.9Z"/><path class="cls-2" d="M9.11,16v.55H6.88V16Z"/><path class="cls-2" d="M12.49,14.9v.54H10.81V14.9Z"/><path class="cls-2" d="M8.55,12.65v.55H6.88v-.55Z"/><path class="cls-2" d="M8,11H6.88V10.4H8Z"/><path class="cls-2" d="M9.12,13.2v-.55h1.11v.55Z"/><path class="cls-1" d="M9.39,6.84A2.81,2.81,0,1,1,6.7,3.93,2.79,2.79,0,0,1,9.39,6.84Zm-5,.67.76.75c.23.23.34.23.57,0l2.6-2.6.11-.12-.39-.4L5.44,7.77l-.62-.66Z"/><path class="cls-1" d="M10.24,5.15c0-.11,0-.26.07-.32s.21,0,.32,0a.41.41,0,0,0,.25-.15c.15-.2.27-.21.4,0a.29.29,0,0,0,.35.14c.24-.06.34,0,.28.28a.27.27,0,0,0,.15.35q.3.2,0,.39a.29.29,0,0,0-.15.37c.06.2-.05.31-.26.26s-.27,0-.38.17-.27.17-.37,0a.3.3,0,0,0-.38-.16c-.2.06-.31-.05-.26-.25a.3.3,0,0,0-.16-.39c-.19-.12-.18-.24,0-.38a1.21,1.21,0,0,0,.21-.24Z"/><path class="cls-1" d="M15.94,4.76H14.47V3.3Z"/><path class="cls-2" d="M4.42,7.51l.4-.4.62.66L8.07,5.14l.39.4-.11.12-2.6,2.6c-.23.23-.34.23-.57,0Z"/></svg>