<svg id="Layer_1" data-name="Layer 1" xmlns="http://www.w3.org/2000/svg" viewBox="0 0 22 22"><defs><style>.cls-1{fill:#494849;}</style></defs><path class="cls-1" d="M18.62,4H4.08A2.42,2.42,0,0,0,1.66,6.41v9.7a2.42,2.42,0,0,0,2.42,2.42H18.62a2.43,2.43,0,0,0,2.43-2.42V6.41A2.42,2.42,0,0,0,18.62,4ZM2.87,8.09l5.71,3.42L2.87,15Zm15.75,9.23H4.08a1.21,1.21,0,0,1-1.17-.9l6.84-4.21,1.6,1,1.61-1,6.84,4.21A1.23,1.23,0,0,1,18.62,17.32ZM19.84,15l-5.71-3.51,5.71-3.42Zm0-8.35-8.49,5.09L2.87,6.67V6.41A1.21,1.21,0,0,1,4.08,5.2H18.62a1.22,1.22,0,0,1,1.22,1.21Z"/></svg>