<svg id="Layer_1" data-name="Layer 1" xmlns="http://www.w3.org/2000/svg" viewBox="0 0 22 22"><defs><style>.cls-1{fill:#494849;}</style></defs><path class="cls-1" d="M20.45.69a.64.64,0,0,0-.63,0L9.41,5.86a.66.66,0,0,0-.36.58v4.09L1.68,13a.64.64,0,0,0-.44.61v7.16a.65.65,0,0,0,.65.65H13.6a.65.65,0,0,0,.65-.65v-2h1.31v2a.65.65,0,0,0,.65.65h3.9a.65.65,0,0,0,.65-.65V1.24A.63.63,0,0,0,20.45.69ZM9.05,20.11H2.54v-6L9.05,11.9Zm10.41,0h-2.6V18.16a.65.65,0,0,0-.65-.65H13.6a.65.65,0,0,0-.65.65v1.95h-2.6V6.85l9.11-4.56Z"/><rect class="cls-1" x="16.86" y="12.3" width="1.3" height="1.3"/><rect class="cls-1" x="16.86" y="7.1" width="1.3" height="1.3"/><rect class="cls-1" x="16.86" y="9.7" width="1.3" height="1.3"/><rect class="cls-1" x="6.44" y="17.51" width="1.3" height="1.3"/><rect class="cls-1" x="3.84" y="17.51" width="1.3" height="1.3"/><rect class="cls-1" x="6.44" y="14.9" width="1.3" height="1.3"/><rect class="cls-1" x="3.84" y="14.9" width="1.3" height="1.3"/><rect class="cls-1" x="16.86" y="4.49" width="1.3" height="1.3"/><rect class="cls-1" x="11.65" y="12.3" width="1.3" height="1.3"/><rect class="cls-1" x="11.65" y="9.7" width="1.3" height="1.3"/><rect class="cls-1" x="11.65" y="14.9" width="1.3" height="1.3"/><rect class="cls-1" x="11.65" y="7.1" width="1.3" height="1.3"/><rect class="cls-1" x="14.25" y="12.3" width="1.3" height="1.3"/><rect class="cls-1" x="14.25" y="7.1" width="1.3" height="1.3"/><rect class="cls-1" x="14.25" y="14.9" width="1.3" height="1.3"/><rect class="cls-1" x="14.25" y="9.7" width="1.3" height="1.3"/><rect class="cls-1" x="16.86" y="14.9" width="1.3" height="1.3"/></svg>