<svg id="Layer_1" data-name="Layer 1" xmlns="http://www.w3.org/2000/svg" viewBox="0 0 22 22"><defs><style>.cls-1{fill:#fff;}.cls-2{fill:#1b1b1b;}.cls-3{fill:#484848;}.cls-4{fill:#1b1a1b;}</style></defs><path class="cls-1" d="M4.57,4.43V1.87h11.8V4.43a.24.24,0,0,0,0-.08,1.24,1.24,0,0,0-1.3-1,1.19,1.19,0,0,0-1,.75,1.15,1.15,0,0,0,.2,1.26,1.22,1.22,0,0,0,1.86,0,1.45,1.45,0,0,0,.3-.64v2.4a.24.24,0,0,0,0-.08,1,1,0,0,0-.46-.63,1.25,1.25,0,0,0-1.56.3c-.31.41-.64.8-1,1.2,0,0-.06.08-.09.08h-.6c0-.51,0-1,0-1.49A1.45,1.45,0,0,0,11.23,5.1H9.7A1.47,1.47,0,0,0,8.3,6.2a4.82,4.82,0,0,0,0,1.14.25.25,0,0,0,.34.19.28.28,0,0,0,.15-.28c0-.26,0-.53,0-.79a1,1,0,0,1,.87-.86h1.69a1,1,0,0,1,.86.85c0,.5,0,1,0,1.5,0,0,0,.06,0,.08a.77.77,0,0,0-.73.82V9h-2V8.83A.74.74,0,0,0,8.69,8H7.75A.2.2,0,0,1,7.56,8c-.31-.4-.63-.79-.94-1.18a1.12,1.12,0,0,0-.76-.45,1.23,1.23,0,0,0-1,.25,1.15,1.15,0,0,0-.33.6V4.77a.24.24,0,0,0,0,.08,1.23,1.23,0,0,0,2.26.39,1.23,1.23,0,0,0-2-1.43A1.6,1.6,0,0,0,4.57,4.43ZM11.7,3.37a1.23,1.23,0,0,0-2.46,0,1.23,1.23,0,1,0,2.46,0Zm-1,2.71h-.49v.48h.49Z"/><path class="cls-1" d="M16.37,10.66v3H4.57v-3a.14.14,0,0,0,0,.06,1.21,1.21,0,0,0,1.25,1h1.3c.16,0,.26,0,.3.19a2.77,2.77,0,0,0,.1.26L8,13.25a.26.26,0,0,0,.28.19c.19,0,.26-.2.17-.4-.22-.52-.45-1-.67-1.57a.34.34,0,0,0-.37-.24H5.88a1.29,1.29,0,0,1-.4-.08.73.73,0,0,1-.42-.73v-3a.66.66,0,0,1,0-.14.46.46,0,0,1,.33-.41.72.72,0,0,1,.82.23l.92,1.14c.29.36.2.32.67.32H8.7c.17,0,.26.06.29.21A2.43,2.43,0,0,1,9,9H7a.21.21,0,0,1-.19-.1c-.18-.25-.37-.49-.56-.74A.25.25,0,0,0,6,8.06c-.18.06-.22.24-.1.41s.38.51.58.76a.4.4,0,0,1,.08.26v.7c0,.21.1.31.32.31h.79a.5.5,0,0,1,.57.41c.26.76.51,1.51.76,2.27a.14.14,0,0,1,0,.06.26.26,0,0,0,.32.19.24.24,0,0,0,.15-.35c-.26-.8-.52-1.59-.79-2.38A1,1,0,0,0,7.81,10c-.22,0-.44,0-.65,0H7V9.52H13.9V10h-.62a1,1,0,0,0-1,.73l-.78,2.32a.32.32,0,0,0,0,.14.23.23,0,0,0,.18.24.23.23,0,0,0,.27-.11.59.59,0,0,0,.06-.14l.76-2.28a.51.51,0,0,1,.56-.4h.8a.28.28,0,0,0,.32-.32v-.7a.37.37,0,0,1,.08-.24l.56-.75a.44.44,0,0,0,.09-.24.21.21,0,0,0-.19-.2.25.25,0,0,0-.27.11l-.57.77a.22.22,0,0,1-.19.09H12V8.91c0-.31.07-.38.37-.38h1a.43.43,0,0,0,.38-.18c.32-.42.66-.83,1-1.24a.74.74,0,0,1,.64-.31.53.53,0,0,1,.56.56v3.07a1,1,0,0,1-.08.38.72.72,0,0,1-.72.41H13.5a.33.33,0,0,0-.34.22c-.16.39-.33.77-.49,1.15-.08.18-.15.36-.22.54a.23.23,0,0,0,.16.29c.15,0,.25,0,.32-.19.21-.46.41-.93.61-1.4a.15.15,0,0,1,.17-.12h1.46a1.15,1.15,0,0,0,.9-.42A1.27,1.27,0,0,0,16.37,10.66ZM10.23,10v3.43h.48V10Z"/><path class="cls-2" d="M16.37,10.66a1.27,1.27,0,0,1-.3.64,1.15,1.15,0,0,1-.9.42H13.71a.15.15,0,0,0-.17.12c-.2.47-.4.94-.61,1.4-.07.17-.17.23-.32.19a.23.23,0,0,1-.16-.29c.07-.18.14-.36.22-.54.16-.38.33-.76.49-1.15a.33.33,0,0,1,.34-.22h1.58a.72.72,0,0,0,.72-.41,1,1,0,0,0,.08-.38V7.37a.53.53,0,0,0-.56-.56.74.74,0,0,0-.64.31c-.33.41-.67.82-1,1.24a.43.43,0,0,1-.38.18h-1c-.3,0-.38.07-.37.38V9h2a.22.22,0,0,0,.19-.09l.57-.77A.25.25,0,0,1,15,8.05a.21.21,0,0,1,.19.2.44.44,0,0,1-.09.24l-.56.75a.37.37,0,0,0-.08.24v.7a.28.28,0,0,1-.32.32h-.8a.51.51,0,0,0-.56.4L12,13.18a.59.59,0,0,1-.06.14.23.23,0,0,1-.27.11.23.23,0,0,1-.18-.24.32.32,0,0,1,0-.14l.78-2.32a1,1,0,0,1,1-.73h.62V9.52H7V10h.12c.21,0,.43,0,.65,0a1,1,0,0,1,.86.69c.27.79.53,1.58.79,2.38a.24.24,0,0,1-.15.35A.26.26,0,0,1,9,13.24a.14.14,0,0,0,0-.06c-.25-.76-.5-1.51-.76-2.27a.5.5,0,0,0-.57-.41H6.85c-.22,0-.32-.1-.32-.31v-.7a.4.4,0,0,0-.08-.26c-.2-.25-.39-.5-.58-.76s-.08-.35.1-.41a.25.25,0,0,1,.3.12c.19.25.38.49.56.74A.21.21,0,0,0,7,9H9a2.43,2.43,0,0,0,0-.27c0-.15-.12-.21-.29-.21H7.81c-.47,0-.38,0-.67-.32L6.22,7.07a.72.72,0,0,0-.82-.23.46.46,0,0,0-.33.41.66.66,0,0,0,0,.14v3a.73.73,0,0,0,.42.73,1.29,1.29,0,0,0,.4.08H7.42a.34.34,0,0,1,.37.24c.22.53.45,1,.67,1.57.09.2,0,.36-.17.4A.26.26,0,0,1,8,13.25l-.47-1.08a2.77,2.77,0,0,1-.1-.26c0-.16-.14-.2-.3-.19H5.84a1.21,1.21,0,0,1-1.25-1,.14.14,0,0,1,0-.06V7.17a1.15,1.15,0,0,1,.33-.6,1.23,1.23,0,0,1,1-.25,1.12,1.12,0,0,1,.76.45c.31.39.63.78.94,1.18A.2.2,0,0,0,7.75,8h.94a.74.74,0,0,1,.8.79V9h2V8.85A.77.77,0,0,1,12.18,8s0,0,0-.08c0-.5,0-1,0-1.5a1,1,0,0,0-.86-.85H9.63a1,1,0,0,0-.87.86c0,.26,0,.53,0,.79a.28.28,0,0,1-.15.28.25.25,0,0,1-.34-.19,4.82,4.82,0,0,1,0-1.14A1.47,1.47,0,0,1,9.7,5.1h1.53a1.45,1.45,0,0,1,1.45,1.45c0,.49,0,1,0,1.49h.6s.07,0,.09-.08c.32-.4.65-.79,1-1.2a1.25,1.25,0,0,1,1.56-.3,1,1,0,0,1,.46.63.24.24,0,0,1,0,.08Z"/><path class="cls-2" d="M4.57,4.43a1.6,1.6,0,0,1,.29-.62,1.23,1.23,0,0,1,2,1.43,1.23,1.23,0,0,1-2.26-.39.24.24,0,0,1,0-.08Zm1.21.9a.73.73,0,0,0,0-1.46.73.73,0,1,0,0,1.46Z"/><path class="cls-2" d="M16.37,4.77a1.45,1.45,0,0,1-.3.64,1.22,1.22,0,0,1-1.86,0A1.15,1.15,0,0,1,14,4.13a1.19,1.19,0,0,1,1-.75,1.24,1.24,0,0,1,1.3,1,.24.24,0,0,1,0,.08Zm-1.24.56a.73.73,0,0,0,.75-.71.74.74,0,0,0-1.47,0A.73.73,0,0,0,15.13,5.33Z"/><path class="cls-2" d="M11.7,3.37a1.23,1.23,0,1,1-2.46,0,1.23,1.23,0,0,1,2.46,0Zm-1.23-.73a.74.74,0,1,0,.74.73A.75.75,0,0,0,10.47,2.64Z"/><path class="cls-3" d="M10.72,6.08v.48h-.49V6.08Z"/><path class="cls-2" d="M10.23,10h.48v3.43h-.48Z"/><path class="cls-4" d="M17.74,20.63a2.8,2.8,0,1,1,2.79-2.79A2.79,2.79,0,0,1,17.74,20.63Zm0,.4a3.2,3.2,0,1,0-3.2-3.19A3.19,3.19,0,0,0,17.74,21Z"/><path class="cls-4" d="M17.74,16.24a.19.19,0,0,1,.19.2v1.2h1.2a.2.2,0,0,1,0,.4h-1.2v1.19a.19.19,0,0,1-.19.2.2.2,0,0,1-.2-.2V18h-1.2a.2.2,0,0,1,0-.4h1.2v-1.2A.2.2,0,0,1,17.74,16.24Z"/></svg>