<svg id="Layer_1" data-name="Layer 1" xmlns="http://www.w3.org/2000/svg" viewBox="0 0 22 22"><defs><style>.cls-1{fill:#494849;}.cls-2{fill:#4a484a;}</style></defs><path class="cls-1" d="M7.67,1.67A5.83,5.83,0,1,0,13.52,7.5,5.84,5.84,0,0,0,7.67,1.67Zm0,10.48A4.66,4.66,0,1,1,12.35,7.5,4.67,4.67,0,0,1,7.67,12.15Z"/><path class="cls-1" d="M14.08,9.74a5.83,5.83,0,1,0,5.86,5.82A5.85,5.85,0,0,0,14.08,9.74Zm0,10.48a4.66,4.66,0,1,1,4.69-4.66A4.67,4.67,0,0,1,14.08,20.22Z"/><path class="cls-1" d="M14.64,15.7l-.34-.08V14.25a.81.81,0,0,1,.77.61h.75a1.45,1.45,0,0,0-1.52-1.23v-.5h-.42v.52A1.39,1.39,0,0,0,12.45,15c0,.64.43,1,1.14,1.21l.29.07V17.7a.88.88,0,0,1-.8-.64h-.76a1.46,1.46,0,0,0,1.56,1.27v.5h.42v-.5c1-.07,1.58-.61,1.58-1.38S15.44,15.88,14.64,15.7Zm-.76-.18h0c-.42-.1-.64-.3-.64-.6a.69.69,0,0,1,.65-.66Zm.42,2.19V16.35l.07,0c.51.11.74.31.74.64S14.82,17.66,14.3,17.71Z"/><path class="cls-2" d="M5.82,7.32A.34.34,0,0,1,5.47,7a.35.35,0,0,1,.35-.35h.3A2.37,2.37,0,0,1,8.35,5.05h.26a.35.35,0,1,1,0,.7H8.35a1.66,1.66,0,0,0-1.46.87H8.26A.35.35,0,0,1,8.61,7a.35.35,0,0,1-.35.35H6.69v.35H8.26a.35.35,0,0,1,0,.7H6.89a1.66,1.66,0,0,0,1.46.87h.26a.35.35,0,1,1,0,.7H8.35A2.37,2.37,0,0,1,6.12,8.37h-.3a.35.35,0,0,1,0-.7H6V7.32Z"/></svg>