<svg id="Layer_1" data-name="Layer 1" xmlns="http://www.w3.org/2000/svg" viewBox="0 0 22 22"><defs><style>.cls-1{fill:#494849;fill-rule:evenodd;}</style></defs><path class="cls-1" d="M6.1,13.22h-2a.6.6,0,0,0-.62.59.61.61,0,0,0,.62.59h2a.61.61,0,0,0,.63-.59A.61.61,0,0,0,6.1,13.22Z"/><path class="cls-1" d="M6.55,8.78a.66.66,0,0,0-.89,0,.57.57,0,0,0,0,.83l1.15,1.08a.66.66,0,0,0,.89,0,.57.57,0,0,0,0-.83Z"/><path class="cls-1" d="M11,9.69a.61.61,0,0,0,.62-.59V7.33a.63.63,0,0,0-1.25,0V9.1A.61.61,0,0,0,11,9.69Z"/><path class="cls-1" d="M16.36,8.81h0a.51.51,0,0,0-.66,0L10.45,13a1,1,0,0,0-.14,1.51,1.19,1.19,0,0,0,1.61.13,1.14,1.14,0,0,0,.16-.15l4.31-5.06A.44.44,0,0,0,16.36,8.81Z"/><path class="cls-1" d="M15.41,13.81a.61.61,0,0,0,.63.59h1.88a.61.61,0,0,0,.63-.59.61.61,0,0,0-.63-.59H16A.61.61,0,0,0,15.41,13.81Z"/><path class="cls-1" d="M11,4.4c-5.55,0-10,4.2-10,9.41a8.87,8.87,0,0,0,.56,3.13,2.93,2.93,0,0,0,3.68,1.47A22,22,0,0,1,11,17.34a21.91,21.91,0,0,1,5.79,1.07,2.92,2.92,0,0,0,3.68-1.47,8.79,8.79,0,0,0,.57-3.12C21.06,8.62,16.57,4.4,11,4.4Zm8.28,12.15a1.66,1.66,0,0,1-2.11.74A23.41,23.41,0,0,0,11,16.16a23.41,23.41,0,0,0-6.18,1.13,1.65,1.65,0,0,1-2.11-.74,7.83,7.83,0,0,1-.5-2.75A8.53,8.53,0,0,1,11,5.56,9.34,9.34,0,0,1,13.94,6,8.13,8.13,0,0,1,19.31,16.55Z"/></svg>