<svg id="Layer_1" data-name="Layer 1" xmlns="http://www.w3.org/2000/svg" viewBox="0 0 22 22"><defs><style>.cls-1{fill:#494849;}</style></defs><path class="cls-1" d="M10.05,14.16H7.66a.59.59,0,0,0-.6.59.6.6,0,0,0,.6.6h2.39a.6.6,0,0,0,.6-.6A.59.59,0,0,0,10.05,14.16Z"/><path class="cls-1" d="M13.64,11.76h-6a.6.6,0,1,0,0,1.2h6a.6.6,0,0,0,0-1.2Z"/><path class="cls-1" d="M13.64,9.37h-6a.6.6,0,0,0,0,1.2h6a.6.6,0,1,0,0-1.2Z"/><path class="cls-1" d="M12.44,1H5.86A2.39,2.39,0,0,0,3.47,3.39V17.74a2.39,2.39,0,0,0,2.39,2.4h9.57a2.39,2.39,0,0,0,2.39-2.4V6.38Zm4.19,16.74a1.2,1.2,0,0,1-1.2,1.2H5.86a1.19,1.19,0,0,1-1.19-1.2V3.39A1.19,1.19,0,0,1,5.86,2.2h6.58V4.59a1.79,1.79,0,0,0,1.8,1.79h2.39Z"/></svg>