<svg id="Layer_1" data-name="Layer 1" xmlns="http://www.w3.org/2000/svg" viewBox="0 0 22 22"><defs><style>.cls-1{fill:#4a484a;}</style></defs><path class="cls-1" d="M11,6.42A3.77,3.77,0,0,0,7,10.4a3.73,3.73,0,0,0,4,4,5.12,5.12,0,0,0,1.61-.23v-.6a4.55,4.55,0,0,1-1.6.23A3.15,3.15,0,0,1,7.7,10.43,3.19,3.19,0,0,1,10.91,7a2.92,2.92,0,0,1,3.21,2.9c0,1.18-.38,1.93-1,1.93a.48.48,0,0,1-.53-.53V8.53h-.72v.58H11.8a1.2,1.2,0,0,0-1.12-.68A1.76,1.76,0,0,0,9,10.4c0,1.22.67,2,1.66,2a1.23,1.23,0,0,0,1.2-.76H12a1,1,0,0,0,1.05.8c1.1,0,1.79-1,1.79-2.54h0A3.51,3.51,0,0,0,11,6.42Zm-.18,5.34c-.62,0-1-.51-1-1.34s.37-1.33,1-1.33,1.07.52,1.07,1.33S11.45,11.76,10.79,11.76Z"/><path class="cls-1" d="M11.57,2.29C6.4,2.29,2.2,6,2.2,10.49a7.61,7.61,0,0,0,2.31,5.39,12.4,12.4,0,0,1-.62,2.71v0c-.09.25-.18.5-.29.74a.31.31,0,0,0,.32.43l.84-.15a16.08,16.08,0,0,0,4.06-1.3,10.65,10.65,0,0,0,2.75.36c5.17,0,9.37-3.67,9.37-8.2S16.74,2.29,11.57,2.29Zm0,15.23a9.63,9.63,0,0,1-2.45-.32,1.19,1.19,0,0,0-.83.09,13.93,13.93,0,0,1-3.08,1A13.27,13.27,0,0,0,5.67,16a1.17,1.17,0,0,0-.33-.94,6.4,6.4,0,0,1-2-4.56c0-3.74,3.52-7,8.2-7s8.2,3.29,8.2,7S16.25,17.52,11.57,17.52Z"/></svg>