<svg id="Layer_1" data-name="Layer 1" xmlns="http://www.w3.org/2000/svg" viewBox="0 0 22 22"><defs><style>.cls-1{fill:#494849;}</style></defs><path class="cls-1" d="M19.21,3.49H2.79A1.9,1.9,0,0,0,.9,5.39V16.75a1.9,1.9,0,0,0,1.89,1.9H19.21a1.9,1.9,0,0,0,1.89-1.9V5.39A1.9,1.9,0,0,0,19.21,3.49Zm.63,13.26a.63.63,0,0,1-.63.63H2.79a.63.63,0,0,1-.63-.63V5.39a.64.64,0,0,1,.63-.64H19.21a.64.64,0,0,1,.63.64Z"/><path class="cls-1" d="M5,10.44a.63.63,0,1,0,.63.63A.63.63,0,0,0,5,10.44Z"/><path class="cls-1" d="M5,13.59a.64.64,0,1,0,.63.64A.64.64,0,0,0,5,13.59Z"/><path class="cls-1" d="M5,7.28a.63.63,0,1,0,.63.63A.63.63,0,0,0,5,7.28Z"/><path class="cls-1" d="M16.36,7.28H7.52a.63.63,0,1,0,0,1.26h8.84a.63.63,0,0,0,0-1.26Z"/><path class="cls-1" d="M16.36,13.59H7.52a.64.64,0,0,0,0,1.27h8.84a.64.64,0,0,0,0-1.27Z"/><path class="cls-1" d="M16.36,10.44H7.52a.63.63,0,0,0,0,1.26h8.84a.63.63,0,1,0,0-1.26Z"/></svg>