<svg id="Layer_1" data-name="Layer 1" xmlns="http://www.w3.org/2000/svg" viewBox="0 0 22 22"><defs><style>.cls-1{fill:#494849;}</style></defs><path class="cls-1" d="M10.4,14.59H8a.6.6,0,0,0-.6.6.59.59,0,0,0,.6.59H10.4a.59.59,0,0,0,.6-.59A.6.6,0,0,0,10.4,14.59Z"/><path class="cls-1" d="M14,12.2H8a.59.59,0,0,0-.6.59.6.6,0,0,0,.6.6h6a.6.6,0,0,0,.6-.6A.59.59,0,0,0,14,12.2Z"/><path class="cls-1" d="M14,9.8H8A.6.6,0,0,0,8,11h6a.6.6,0,0,0,0-1.2Z"/><path class="cls-1" d="M12.79,1.43H6.22a2.39,2.39,0,0,0-2.4,2.39V18.18a2.39,2.39,0,0,0,2.4,2.39h9.56a2.39,2.39,0,0,0,2.4-2.39V6.81ZM17,18.18a1.19,1.19,0,0,1-1.2,1.19H6.22A1.19,1.19,0,0,1,5,18.18V3.82a1.19,1.19,0,0,1,1.2-1.19h6.57V5a1.8,1.8,0,0,0,1.8,1.79H17Z"/></svg>