<svg id="Layer_1" data-name="Layer 1" xmlns="http://www.w3.org/2000/svg" viewBox="0 0 22 22"><defs><style>.cls-1{fill:#494849;}</style></defs><path class="cls-1" d="M20.64.69a.64.64,0,0,0-.63,0L9.6,5.86a.66.66,0,0,0-.36.58v4.09L1.87,13a.64.64,0,0,0-.44.61v7.16a.65.65,0,0,0,.65.65H13.79a.65.65,0,0,0,.65-.65v-2h1.3v2a.65.65,0,0,0,.65.65H20.3a.65.65,0,0,0,.65-.65V1.24A.63.63,0,0,0,20.64.69ZM9.24,20.11H2.73v-6L9.24,11.9Zm10.41,0H17V18.16a.65.65,0,0,0-.65-.65h-2.6a.65.65,0,0,0-.65.65v1.95h-2.6V6.85l9.11-4.56Z"/><rect class="cls-1" x="17.04" y="4.49" width="1.3" height="1.3"/><rect class="cls-1" x="17.04" y="7.1" width="1.3" height="1.3"/><rect class="cls-1" x="17.04" y="9.7" width="1.3" height="1.3"/><rect class="cls-1" x="6.63" y="17.51" width="1.3" height="1.3"/><rect class="cls-1" x="17.04" y="12.3" width="1.3" height="1.3"/><rect class="cls-1" x="4.03" y="17.51" width="1.3" height="1.3"/><rect class="cls-1" x="4.03" y="14.9" width="1.3" height="1.3"/><rect class="cls-1" x="6.63" y="14.9" width="1.3" height="1.3"/><rect class="cls-1" x="11.84" y="9.7" width="1.3" height="1.3"/><rect class="cls-1" x="11.84" y="7.1" width="1.3" height="1.3"/><rect class="cls-1" x="11.84" y="12.3" width="1.3" height="1.3"/><rect class="cls-1" x="11.84" y="14.9" width="1.3" height="1.3"/><rect class="cls-1" x="14.44" y="14.9" width="1.3" height="1.3"/><rect class="cls-1" x="17.04" y="14.9" width="1.3" height="1.3"/><rect class="cls-1" x="14.44" y="7.1" width="1.3" height="1.3"/><rect class="cls-1" x="14.44" y="9.7" width="1.3" height="1.3"/><rect class="cls-1" x="14.44" y="12.3" width="1.3" height="1.3"/></svg>