<svg id="Layer_1" data-name="Layer 1" xmlns="http://www.w3.org/2000/svg" viewBox="0 0 22 22"><defs><style>.cls-1{fill:#494849;}</style></defs><path class="cls-1" d="M8.6,13.28h4.75a.58.58,0,0,0,.59-.59.59.59,0,0,0-.59-.6H8.6a.6.6,0,0,0-.6.6A.59.59,0,0,0,8.6,13.28Z"/><path class="cls-1" d="M18.1,2.59H16.91V2a.59.59,0,0,0-.59-.6.6.6,0,0,0-.6.6v.59H6.22V2A.6.6,0,1,0,5,2v.59H3.84A2.37,2.37,0,0,0,1.47,5V18a2.37,2.37,0,0,0,2.37,2.37H18.1A2.38,2.38,0,0,0,20.48,18V5A2.38,2.38,0,0,0,18.1,2.59ZM19.29,18a1.18,1.18,0,0,1-1.19,1.18H3.84A1.18,1.18,0,0,1,2.66,18V6.15H19.29Z"/></svg>