<svg id="Layer_1" data-name="Layer 1" xmlns="http://www.w3.org/2000/svg" viewBox="0 0 22 22"><defs><style>.cls-1{fill:#494849;}</style></defs><path class="cls-1" d="M7,9.81a1.92,1.92,0,1,0,1.91,1.91A1.91,1.91,0,0,0,7,9.81Z"/><path class="cls-1" d="M17.75,4.25H6.32A2.29,2.29,0,0,0,4,6.54,2.3,2.3,0,0,0,1.74,8.83V18A2.29,2.29,0,0,0,4,20.26H15.47A2.29,2.29,0,0,0,17.76,18,2.29,2.29,0,0,0,20,15.69V6.54A2.29,2.29,0,0,0,17.75,4.25ZM16.61,15.12l-2-2.23a.56.56,0,0,0-.66.11L9.68,17.24l-3-2a.58.58,0,0,0-.73.08L2.89,18V8.83A1.15,1.15,0,0,1,4,7.68H15.47a1.15,1.15,0,0,1,1.14,1.15Zm2.29.57a1.14,1.14,0,0,1-1.14,1.14v-8a2.29,2.29,0,0,0-2.29-2.29H5.17A1.15,1.15,0,0,1,6.32,5.4H17.75A1.14,1.14,0,0,1,18.9,6.54Z"/></svg>