<svg id="Layer_1" data-name="Layer 1" xmlns="http://www.w3.org/2000/svg" viewBox="0 0 22 22"><defs><style>.cls-1{fill:#fff;}.cls-2{fill:#222;}</style></defs><path class="cls-1" d="M19.53,21H.65V2.12H19.53ZM14.1,18.94a7.9,7.9,0,0,1,1.1,0c.87.12,1.18-.17,1.17-1.11-.05-4.52,0-9,0-13.55,0-.81-.18-1.08-1-1.06q-5.33.06-10.65,0c-.82,0-1.06.21-1.06,1,0,4.49,0,9,0,13.46,0,1.21,0,1.21,1.22,1.21H9.62c0,.45,0,.76,0,1.07a7.08,7.08,0,0,0,.22.75,3.39,3.39,0,0,0,.73-.3c.45-.31.87-.67,1.29-1,.5.4.9.75,1.33,1.06a2.93,2.93,0,0,0,.66.26,2.81,2.81,0,0,0,.23-.65A11.15,11.15,0,0,0,14.1,18.94Z"/><path class="cls-2" d="M14.1,18.94a11.15,11.15,0,0,1,0,1.18,2.81,2.81,0,0,1-.23.65,2.93,2.93,0,0,1-.66-.26c-.43-.31-.83-.66-1.33-1.06-.42.34-.84.7-1.29,1a3.39,3.39,0,0,1-.73.3A7.08,7.08,0,0,1,9.63,20c0-.31,0-.62,0-1.07H4.86c-1.22,0-1.22,0-1.22-1.21,0-4.49,0-9,0-13.46,0-.83.24-1,1.06-1q5.33.06,10.65,0c.85,0,1,.25,1,1.06,0,4.52,0,9,0,13.55,0,.94-.3,1.23-1.17,1.11A7.9,7.9,0,0,0,14.1,18.94Zm-4.36-.78c-.16-1-.27-1.95-.44-2.85A2.73,2.73,0,0,1,10.62,13,2.87,2.87,0,0,1,13,13a2.58,2.58,0,0,1,1.4,2.47c-.16.89-.22,1.8-.32,2.71h1.51V4H4.45V18.16Zm.6-2,.92.78h1.2l.88-.74.27-1.26-.62-1-1.12-.44-1.12.42-.62,1Zm.07,3.34c.58-.35,1.05-.85,1.52-.85s.89.53,1.38.85V17.67h-2.9Z"/><path class="cls-1" d="M9.74,18.16H4.45V4H15.56V18.13H14.05c.1-.91.16-1.82.32-2.71A2.58,2.58,0,0,0,13,13a2.87,2.87,0,0,0-2.35,0A2.73,2.73,0,0,0,9.3,15.31C9.47,16.21,9.58,17.13,9.74,18.16Zm-3.33-10-.22.28c.21.15.42.42.64.43,2.11,0,4.22,0,6.34,0,.6,0,.66-.24.45-.73Zm6.43-1.54.22-.28c-.22-.15-.43-.41-.65-.42-1.87,0-3.73,0-5.6,0-.62,0-.65.26-.43.72ZM6.17,10.8l.22.25h5.38l.18-.19c-.18-.17-.36-.48-.54-.49-1.55,0-3.1,0-4.66,0C6.56,10.37,6.36,10.65,6.17,10.8Zm0,1.81c.12.3.19.67.27.67a12.44,12.44,0,0,0,1.93,0s.06-.39.09-.63Z"/><path class="cls-2" d="M6.41,8.12h7.21c.21.49.15.73-.45.73-2.12,0-4.23,0-6.34,0-.22,0-.43-.28-.64-.43Z"/><path class="cls-2" d="M12.84,6.58H6.38c-.22-.46-.19-.73.43-.72,1.87,0,3.73,0,5.6,0,.22,0,.43.27.65.42Z"/><path class="cls-2" d="M6.17,10.8c.19-.15.39-.43.58-.43,1.56,0,3.11,0,4.66,0,.18,0,.36.32.54.49l-.18.19H6.39Z"/><path class="cls-2" d="M6.18,12.61H8.47c0,.24,0,.63-.09.63a12.44,12.44,0,0,1-1.93,0C6.37,13.28,6.3,12.91,6.18,12.61Z"/></svg>