<svg id="Layer_1" data-name="Layer 1" xmlns="http://www.w3.org/2000/svg" viewBox="0 0 22 22"><defs><style>.cls-1{fill:#494849;}.cls-2{fill:#4a484a;fill-rule:evenodd;}</style></defs><path class="cls-1" d="M11,6.06a2.42,2.42,0,1,0,2.42,2.42A2.42,2.42,0,0,0,11,6.06Zm0,4.36a1.94,1.94,0,1,1,1.94-1.94A1.94,1.94,0,0,1,11,10.42Z"/><path class="cls-1" d="M11.23,8.38l-.14,0v-.6a.35.35,0,0,1,.33.27h.33a.64.64,0,0,0-.66-.54V7.26H10.9v.23a.6.6,0,0,0-.62.57c0,.28.19.46.5.53l.12,0v.63A.35.35,0,0,1,10.56,9h-.34a.65.65,0,0,0,.68.55v.22h.19V9.53c.43,0,.69-.26.69-.6S11.58,8.46,11.23,8.38ZM10.9,8.3h0c-.18,0-.28-.13-.28-.26a.29.29,0,0,1,.28-.28Zm.19,1V8.67h0c.23.05.33.14.33.29S11.31,9.24,11.09,9.26Z"/><path class="cls-2" d="M14,4.08H8a1,1,0,0,0-1,1v6a.5.5,0,0,1-1,0v-6a2,2,0,0,1,2-2h6a2,2,0,0,1,2,2v6a.5.5,0,0,1-1,0v-6A1,1,0,0,0,14,4.08Zm1,13a1,1,0,0,1-1,1H8a1,1,0,0,1-1-1v-2a.5.5,0,1,0-1,0v2a2,2,0,0,0,2,2h6a2,2,0,0,0,2-2v-2a.5.5,0,1,0-1,0ZM4.71,11A.52.52,0,0,0,5,10.37a.5.5,0,0,0-.67-.24h0a3.34,3.34,0,0,0-.88.57,1.22,1.22,0,0,0-.41.88,1.5,1.5,0,0,0,.82,1.2,6.56,6.56,0,0,0,1.75.7,22.34,22.34,0,0,0,5.43.6h.29l-1.14,1.15a.5.5,0,0,0,0,.71.5.5,0,0,0,.7,0l2-2a.5.5,0,0,0,0-.71h0l-2-2a.48.48,0,0,0-.7,0,.5.5,0,0,0,0,.71l1.14,1.14H11a20.89,20.89,0,0,1-5.17-.57,5.4,5.4,0,0,1-1.47-.57C4,11.72,4,11.59,4,11.58s0-.06.11-.17a2.25,2.25,0,0,1,.6-.37Zm13-.91a.5.5,0,0,0-.67.24.52.52,0,0,0,.25.67,2.25,2.25,0,0,1,.6.37c.11.11.11.17.11.17s0,.07-.13.19a2.41,2.41,0,0,1-.68.4,11.32,11.32,0,0,1-2.76.69.5.5,0,0,0-.42.57.52.52,0,0,0,.56.42,12.14,12.14,0,0,0,3-.76,3.56,3.56,0,0,0,1-.59,1.26,1.26,0,0,0,.45-.92,1.22,1.22,0,0,0-.41-.88A3.34,3.34,0,0,0,17.71,10.13ZM10.5,5.08a.5.5,0,0,0,0,1h1a.5.5,0,0,0,0-1Z"/></svg>