<svg id="Layer_1" data-name="Layer 1" xmlns="http://www.w3.org/2000/svg" viewBox="0 0 22 22"><defs><style>.cls-1{fill:#242424;}</style></defs><path class="cls-1" d="M2.68,13.33c.06-.29.09-.58.17-.87A5.87,5.87,0,0,1,7.44,8,4.79,4.79,0,0,1,9,7.87h.09c.07-.38.12-.75.21-1.12A5.05,5.05,0,0,1,9.61,6a.33.33,0,1,1,.6.28,4,4,0,0,0,.21,3.79.66.66,0,0,1,.09.31,3,3,0,0,1-.26,1.51.69.69,0,0,1,0,.1A2.91,2.91,0,0,0,12,11.77a.78.78,0,0,1,.6,0,4,4,0,1,0,1.74-7.7,3.92,3.92,0,0,0-2,.28c-.29.12-.47.08-.56-.13s0-.37.3-.49a4.63,4.63,0,1,1,2.78,8.8l-.28.06.12.8h4.18a.75.75,0,0,1,.8.8v2.18a.76.76,0,0,1-.79.81H14a.34.34,0,0,1-.1,0c-.22-.11-.32,0-.45.19a5.86,5.86,0,0,1-4.12,2.42A6,6,0,0,1,2.79,15c0-.23-.07-.46-.11-.68Zm4,1.81a2.59,2.59,0,0,1-.61-1.63,2.55,2.55,0,0,1,.57-1.63,2.61,2.61,0,0,1,3.14-.71c0-.15,0-.3,0-.44a.94.94,0,0,0-.11-.52,10.2,10.2,0,0,1-.41-1,4.47,4.47,0,0,1-.14-.61A5.29,5.29,0,0,0,5,17.63,3.78,3.78,0,0,1,6.7,15.14Zm2,4a5.35,5.35,0,0,0,2.95-.89.21.21,0,0,0,.11-.23,3.08,3.08,0,0,0-1.5-2.35.23.23,0,0,0-.25,0,2.49,2.49,0,0,1-2.63,0,.21.21,0,0,0-.24,0A3.12,3.12,0,0,0,5.59,18a.22.22,0,0,0,.13.24A5.29,5.29,0,0,0,8.66,19.15Zm4.42-3.89a4.11,4.11,0,0,0,.41.27.64.64,0,0,1,.41.75c0,.16,0,.21.21.21h4.62c.21,0,.22,0,.22-.22v-2c0-.22,0-.23-.24-.23H14.32c-.45,0-.43-.07-.42.41a.45.45,0,0,1-.23.44C13.47,15,13.29,15.12,13.08,15.26ZM9.55,11.81a1.83,1.83,0,0,0-1.27-.18,1.89,1.89,0,1,0,2.17,1.21.21.21,0,0,0-.21-.16l-.57-.1A.34.34,0,0,1,9.43,12C9.46,12,9.5,11.9,9.55,11.81ZM14,13.35l-.09-.62c0-.09-.07-.11-.15-.12a9,9,0,0,1-1-.14,1,1,0,0,0-.73,0,2.25,2.25,0,0,1-.54.14,2.47,2.47,0,0,1-.29.06,2.62,2.62,0,0,1-.49,2.44,3.85,3.85,0,0,1,1.73,2.51,4.92,4.92,0,0,0,.86-1.08.41.41,0,0,0-.15-.52l-.73-.48a.34.34,0,0,1,0-.62c.2-.13.4-.28.62-.4s.33-.24.28-.48a.12.12,0,0,1,0-.08A.8.8,0,0,1,14,13.35Z"/><path class="cls-1" d="M13.1,6.69c.08-.18.15-.37.23-.56s.16-.43.27-.64a.75.75,0,0,1,.88-.43.83.83,0,0,1,.64.82v.71h.38a1.08,1.08,0,0,1,1,1.07,7.63,7.63,0,0,1,0,1.07,1.48,1.48,0,0,1-1.43,1.33c-.57,0-1.14,0-1.71,0l-.1,0a.38.38,0,0,0-.48.06.43.43,0,0,1-.3.09h-.94a.58.58,0,0,1-.6-.59q0-1.32,0-2.64a.59.59,0,0,1,.63-.6c.24,0,.48,0,.73,0a.68.68,0,0,1,.74.38Zm0,.73V8.81c0,.14,0,.35,0,.41a1.39,1.39,0,0,0,.52.18H15a.81.81,0,0,0,.82-.71,6.12,6.12,0,0,0,0-1,.41.41,0,0,0-.45-.39h-.58a.35.35,0,0,1-.38-.38c0-.3,0-.61,0-.91,0-.11,0-.24-.14-.24s-.15.1-.18.17c-.1.24-.2.48-.28.73A1.08,1.08,0,0,1,13.1,7.42ZM11.64,9.49h.79V7h-.79Z"/><path class="cls-1" d="M10.79,5.23a.33.33,0,0,1-.33-.33.34.34,0,0,1,.33-.32.33.33,0,1,1,0,.65Z"/><path class="cls-1" d="M16.1,15.26a.34.34,0,0,1,.33-.34.36.36,0,0,1,.34.34.34.34,0,0,1-.34.33A.33.33,0,0,1,16.1,15.26Z"/><path class="cls-1" d="M14.61,15.26a.34.34,0,0,1,.34-.34.35.35,0,0,1,.33.34.32.32,0,0,1-.34.33A.33.33,0,0,1,14.61,15.26Z"/><path class="cls-1" d="M17.59,15.26a.33.33,0,1,1,.66,0,.32.32,0,0,1-.34.32A.32.32,0,0,1,17.59,15.26Z"/></svg>