<svg id="Layer_1" data-name="Layer 1" xmlns="http://www.w3.org/2000/svg" viewBox="0 0 22 22"><defs><style>.cls-1{fill:#494849;}</style></defs><path class="cls-1" d="M15.12,11.06A3.83,3.83,0,1,0,11.3,7.24,3.82,3.82,0,0,0,15.12,11.06Zm0-6.37a2.55,2.55,0,1,1-2.54,2.55A2.55,2.55,0,0,1,15.12,4.69Z"/><path class="cls-1" d="M6.84,11.7A3.83,3.83,0,1,0,3,7.87,3.83,3.83,0,0,0,6.84,11.7Zm0-6.38A2.55,2.55,0,1,1,4.29,7.87,2.55,2.55,0,0,1,6.84,5.32Z"/><path class="cls-1" d="M8.87,13.73a6.68,6.68,0,0,1,1.08-1,7,7,0,0,0-1.57-.31c-.3,0-.6-.05-.9-.05-5.1,0-6.37,3.83-6.37,5.1A1.12,1.12,0,0,0,2.38,18.7H7.75a2.9,2.9,0,0,1-.27-1.27A5.84,5.84,0,0,1,8.87,13.73Zm-6.49,3.7a3.94,3.94,0,0,1,1-2.2,5.06,5.06,0,0,1,4-1.62A7,7,0,0,0,6.2,17.43Z"/><path class="cls-1" d="M15.12,12.33c-5.09,0-6.37,3.83-6.37,5.1A1.25,1.25,0,0,0,10,18.7H20.22a1.25,1.25,0,0,0,1.28-1.27C21.5,16.16,20.22,12.33,15.12,12.33Zm5.09,5.1H10a3.89,3.89,0,0,1,1-2.19,5.1,5.1,0,0,1,4.12-1.62,5.11,5.11,0,0,1,4.13,1.62,3.89,3.89,0,0,1,1,2.19Z"/></svg>