<svg id="Layer_1" data-name="Layer 1" xmlns="http://www.w3.org/2000/svg" viewBox="0 0 22 22"><defs><style>.cls-1{fill:#494849;}</style></defs><path class="cls-1" d="M8.57,7.56h5.61a.56.56,0,1,0,0-1.12H8.57a.56.56,0,1,0,0,1.12Z"/><path class="cls-1" d="M8.57,9.81h5.61a.56.56,0,0,0,.56-.56.57.57,0,0,0-.56-.57H8.57A.57.57,0,0,0,8,9.25.56.56,0,0,0,8.57,9.81Z"/><path class="cls-1" d="M8.57,12.05h5.61a.56.56,0,1,0,0-1.12H8.57a.56.56,0,1,0,0,1.12Z"/><path class="cls-1" d="M8.57,14.3h2.24a.56.56,0,0,0,0-1.12H8.57a.56.56,0,1,0,0,1.12Z"/><path class="cls-1" d="M17,2H5.76A2.24,2.24,0,0,0,3.52,4.19V5.32H4.64V4.19A1.12,1.12,0,0,1,5.76,3.07H17a1.12,1.12,0,0,1,1.12,1.12V17.67A1.12,1.12,0,0,1,17,18.79H5.76a1.12,1.12,0,0,1-1.12-1.12V16.54H3.52v1.13a2.24,2.24,0,0,0,2.24,2.24H17a2.24,2.24,0,0,0,2.24-2.24V4.19A2.24,2.24,0,0,0,17,2Z"/><path class="cls-1" d="M3,8.68H5.2a.56.56,0,1,0,0-1.12H4.64V7A.56.56,0,0,0,3.52,7v.56H3A.56.56,0,1,0,3,8.68Z"/><path class="cls-1" d="M5.76,14.86a.56.56,0,0,0-.56-.56H4.64v-.56a.56.56,0,1,0-1.12,0v.56H3a.56.56,0,0,0,0,1.12H5.2A.56.56,0,0,0,5.76,14.86Z"/><path class="cls-1" d="M3,12.05H5.2a.56.56,0,0,0,0-1.12H4.64v-.56a.56.56,0,0,0-1.12,0v.56H3a.56.56,0,1,0,0,1.12Z"/></svg>