<svg id="Layer_1" data-name="Layer 1" xmlns="http://www.w3.org/2000/svg" viewBox="0 0 22 22"><defs><style>.cls-1{fill:#4a484a;}</style></defs><path class="cls-1" d="M18.66,5.19A1.24,1.24,0,0,1,19.9,6.42v9.89a1.24,1.24,0,0,1-1.24,1.23H3.83A1.23,1.23,0,0,1,2.6,16.31V6.42A1.23,1.23,0,0,1,3.83,5.19ZM3.83,4A2.48,2.48,0,0,0,1.36,6.42v9.89a2.48,2.48,0,0,0,2.47,2.47H18.66a2.48,2.48,0,0,0,2.47-2.47V6.42A2.48,2.48,0,0,0,18.66,4Z"/><path class="cls-1" d="M3.83,8.28a.62.62,0,0,1,.62-.62H6.92a.62.62,0,0,1,.62.62V9.51a.62.62,0,0,1-.62.62H4.45a.62.62,0,0,1-.62-.62Zm0,3.7a.61.61,0,0,1,.62-.61h6.18a.61.61,0,0,1,.62.61.62.62,0,0,1-.62.62H4.45A.62.62,0,0,1,3.83,12Zm0,2.47a.61.61,0,0,1,.62-.61H5.68a.62.62,0,1,1,0,1.23H4.45A.62.62,0,0,1,3.83,14.45Zm3.71,0a.61.61,0,0,1,.62-.61H9.39a.62.62,0,1,1,0,1.23H8.16A.61.61,0,0,1,7.54,14.45Zm3.71,0a.61.61,0,0,1,.61-.61H13.1a.62.62,0,1,1,0,1.23H11.86A.61.61,0,0,1,11.25,14.45Zm3.7,0a.61.61,0,0,1,.62-.61h1.24a.62.62,0,0,1,0,1.23H15.57A.62.62,0,0,1,15,14.45Z"/></svg>