<svg id="Layer_1" data-name="Layer 1" xmlns="http://www.w3.org/2000/svg" viewBox="0 0 22 22"><defs><style>.cls-1{fill:#494849;}</style></defs><path class="cls-1" d="M19.21,4.35H2.79A1.9,1.9,0,0,0,.9,6.25V17.61a1.9,1.9,0,0,0,1.89,1.9H19.21a1.9,1.9,0,0,0,1.89-1.9V6.25A1.9,1.9,0,0,0,19.21,4.35Zm.63,13.26a.64.64,0,0,1-.63.64H2.79a.64.64,0,0,1-.63-.64V6.25a.63.63,0,0,1,.63-.63H19.21a.63.63,0,0,1,.63.63Z"/><path class="cls-1" d="M5.32,11.3a.63.63,0,1,0,.63.63A.63.63,0,0,0,5.32,11.3Z"/><path class="cls-1" d="M5.32,8.14A.64.64,0,1,0,6,8.77.63.63,0,0,0,5.32,8.14Z"/><path class="cls-1" d="M5.32,14.46a.63.63,0,1,0,.63.63A.63.63,0,0,0,5.32,14.46Z"/><path class="cls-1" d="M16.68,14.46H7.84a.63.63,0,1,0,0,1.26h8.84a.63.63,0,0,0,0-1.26Z"/><path class="cls-1" d="M16.68,8.14H7.84a.64.64,0,0,0,0,1.27h8.84a.64.64,0,0,0,0-1.27Z"/><path class="cls-1" d="M16.68,11.3H7.84a.63.63,0,1,0,0,1.26h8.84a.63.63,0,0,0,0-1.26Z"/></svg>