<svg id="Layer_1" data-name="Layer 1" xmlns="http://www.w3.org/2000/svg" viewBox="0 0 22 22"><defs><style>.cls-1{fill:#494849;}</style></defs><path class="cls-1" d="M19.94,8.35V7.53A1.92,1.92,0,0,0,18,5.62H12.27a2.64,2.64,0,0,1-1.82-1A4,4,0,0,0,7.5,3.06H4A1.92,1.92,0,0,0,2.06,5V8.35a1.9,1.9,0,0,0-1.09,2l.81,6.54A3.2,3.2,0,0,0,5,19.67H17a3.2,3.2,0,0,0,3.17-2.8L21,10.33A1.92,1.92,0,0,0,19.94,8.35ZM3.33,5A.64.64,0,0,1,4,4.34H7.5a2.83,2.83,0,0,1,2,1.08A3.84,3.84,0,0,0,12.27,6.9H18a.64.64,0,0,1,.64.63v.64H3.33ZM18.94,16.71A1.91,1.91,0,0,1,17,18.39H5a1.91,1.91,0,0,1-1.9-1.68l-.82-6.54v-.08a.64.64,0,0,1,.64-.64H19.21a.64.64,0,0,1,.55.72Z"/></svg>