<svg id="Layer_1" data-name="Layer 1" xmlns="http://www.w3.org/2000/svg" viewBox="0 0 22 22"><defs><style>.cls-1{fill:#494849;}</style></defs><path class="cls-1" d="M21.23,10.17H19.74a8.09,8.09,0,0,0-3-4.94,8.79,8.79,0,0,0-12,1.1l0,0a.67.67,0,0,0,.13,1,.73.73,0,0,0,1-.13,7.23,7.23,0,0,1,5.48-2.48,7,7,0,0,1,7,5.46H16a.3.3,0,0,0-.21.08.34.34,0,0,0,0,.48L18.36,14l0,0a.33.33,0,0,0,.47,0l2.62-3.22a.34.34,0,0,0,.07-.22A.33.33,0,0,0,21.23,10.17Z"/><path class="cls-1" d="M16.81,15.87a7.14,7.14,0,0,1-4.06,2.34,7.11,7.11,0,0,1-8.4-5.31H6.59a.35.35,0,0,0,.26-.56L4.23,9.12a.33.33,0,0,0-.47,0l0,0L1.1,12.34a.35.35,0,0,0,0,.48.35.35,0,0,0,.22.08H2.91a8.12,8.12,0,0,0,3,4.94,8.79,8.79,0,0,0,12-1.1l0,0a.67.67,0,0,0-.13-1A.74.74,0,0,0,16.81,15.87Z"/></svg>