<svg id="Layer_1" data-name="Layer 1" xmlns="http://www.w3.org/2000/svg" viewBox="0 0 22 22"><defs><style>.cls-1{fill:#4a484a;}</style></defs><path class="cls-1" d="M17.85,5.68A1.14,1.14,0,0,1,19,6.82V16a1.14,1.14,0,0,1-1.14,1.14H4.15A1.14,1.14,0,0,1,3,16V6.82A1.14,1.14,0,0,1,4.15,5.68ZM4.15,4.54A2.29,2.29,0,0,0,1.86,6.82V16a2.3,2.3,0,0,0,2.29,2.29h13.7A2.3,2.3,0,0,0,20.14,16V6.82a2.29,2.29,0,0,0-2.29-2.28Z"/><path class="cls-1" d="M4.15,8.54A.56.56,0,0,1,4.72,8H7a.56.56,0,0,1,.57.57V9.68a.56.56,0,0,1-.57.57H4.72a.56.56,0,0,1-.57-.57Zm0,3.42a.57.57,0,0,1,.57-.57h5.71a.58.58,0,0,1,0,1.15H4.72A.57.57,0,0,1,4.15,12Zm0,2.29a.56.56,0,0,1,.57-.57H5.86a.56.56,0,0,1,.57.57.57.57,0,0,1-.57.57H4.72A.57.57,0,0,1,4.15,14.25Zm3.42,0a.57.57,0,0,1,.57-.57H9.29a.57.57,0,0,1,.57.57.58.58,0,0,1-.57.57H8.14A.58.58,0,0,1,7.57,14.25Zm3.43,0a.57.57,0,0,1,.57-.57h1.14a.56.56,0,0,1,.57.57.57.57,0,0,1-.57.57H11.57A.58.58,0,0,1,11,14.25Zm3.43,0a.56.56,0,0,1,.57-.57h1.14a.57.57,0,0,1,.57.57.58.58,0,0,1-.57.57H15A.57.57,0,0,1,14.43,14.25Z"/></svg>