<svg id="Layer_1" data-name="Layer 1" xmlns="http://www.w3.org/2000/svg" viewBox="0 0 22 22"><defs><style>.cls-1{fill:#494849;}</style></defs><path class="cls-1" d="M14.48,9.6a5.7,5.7,0,1,0,5.7,5.7A5.7,5.7,0,0,0,14.48,9.6Zm0,10.25A4.56,4.56,0,1,1,19,15.3,4.56,4.56,0,0,1,14.48,19.85Z"/><path class="cls-1" d="M15,15l-.34-.08V13.56a.79.79,0,0,1,.76.61h.75A1.42,1.42,0,0,0,14.68,13v-.5h-.43V13a1.39,1.39,0,0,0-1.43,1.32c0,.64.43,1.05,1.15,1.21l.28.07V17a.84.84,0,0,1-.79-.64H12.7c.05.68.59,1.21,1.55,1.27v.5h.43v-.5c1-.07,1.58-.6,1.58-1.38S15.81,15.2,15,15Zm-.77-.18h0c-.42-.1-.65-.3-.65-.6a.7.7,0,0,1,.65-.66Zm.43,2.2V15.66l.06,0c.51.12.75.31.75.65S15.19,17,14.68,17Z"/><path class="cls-1" d="M19,2.76h-16A1.14,1.14,0,0,0,1.94,3.9V13a1.14,1.14,0,0,0,1.14,1.14H7.73A6.8,6.8,0,0,1,8,13H5.36a2.28,2.28,0,0,0-2.28-2.28V6.18A2.28,2.28,0,0,0,5.36,3.9h11.4A2.28,2.28,0,0,0,19,6.18v4a7.5,7.5,0,0,1,1.14,1.31V3.9A1.14,1.14,0,0,0,19,2.76Z"/><path class="cls-1" d="M13.34,8.55V8.46a2.28,2.28,0,1,0-3.57,1.88A6.83,6.83,0,0,1,13.34,8.55Z"/></svg>