<svg id="Layer_1" data-name="Layer 1" xmlns="http://www.w3.org/2000/svg" viewBox="0 0 22 22"><defs><style>.cls-1{fill:#494849;}</style></defs><path class="cls-1" d="M14.42,8.67a5.7,5.7,0,1,0,5.7,5.7A5.7,5.7,0,0,0,14.42,8.67Zm0,10.26A4.56,4.56,0,1,1,19,14.37,4.56,4.56,0,0,1,14.42,18.93Z"/><path class="cls-1" d="M15,14.09,14.62,14V12.64a.78.78,0,0,1,.76.61h.75A1.44,1.44,0,0,0,14.62,12v-.5h-.43V12a1.39,1.39,0,0,0-1.43,1.32c0,.64.43,1,1.15,1.21l.28.07v1.45a.86.86,0,0,1-.79-.64h-.76c0,.68.59,1.21,1.55,1.27v.5h.43v-.5c1-.07,1.58-.61,1.58-1.38S15.75,14.27,15,14.09Zm-.77-.18h0c-.42-.1-.65-.3-.65-.6a.7.7,0,0,1,.65-.66Zm.43,2.19V14.74l.06,0c.51.11.75.31.75.64S15.13,16.06,14.62,16.1Z"/><path class="cls-1" d="M19,1.84H3A1.14,1.14,0,0,0,1.88,3v9.11A1.14,1.14,0,0,0,3,13.23H7.68A6.35,6.35,0,0,1,8,12.09H5.3A2.28,2.28,0,0,0,3,9.81V5.26A2.29,2.29,0,0,0,5.3,3H16.7A2.29,2.29,0,0,0,19,5.26v4a6.79,6.79,0,0,1,1.14,1.31V3A1.14,1.14,0,0,0,19,1.84Z"/><path class="cls-1" d="M13.28,7.63v-.1A2.28,2.28,0,1,0,9.71,9.42,6.83,6.83,0,0,1,13.28,7.63Z"/></svg>