<svg id="Layer_1" data-name="Layer 1" xmlns="http://www.w3.org/2000/svg" viewBox="0 0 22 22"><defs><style>.cls-1{fill:#494849;}</style></defs><path class="cls-1" d="M15.37,2H6.63A2.19,2.19,0,0,0,4.45,4.16v13.1a2.19,2.19,0,0,0,2.18,2.19h8.74a2.19,2.19,0,0,0,2.18-2.19V4.16A2.19,2.19,0,0,0,15.37,2Zm1.09,15.28a1.09,1.09,0,0,1-1.09,1.1H6.63a1.09,1.09,0,0,1-1.09-1.1V4.16A1.09,1.09,0,0,1,6.63,3.07h8.74a1.09,1.09,0,0,1,1.09,1.09Z"/><path class="cls-1" d="M14.07,11.39a6.47,6.47,0,0,0-1.46-.05A13,13,0,0,1,11.54,9.5a10,10,0,0,0,.57-2,3.21,3.21,0,0,0,.05-.67A1.34,1.34,0,0,0,12,6.28a.8.8,0,0,0-.53-.4,1.13,1.13,0,0,0-.65.09,1.17,1.17,0,0,0-.71.9,2.93,2.93,0,0,0,0,1.24,8,8,0,0,0,.47,1.41A23.54,23.54,0,0,1,9.5,12a8.62,8.62,0,0,0-1.62.7,3.07,3.07,0,0,0-1,.86,1.19,1.19,0,0,0-.09,1.21.94.94,0,0,0,.48.46.86.86,0,0,0,.63,0,2.84,2.84,0,0,0,1-.86,13.11,13.11,0,0,0,1.11-1.64,12.41,12.41,0,0,1,2.18-.45,6.1,6.1,0,0,0,1,1,1.93,1.93,0,0,0,1,.46,1,1,0,0,0,.56-.16,1.13,1.13,0,0,0,.39-.45,1.34,1.34,0,0,0,.15-.61,1,1,0,0,0-.22-.57A1.77,1.77,0,0,0,14.07,11.39ZM8.31,13.76a2.41,2.41,0,0,1-.7.63h0l0-.05a.34.34,0,0,1,0-.39,2.15,2.15,0,0,1,.71-.6,4.66,4.66,0,0,1,.5-.26C8.64,13.33,8.48,13.55,8.31,13.76ZM10.94,7a.37.37,0,0,1,.21-.31l.16-.05a.56.56,0,0,1,0,.22,2,2,0,0,1,0,.51,7.32,7.32,0,0,1-.21.9,3.06,3.06,0,0,1-.1-.38A2.18,2.18,0,0,1,10.94,7Zm-.35,4.61h0c.19-.38.37-.76.54-1.15.18.32.36.63.56.94A10.16,10.16,0,0,0,10.59,11.65Zm3.87,1.06a.38.38,0,0,1-.11.14l-.07,0a1.23,1.23,0,0,1-.55-.28,3.87,3.87,0,0,1-.47-.45,3.79,3.79,0,0,1,.67.06,1,1,0,0,1,.56.23.09.09,0,0,1,0,.07A.51.51,0,0,1,14.46,12.71Z"/></svg>