<svg id="Layer_1" data-name="Layer 1" xmlns="http://www.w3.org/2000/svg" viewBox="0 0 22 22"><defs><style>.cls-1{fill:#494849;}</style></defs><path class="cls-1" d="M14.29,9.7A5.7,5.7,0,1,0,20,15.4,5.71,5.71,0,0,0,14.29,9.7Zm0,10.26a4.56,4.56,0,1,1,4.56-4.56A4.56,4.56,0,0,1,14.29,20Z"/><path class="cls-1" d="M10.22,4.87a2.43,2.43,0,1,0,2.43,2.42A2.43,2.43,0,0,0,10.22,4.87Zm0,4.36a1.94,1.94,0,1,1,1.94-1.94A1.93,1.93,0,0,1,10.22,9.23Z"/><path class="cls-1" d="M10.46,7.2l-.15,0V6.57a.33.33,0,0,1,.33.26H11a.63.63,0,0,0-.66-.53V6.08h-.19V6.3a.61.61,0,0,0-.62.58c0,.28.19.46.5.53l.12,0v.63a.37.37,0,0,1-.34-.28H9.45a.64.64,0,0,0,.67.56v.21h.19V8.34c.44,0,.69-.26.69-.6S10.81,7.28,10.46,7.2Zm-.34-.08h0c-.18,0-.28-.13-.28-.26a.3.3,0,0,1,.28-.29Zm.19,1v-.6h0c.22,0,.32.13.32.28S10.54,8.06,10.31,8.08Z"/><path class="cls-1" d="M18.85,2.87H2.9A1.14,1.14,0,0,0,1.76,4v9.11A1.14,1.14,0,0,0,2.9,14.26H7.55a7.32,7.32,0,0,1,.29-1.14H5.18A2.29,2.29,0,0,0,2.9,10.84V6.28A2.28,2.28,0,0,0,5.18,4H16.57a2.28,2.28,0,0,0,2.28,2.27v4A6.79,6.79,0,0,1,20,11.62V4A1.14,1.14,0,0,0,18.85,2.87Z"/><path class="cls-1" d="M17,13.34l-3.32,3.25-1.44-1.41a.63.63,0,0,0-.88,0,.6.6,0,0,0,0,.87l1.88,1.85a.63.63,0,0,0,.88,0h0l3.76-3.69a.62.62,0,0,0,0-.87A.64.64,0,0,0,17,13.34Z"/></svg>