<svg id="Layer_1" data-name="Layer 1" xmlns="http://www.w3.org/2000/svg" viewBox="0 0 22 22"><defs><style>.cls-1{fill:#494849;}.cls-2{font-size:3.04px;fill:#4a484a;font-family:MyriadPro-Regular, Myriad Pro;}</style></defs><path class="cls-1" d="M6.87,8.42a2.43,2.43,0,1,0,2.42,2.42A2.42,2.42,0,0,0,6.87,8.42Zm0,4.36a1.94,1.94,0,1,1,1.94-1.94A1.94,1.94,0,0,1,6.87,12.78Z"/><path class="cls-1" d="M7.11,10.75l-.15,0v-.59a.34.34,0,0,1,.33.26h.33A.63.63,0,0,0,7,9.85V9.63H6.77v.22a.61.61,0,0,0-.62.58c0,.28.19.46.5.53l.12,0v.63a.37.37,0,0,1-.34-.28H6.1c0,.3.25.53.67.56v.21H7v-.22c.43,0,.69-.26.69-.6S7.45,10.83,7.11,10.75Zm-.34-.08h0c-.18,0-.28-.13-.28-.26a.3.3,0,0,1,.28-.29Zm.19,1V11H7c.22.05.32.13.32.28S7.18,11.61,7,11.63Z"/><path class="cls-1" d="M13.67,8.58A2.42,2.42,0,1,0,16.09,11,2.42,2.42,0,0,0,13.67,8.58Zm0,4.36A1.94,1.94,0,1,1,15.61,11,1.94,1.94,0,0,1,13.67,12.94Z"/><path class="cls-1" d="M19.81,4.55H2.19A1.25,1.25,0,0,0,.93,5.81V15.88a1.26,1.26,0,0,0,1.26,1.26H19.81a1.26,1.26,0,0,0,1.26-1.26V5.81A1.25,1.25,0,0,0,19.81,4.55Zm0,8.81a2.52,2.52,0,0,0-2.52,2.52H4.71a2.52,2.52,0,0,0-2.52-2.52v-5A2.52,2.52,0,0,0,4.71,5.81H17.29a2.52,2.52,0,0,0,2.52,2.52Z"/><text class="cls-2" transform="translate(12.85 11.96)">R</text></svg>