<svg id="Layer_1" data-name="Layer 1" xmlns="http://www.w3.org/2000/svg" viewBox="0 0 22 22"><defs><style>.cls-1{fill:#494849;fill-rule:evenodd;}</style></defs><path class="cls-1" d="M6.86,14.92l-1,2.94a.31.31,0,0,0,.19.39.34.34,0,0,0,.2,0l2.94-1a.61.61,0,0,0,.24-.15l8.3-8.3h0L15.31,6.38,7,14.68A.61.61,0,0,0,6.86,14.92Z"/><path class="cls-1" d="M19.88,5.83h0L18.3,4.25a.6.6,0,0,0-.86,0L16.17,5.52,18.61,8l1.27-1.27A.6.6,0,0,0,19.88,5.83Z"/><path class="cls-1" d="M18.64,10a.61.61,0,0,0-.62.61v7.42a.62.62,0,0,1-.62.62H3.8a.62.62,0,0,1-.62-.62V4.47a.62.62,0,0,1,.62-.62h8a.62.62,0,0,0,0-1.23h-8A1.85,1.85,0,0,0,1.94,4.47v13.6A1.86,1.86,0,0,0,3.8,19.93H17.4a1.86,1.86,0,0,0,1.86-1.86V10.65A.61.61,0,0,0,18.64,10Z"/></svg>