<svg id="Layer_1" data-name="Layer 1" xmlns="http://www.w3.org/2000/svg" viewBox="0 0 22 22"><defs><style>.cls-1{fill:#494849;}</style></defs><path class="cls-1" d="M18.65,2.12H4.2A2.33,2.33,0,0,0,1.79,4.36V18.69a.58.58,0,0,0,.61.56.63.63,0,0,0,.42-.16l3.44-3.2a1.24,1.24,0,0,1,.85-.33H18.65a2.33,2.33,0,0,0,2.41-2.24v-9A2.33,2.33,0,0,0,18.65,2.12Zm1.21,11.2a1.17,1.17,0,0,1-1.21,1.12H7.11a2.49,2.49,0,0,0-1.7.66L3,17.34v-13A1.16,1.16,0,0,1,4.2,3.24H18.65a1.17,1.17,0,0,1,1.21,1.12Z"/><path class="cls-1" d="M16.85,8.28H6A.56.56,0,1,0,6,9.4H16.85a.56.56,0,1,0,0-1.12Z"/><path class="cls-1" d="M12,11.08H6A.56.56,0,1,0,6,12.2h6a.56.56,0,1,0,0-1.12Z"/><path class="cls-1" d="M16.85,5.48H6A.56.56,0,1,0,6,6.6H16.85a.56.56,0,1,0,0-1.12Z"/></svg>