<svg id="Layer_1" data-name="Layer 1" xmlns="http://www.w3.org/2000/svg" viewBox="0 0 22 22"><defs><style>.cls-1{fill:#494849;}</style></defs><path class="cls-1" d="M19.12,1.12H3.73A2.57,2.57,0,0,0,1.16,3.68V20.09a.65.65,0,0,0,.65.65.64.64,0,0,0,.45-.19l3.66-3.66a1.3,1.3,0,0,1,.91-.38H19.12A2.57,2.57,0,0,0,21.69,14V3.68A2.57,2.57,0,0,0,19.12,1.12ZM20.41,14a1.29,1.29,0,0,1-1.29,1.28H6.83A2.58,2.58,0,0,0,5,16L2.45,18.55V3.68A1.28,1.28,0,0,1,3.73,2.4H19.12a1.29,1.29,0,0,1,1.29,1.28Z"/><path class="cls-1" d="M12.07,11.38H5.65A.64.64,0,0,0,5,12a.64.64,0,0,0,.64.64h6.42a.64.64,0,0,0,.64-.64A.64.64,0,0,0,12.07,11.38Z"/><path class="cls-1" d="M17.2,5H5.65A.64.64,0,0,0,5,5.61a.64.64,0,0,0,.64.64H17.2a.64.64,0,0,0,.64-.64A.64.64,0,0,0,17.2,5Z"/><path class="cls-1" d="M17.2,8.17H5.65a.65.65,0,0,0,0,1.29H17.2a.65.65,0,0,0,0-1.29Z"/></svg>