<svg id="Layer_1" data-name="Layer 1" xmlns="http://www.w3.org/2000/svg" viewBox="0 0 22 22"><defs><style>.cls-1{fill:#494849;}</style></defs><path class="cls-1" d="M8.64,8.06h5.9a.59.59,0,0,0,.59-.59.6.6,0,0,0-.59-.59H8.64a.6.6,0,0,0-.59.59A.59.59,0,0,0,8.64,8.06Z"/><path class="cls-1" d="M8.64,10.42h5.9a.6.6,0,0,0,.59-.59.59.59,0,0,0-.59-.59H8.64a.59.59,0,0,0-.59.59A.6.6,0,0,0,8.64,10.42Z"/><path class="cls-1" d="M8.64,12.78h5.9a.6.6,0,0,0,.59-.59.59.59,0,0,0-.59-.59H8.64a.59.59,0,0,0-.59.59A.6.6,0,0,0,8.64,12.78Z"/><path class="cls-1" d="M8.64,15.13H11A.59.59,0,1,0,11,14H8.64a.59.59,0,1,0,0,1.17Z"/><path class="cls-1" d="M17.48,2.17H5.69A2.35,2.35,0,0,0,3.34,4.52V5.7H4.52V4.52A1.17,1.17,0,0,1,5.69,3.34H17.48a1.18,1.18,0,0,1,1.18,1.18V18.67a1.18,1.18,0,0,1-1.18,1.18H5.69a1.17,1.17,0,0,1-1.17-1.18V17.49H3.34v1.18A2.36,2.36,0,0,0,5.69,21H17.48a2.36,2.36,0,0,0,2.36-2.36V4.52A2.35,2.35,0,0,0,17.48,2.17Z"/><path class="cls-1" d="M2.75,9.24H5.1a.59.59,0,0,0,0-1.18H4.52V7.47a.6.6,0,0,0-.59-.59.59.59,0,0,0-.59.59v.59H2.75a.59.59,0,0,0,0,1.18Z"/><path class="cls-1" d="M2.75,12.78H5.1a.59.59,0,0,0,.59-.59.58.58,0,0,0-.59-.59H4.52V11a.59.59,0,0,0-.59-.59.58.58,0,0,0-.59.59v.59H2.75a.58.58,0,0,0-.59.59A.59.59,0,0,0,2.75,12.78Z"/><path class="cls-1" d="M5.69,15.72a.59.59,0,0,0-.59-.59H4.52v-.59A.59.59,0,0,0,3.93,14a.58.58,0,0,0-.59.58v.59H2.75a.59.59,0,0,0-.59.59.58.58,0,0,0,.59.59H5.1A.58.58,0,0,0,5.69,15.72Z"/></svg>