<svg id="Layer_1" data-name="Layer 1" xmlns="http://www.w3.org/2000/svg" viewBox="0 0 22 22"><defs><style>.cls-1{fill:#1c60ab;}</style></defs><path class="cls-1" d="M20.88,10H19.39a8.12,8.12,0,0,0-3-4.94,8.79,8.79,0,0,0-12,1.1l0,0a.67.67,0,0,0,.13,1,.73.73,0,0,0,1-.12A7.2,7.2,0,0,1,11,4.51,7.05,7.05,0,0,1,18,10h-2.3a.32.32,0,0,0-.21.08.35.35,0,0,0,0,.48L18,13.74l0,0a.32.32,0,0,0,.47,0l2.62-3.22a.35.35,0,0,0,.08-.22A.34.34,0,0,0,20.88,10Z"/><path class="cls-1" d="M16.46,15.67A7.22,7.22,0,0,1,12.4,18,7.11,7.11,0,0,1,4,12.69H6.24a.34.34,0,0,0,.34-.34.35.35,0,0,0-.08-.22L3.88,8.91a.33.33,0,0,0-.47,0l0,0L.75,12.13a.36.36,0,0,0,.05.48.32.32,0,0,0,.21.08H2.56a8.09,8.09,0,0,0,3,4.94,8.8,8.8,0,0,0,12-1.09l0,0a.67.67,0,0,0-.13-1A.73.73,0,0,0,16.46,15.67Z"/></svg>