<svg id="Layer_1" data-name="Layer 1" xmlns="http://www.w3.org/2000/svg" viewBox="0 0 22 22"><defs><style>.cls-1{fill:#494849;}</style></defs><path class="cls-1" d="M21.28,9.84l-2-2a.63.63,0,0,0-.47-.2H10.15a5.31,5.31,0,1,0,0,5.31h.71a.68.68,0,0,0,.47-.19l.86-.86.85.86h0a.66.66,0,0,0,.94,0l.86-.86.86.86h0a.66.66,0,0,0,.94,0l.85-.86.86.86h0a.66.66,0,0,0,.94,0l2-2h0A.66.66,0,0,0,21.28,9.84Zm-2.46,1.52L18,10.5h0a.66.66,0,0,0-.94,0l-.85.86-.86-.86h0a.66.66,0,0,0-.94,0l-.86.86-.85-.86h0a.66.66,0,0,0-.94,0l-1.13,1.13H9.75a.66.66,0,0,0-.6.38,4,4,0,1,1,0-3.41.66.66,0,0,0,.6.38h8.8l1.32,1.33Z"/><path class="cls-1" d="M4.23,9a1.33,1.33,0,1,0,1.32,1.33A1.32,1.32,0,0,0,4.23,9Z"/></svg>