<svg id="Layer_1" data-name="Layer 1" xmlns="http://www.w3.org/2000/svg" viewBox="0 0 22 22"><defs><style>.cls-1{fill:#494849;}</style></defs><path class="cls-1" d="M13.13,11.73V10.39A2.56,2.56,0,0,0,10.5,7.9a2.55,2.55,0,0,0-2.62,2.49v1.34a1.65,1.65,0,0,0-1.32,1.52v3a1.82,1.82,0,0,0,2,1.61h3.94a1.82,1.82,0,0,0,2-1.61v-3A1.64,1.64,0,0,0,13.13,11.73ZM9.19,10.39a1.32,1.32,0,0,1,2.63,0v1.24H9.19Zm3.94,5.85a.28.28,0,0,1-.14.21.87.87,0,0,1-.52.16H8.53A.89.89,0,0,1,8,16.45a.26.26,0,0,1-.13-.21v-3A.29.29,0,0,1,8,13a.88.88,0,0,1,.52-.15h3.94A.86.86,0,0,1,13,13a.31.31,0,0,1,.14.22Z"/><path class="cls-1" d="M12.47,1.68H5.25A2.56,2.56,0,0,0,2.62,4.17V19.1a2.57,2.57,0,0,0,2.63,2.49H15.76a2.56,2.56,0,0,0,2.62-2.49V7.28Zm4.6,17.42a1.28,1.28,0,0,1-1.31,1.24H5.25A1.28,1.28,0,0,1,3.93,19.1V4.17A1.29,1.29,0,0,1,5.25,2.92h7.22V5.41a1.92,1.92,0,0,0,2,1.87h2.63Z"/></svg>