<svg id="Layer_1" data-name="Layer 1" xmlns="http://www.w3.org/2000/svg" viewBox="0 0 22 22"><defs><style>.cls-1{fill:#494849;}</style></defs><path class="cls-1" d="M11,12A4.78,4.78,0,1,0,6.22,7.22,4.79,4.79,0,0,0,11,12Zm0-8.56A3.78,3.78,0,1,1,7.22,7.22,3.79,3.79,0,0,1,11,3.44Z"/><path class="cls-1" d="M11,12.42c-7.43,0-9.06,4.48-9.06,6.21a1.87,1.87,0,0,0,1.93,1.92H18.13a1.87,1.87,0,0,0,1.93-1.92C20.06,16.9,18.43,12.42,11,12.42Zm7.13,7.13H3.87a.87.87,0,0,1-.93-.92c0-1.45,1.45-5.21,8.06-5.21s8.06,3.76,8.06,5.21A.87.87,0,0,1,18.13,19.55Z"/></svg>