<svg id="Layer_1" data-name="Layer 1" xmlns="http://www.w3.org/2000/svg" viewBox="0 0 22 22"><defs><style>.cls-1{fill:#4a484a;}</style></defs><path class="cls-1" d="M11,7.53a3.78,3.78,0,1,0,3.78,3.78A3.78,3.78,0,0,0,11,7.53Zm0,6.39a2.61,2.61,0,1,1,2.61-2.61A2.61,2.61,0,0,1,11,13.92Z"/><path class="cls-1" d="M18.75,9.22l-.37-.11a1,1,0,0,1-.69-1.26,1.19,1.19,0,0,1,.08-.2L18,7.31a2.18,2.18,0,0,0-3-3l-.34.19a1,1,0,0,1-1.38-.41,1.19,1.19,0,0,1-.08-.2l-.11-.37a2.18,2.18,0,0,0-4.18,0l-.11.37a1,1,0,0,1-1.26.69l-.2-.08L7,4.35a2.18,2.18,0,0,0-3,3l.19.34A1,1,0,0,1,3.82,9l-.2.08-.37.11a2.18,2.18,0,0,0,0,4.18l.37.11a1,1,0,0,1,.69,1.26,1.19,1.19,0,0,1-.08.2L4,15.31a2.18,2.18,0,0,0,3,3l.34-.18a1,1,0,0,1,1.38.41,1.54,1.54,0,0,1,.08.19l.11.38a2.18,2.18,0,0,0,4.18,0l.11-.38A1,1,0,0,1,14.46,18a.7.7,0,0,1,.2.08l.34.19a2.18,2.18,0,0,0,3-3L17.77,15a1,1,0,0,1,.41-1.38l.2-.08.37-.11A2.18,2.18,0,0,0,18.75,9.22Zm-.33,3.06-.37.11a2.18,2.18,0,0,0-1.48,2.71,2.3,2.3,0,0,0,.18.43l.18.33a1,1,0,0,1-1.37,1.38l-.34-.18a2.18,2.18,0,0,0-3,.87,2.77,2.77,0,0,0-.18.43l-.11.37a1,1,0,0,1-1.94,0l-.11-.38a2.19,2.19,0,0,0-2.71-1.47,1.78,1.78,0,0,0-.43.18l-.34.18a1,1,0,0,1-1.37-1.38l.18-.33a2.18,2.18,0,0,0-.87-3A2.05,2.05,0,0,0,4,12.39l-.37-.11a1,1,0,0,1,0-1.95L4,10.22a2.17,2.17,0,0,0,1.48-2.7,3.25,3.25,0,0,0-.18-.43l-.18-.34A1,1,0,0,1,6.44,5.38l.34.18a2.18,2.18,0,0,0,3-.87,3.25,3.25,0,0,0,.18-.43L10,3.89a1,1,0,0,1,1.94,0l.11.37a2.18,2.18,0,0,0,2.71,1.48,3.25,3.25,0,0,0,.43-.18l.34-.19a1,1,0,0,1,1.37,1.38l-.18.34a2.18,2.18,0,0,0,.87,3,3.25,3.25,0,0,0,.43.18l.37.11A1,1,0,0,1,18.42,12.28Z"/></svg>