<svg id="Layer_1" data-name="Layer 1" xmlns="http://www.w3.org/2000/svg" viewBox="0 0 22 22"><defs><style>.cls-1{fill:#fff;}.cls-2{fill:#1b1b1b;}</style></defs><path class="cls-1" d="M10.09,19.81H1.46V2.19H19.07V19.81h-.82a3.36,3.36,0,0,0,.11-.62c0-2,0-4.08,0-6.12A4.08,4.08,0,0,0,14.23,9a13.52,13.52,0,0,0-2.51.55,2.88,2.88,0,0,0-2.14-1.6,3,3,0,0,0-2.68.91,2.47,2.47,0,0,0-4.63,1.47V13.7c0,.86,0,.86.88.86h3c0,.53,0,1,0,1.42s.13.73.65.68c.31,0,.62,0,.94,0H10c0,.45,0,.82,0,1.19C10,18.5,10.05,19.15,10.09,19.81Zm4.46-11.9a2.8,2.8,0,1,0-2.83-2.79A2.79,2.79,0,0,0,14.55,7.91ZM9.1,2.66a2.28,2.28,0,1,0,2.27,2.25A2.26,2.26,0,0,0,9.1,2.66ZM6.47,5.1A1.75,1.75,0,1,0,4.7,6.86,1.75,1.75,0,0,0,6.47,5.1Z"/><path class="cls-2" d="M10.09,19.81c0-.66-.09-1.31-.11-2,0-.37,0-.74,0-1.19H7.71c-.32,0-.63,0-.94,0-.52.05-.69-.19-.65-.68s0-.89,0-1.42h-3c-.88,0-.88,0-.88-.86V10.32A2.47,2.47,0,0,1,6.9,8.85a3,3,0,0,1,2.68-.91,2.88,2.88,0,0,1,2.14,1.6A13.52,13.52,0,0,1,14.23,9a4.08,4.08,0,0,1,4.13,4.08c0,2,0,4.08,0,6.12a3.36,3.36,0,0,1-.11.62Zm.58-.74h7c0-2.06.05-4.08,0-6.1a3.24,3.24,0,0,0-2-3,3.38,3.38,0,0,0-3.63.36c-.47.35-.6.31-.83-.26a2.27,2.27,0,0,0-4-.54,2.53,2.53,0,0,1-.52.39,3.23,3.23,0,0,1-.35-.5A1.81,1.81,0,0,0,4.63,8.26,1.68,1.68,0,0,0,3,9.76c-.08,1.35,0,2.7,0,4.1,1.07,0,2.09,0,3.12,0,.52,0,.75.14.71.69s0,.92,0,1.35A.69.69,0,0,0,7,16c1,0,2,0,3,0,.47,0,.67.14.65.63C10.65,17.4,10.67,18.21,10.67,19.07Z"/><path class="cls-2" d="M14.55,7.91a2.8,2.8,0,1,1,2.77-2.84A2.79,2.79,0,0,1,14.55,7.91Zm2.07-2.77a2.1,2.1,0,1,0-4.2-.06,2.1,2.1,0,1,0,4.2.06Z"/><path class="cls-2" d="M9.1,2.66A2.28,2.28,0,1,1,6.82,4.9,2.26,2.26,0,0,1,9.1,2.66Zm1.57,2.27a1.57,1.57,0,0,0-3.14,0A1.59,1.59,0,0,0,9.11,6.5,1.61,1.61,0,0,0,10.67,4.93Z"/><path class="cls-2" d="M6.47,5.1A1.75,1.75,0,1,1,4.68,3.36,1.75,1.75,0,0,1,6.47,5.1Zm-.7,0a1.08,1.08,0,0,0-1-1.05,1.07,1.07,0,0,0-1,1.05,1.07,1.07,0,0,0,1,1A1.07,1.07,0,0,0,5.77,5.11Z"/></svg>