<svg id="Layer_1" data-name="Layer 1" xmlns="http://www.w3.org/2000/svg" viewBox="0 0 22 22"><defs><style>.cls-1{fill:#fff;}.cls-2{fill:#262626;}</style></defs><path class="cls-1" d="M2.43,20.68H1.24V2.29H19.63V20.68H18.41a.47.47,0,0,0,.25-.49A5.35,5.35,0,0,0,18.13,18a5,5,0,0,0-2.9-2.65l-1.56-.52a.35.35,0,0,1-.18-.16c-.17-.32-.32-.64-.49-1a.18.18,0,0,1,0-.26,3.79,3.79,0,0,0,.89-1.69c.06-.24.1-.48.15-.73h.59a1.06,1.06,0,0,0,1.12-1.11c0-.48,0-1,0-1.45a14.35,14.35,0,0,0-.07-1.61,5,5,0,0,0-1.91-3.32,5.14,5.14,0,0,0-5.3-.85A5.11,5.11,0,0,0,5.09,7.1,27.25,27.25,0,0,0,5,10a1,1,0,0,0,.59.95.22.22,0,0,1,.13.22,2.69,2.69,0,0,0,.1.7,1,1,0,0,0,1.08.63.3.3,0,0,1,.3.18,8,8,0,0,0,.57.82.18.18,0,0,1,0,.23c-.16.32-.31.65-.48,1a.4.4,0,0,1-.22.18c-.65.24-1.33.4-1.95.7a5.2,5.2,0,0,0-3,4.64A.48.48,0,0,0,2.43,20.68Z"/><path class="cls-2" d="M3,19.26a.42.42,0,0,1-.23-.46A4.8,4.8,0,0,1,5.6,14.51a18.28,18.28,0,0,1,1.8-.64.39.39,0,0,0,.19-.17c.16-.29.3-.59.45-.88.05-.09,0-.14,0-.22a7.71,7.71,0,0,1-.52-.75.29.29,0,0,0-.28-.17.94.94,0,0,1-1-.58,2.32,2.32,0,0,1-.09-.65.2.2,0,0,0-.12-.2.94.94,0,0,1-.54-.88,23.22,23.22,0,0,1,0-2.64A4.71,4.71,0,0,1,8.66,2.66a4.72,4.72,0,0,1,4.89.79,4.57,4.57,0,0,1,1.76,3.06A12.22,12.22,0,0,1,15.38,8c0,.45,0,.9,0,1.34a1,1,0,0,1-1,1H13.8c-.05.23-.08.46-.13.67a3.53,3.53,0,0,1-.83,1.56.18.18,0,0,0,0,.24c.16.3.3.6.45.89a.44.44,0,0,0,.18.15c.47.16,1,.31,1.43.48a4.62,4.62,0,0,1,2.67,2.44,4.74,4.74,0,0,1,.5,2,.42.42,0,0,1-.23.45ZM13.38,8c-.34-.06-.66-.1-1-.17A5.84,5.84,0,0,1,9.75,6.4a.32.32,0,0,0-.27-.09,2.38,2.38,0,0,0-1.05.41A4.1,4.1,0,0,0,7.5,7.78s0,.1,0,.15c0,.43,0,.86.11,1.29s.17,1.12.25,1.68c0,.11.06.13.16.13h.7a.17.17,0,0,0,.18-.12,1,1,0,0,1,.88-.55h.68a1,1,0,0,1,0,2H9.82a1,1,0,0,1-1-.58.15.15,0,0,0-.11-.08H8.16a2.56,2.56,0,0,0,1.19,1.09A2.64,2.64,0,0,0,13,10.93a11.55,11.55,0,0,0,.22-1.31C13.29,9.07,13.33,8.52,13.38,8ZM7.57,14.51c-.59.21-1.17.37-1.71.61a4,4,0,0,0-2.22,2.67c-.08.26-.11.53-.17.8H9.84A15.87,15.87,0,0,1,7.57,14.51Zm9.78,4.09a3.48,3.48,0,0,0-.05-.36,4,4,0,0,0-2.07-3,17.16,17.16,0,0,0-1.93-.75l-.05.09A13.6,13.6,0,0,1,11.42,18c-.14.2-.26.42-.39.64Zm-4-11.33A2.69,2.69,0,0,0,11.7,4.5,3.86,3.86,0,0,0,10,4.32,2.63,2.63,0,0,0,7.57,6.21a3.13,3.13,0,0,0-.1.44,3.24,3.24,0,0,1,1.94-1,.72.72,0,0,1,.67.15A5.33,5.33,0,0,0,13.38,7.27ZM14.69,7a4.2,4.2,0,0,0-2.31-3.48,4.14,4.14,0,0,0-4.56.4A4.14,4.14,0,0,0,6.14,6.94h.63c0-.15,0-.29.05-.43A3.29,3.29,0,0,1,8.93,3.87a4.14,4.14,0,0,1,2.23-.18,3.17,3.17,0,0,1,2.66,2.1A8.2,8.2,0,0,1,14.12,7Zm-4.31,8.27-1.1,1.17s0,.12,0,.16c.2.31.41.61.6.91l.54.83,1.2-1.83Zm1.62.62c.23-.56.46-1.11.68-1.66a.17.17,0,0,0,0-.12l-.41-.83-1.4,1.48ZM8.51,13.37c-.11.22-.22.43-.32.65a.3.3,0,0,0,0,.23c.15.39.32.78.48,1.17.06.14.14.27.21.42l1-1.09ZM6.12,7.62c0,.59,0,1.16,0,1.73a.31.31,0,0,0,.28.34,4.86,4.86,0,0,0,.54,0L6.77,7.62Zm8,0L13.9,9.7h.42c.27,0,.4-.13.4-.41V7.62Zm-4,4.08c.15,0,.29,0,.42,0a.3.3,0,0,0,.25-.32.29.29,0,0,0-.25-.3,5.47,5.47,0,0,0-.81,0,.29.29,0,0,0-.25.3.32.32,0,0,0,.25.31A2.72,2.72,0,0,0,10.07,11.7Zm.87,2H9.82l.57.58ZM7.16,11,7,10.37H6.8C6.73,10.8,6.82,11,7.16,11Z"/><path class="cls-1" d="M10.94,13.65l-.55.58-.57-.58Z"/><path class="cls-1" d="M7.16,11c-.34,0-.43-.22-.36-.65H7Z"/><path class="cls-2" d="M16.4,17.4a.33.33,0,0,1-.21.31.3.3,0,0,1-.35-.06.71.71,0,0,1-.1-.14,2.89,2.89,0,0,0-.69-.83c-.24-.21-.2-.52.08-.6a.39.39,0,0,1,.3.06,3.25,3.25,0,0,1,.93,1.12A.74.74,0,0,1,16.4,17.4Z"/><path class="cls-2" d="M14.06,15.43a.33.33,0,0,1,0,.66.34.34,0,0,1-.33-.34A.32.32,0,0,1,14.06,15.43Z"/></svg>