<svg id="Layer_1" data-name="Layer 1" xmlns="http://www.w3.org/2000/svg" viewBox="0 0 22 22"><defs><style>.cls-1{fill:#494849;}.cls-2{fill:#494949;}</style></defs><path class="cls-1" d="M14.84,2.94H14.3a2.91,2.91,0,0,0-1.07-1.79,3.17,3.17,0,0,0-4.34.4h0a.23.23,0,0,0,0,.34.25.25,0,0,0,.36,0,2.61,2.61,0,0,1,2-.9,2.54,2.54,0,0,1,2.52,2H13l-.07,0a.14.14,0,0,0,0,.18l1,1.16v0a.12.12,0,0,0,.17,0l.95-1.16a.24.24,0,0,0,0-.08A.12.12,0,0,0,14.84,2.94Z"/><path class="cls-1" d="M13.25,5a2.6,2.6,0,0,1-1.47.84,2.57,2.57,0,0,1-3-1.92h.81a.12.12,0,0,0,.12-.12.11.11,0,0,0,0-.08l-1-1.16a.12.12,0,0,0-.17,0v0L7.57,3.72a.12.12,0,0,0,0,.17.11.11,0,0,0,.08,0h.55A3,3,0,0,0,9.3,5.71a3.17,3.17,0,0,0,4.34-.4h0a.24.24,0,0,0,0-.35A.26.26,0,0,0,13.25,5Z"/><g id="Group_19093" data-name="Group 19093"><path id="Path_41366" data-name="Path 41366" class="cls-2" d="M8.62,7.2h6a.3.3,0,0,1,.18.32v3.06h3.29c.23,0,.31.07.31.29v8c0,.21-.08.29-.29.29h-.39V20.4c0,.23-.07.31-.29.31H5.83c-.23,0-.3-.08-.3-.3V19.13H5.15a.28.28,0,0,1-.3-.17V10.73a.34.34,0,0,1,.32-.16H8.45V7.52A.3.3,0,0,1,8.62,7.2ZM8.91,16a.91.91,0,0,1,.89,1.49l.42.37.62-.6c-.31-.43-.35-.53-.36-.82a1.15,1.15,0,0,1,.37-.85,1.13,1.13,0,0,1,1.45-.05,1.09,1.09,0,0,1,.4.67,1.12,1.12,0,0,1-.34,1.05l.63.6.42-.37a.89.89,0,0,1-.1-1.07.9.9,0,0,1,1-.42V7.66H8.91Zm9,2.68V11H14.76v5.17a.23.23,0,0,0,.06.16.88.88,0,0,1,.1.83,1.92,1.92,0,0,1-.18.31,1.42,1.42,0,0,1,.66.87l.27-.21a.9.9,0,0,1,1.21-1.32.88.88,0,0,1,.33.53.87.87,0,0,1-.2.76l.46.5a.09.09,0,0,0,.08,0ZM5.31,11v7.64h.07a.44.44,0,0,0,.49-.2,1.72,1.72,0,0,1,.34-.32.89.89,0,0,1,1.21-1.31.83.83,0,0,1,.33.52.92.92,0,0,1-.21.81l.27.2a1.46,1.46,0,0,1,.66-.88l-.07-.09a.87.87,0,0,1,0-1,.48.48,0,0,0,.07-.24c0-1.65,0-3.3,0-5V11Zm7.41,9.22s0,0,0-.05c0-.51,0-1,0-1.52a1.12,1.12,0,0,0-1.09-1.13,1.11,1.11,0,0,0-1.14,1c0,.53,0,1.06,0,1.59,0,0,0,.07,0,.11Zm2.26,0V19a2.68,2.68,0,0,0,0-.49.89.89,0,0,0-1.77.18c0,.49,0,1,0,1.46a.28.28,0,0,0,0,.09Zm-5,0c0-.57,0-1.12,0-1.66a.8.8,0,0,0-.43-.68.89.89,0,0,0-1.23.29,1,1,0,0,0-.13.49c0,.49,0,1,0,1.48,0,0,0,.05,0,.08Zm7.2,0c0-.33,0-.65,0-1a.89.89,0,0,0-1.76-.11,9.73,9.73,0,0,0,0,1.08ZM6,20.26H7.78v-.89a.78.78,0,0,0,0-.16.89.89,0,0,0-.89-.74.87.87,0,0,0-.87.75,8.81,8.81,0,0,0,0,1Zm5.62-3.15a.67.67,0,0,0,.67-.67.7.7,0,0,0-.67-.68.69.69,0,0,0-.68.69.67.67,0,0,0,.68.65Zm-2-.22a.43.43,0,0,0-.44-.45.45.45,0,0,0-.45.45h0a.45.45,0,0,0,.44.45.45.45,0,0,0,.45-.44v0Zm4.51-.45a.46.46,0,0,0-.45.44.45.45,0,0,0,.44.46h0a.45.45,0,0,0,0-.9Zm-7.2.68a.44.44,0,0,0-.45.44h0a.44.44,0,0,0,.44.45h0a.45.45,0,0,0,0-.9h0Zm9.45,0a.45.45,0,1,0,0,.89.45.45,0,0,0,.45-.44h0a.44.44,0,0,0-.44-.45h0Z"/><path id="Path_41367" data-name="Path 41367" class="cls-2" d="M11.6,10.35H10.34c-.24,0-.31-.08-.31-.32V8.42c0-.25.07-.32.32-.32h2.52c.24,0,.31.08.31.31V10c0,.23-.07.31-.3.31Zm-1.12-.46h2.24V8.55H10.48Z"/><path id="Path_41368" data-name="Path 41368" class="cls-2" d="M11.39,13.51h.43V14h-.43Z"/><path id="Path_41369" data-name="Path 41369" class="cls-2" d="M11.38,14.85v-.44h.44v.44Z"/><path id="Path_41370" data-name="Path 41370" class="cls-2" d="M11.82,10.81v.43h-.43v-.43Z"/><path id="Path_41371" data-name="Path 41371" class="cls-2" d="M11.39,13.05v-.44h.43v.44Z"/><path id="Path_41372" data-name="Path 41372" class="cls-2" d="M11.82,11.72v.43h-.43v-.43Z"/><path id="Path_41373" data-name="Path 41373" class="cls-2" d="M9.58,12.15v-.44H10v.44Z"/><path id="Path_41374" data-name="Path 41374" class="cls-2" d="M13.19,13v-.43h.43V13Z"/><path id="Path_41375" data-name="Path 41375" class="cls-2" d="M10,13.51V14H9.59v-.44Z"/><path id="Path_41376" data-name="Path 41376" class="cls-2" d="M10.92,14h-.44v-.43h.44Z"/><path id="Path_41377" data-name="Path 41377" class="cls-2" d="M12.29,13.94v-.43h.43v.43Z"/><path id="Path_41378" data-name="Path 41378" class="cls-2" d="M13.19,13.94v-.43h.43v.43Z"/><path id="Path_41379" data-name="Path 41379" class="cls-2" d="M10,14.85H9.58v-.43H10Z"/><path id="Path_41380" data-name="Path 41380" class="cls-2" d="M10.48,14.41h.44v.43h-.44Z"/><path id="Path_41381" data-name="Path 41381" class="cls-2" d="M12.29,14.84v-.43h.43v.43Z"/><path id="Path_41382" data-name="Path 41382" class="cls-2" d="M13.63,14.41v.43h-.44v-.43Z"/><path id="Path_41383" data-name="Path 41383" class="cls-2" d="M10.92,12.61v.44h-.43v-.44Z"/><path id="Path_41384" data-name="Path 41384" class="cls-2" d="M12.29,13v-.43h.43V13Z"/><path id="Path_41385" data-name="Path 41385" class="cls-2" d="M9.58,13v-.43H10V13Z"/><path id="Path_41386" data-name="Path 41386" class="cls-2" d="M13.63,11.72v.42h-.44v-.42Z"/><path id="Path_41387" data-name="Path 41387" class="cls-2" d="M10.92,10.82v.43h-.38s0,0-.06-.06,0,0,0,0C10.45,10.79,10.51,10.74,10.92,10.82Z"/><path id="Path_41388" data-name="Path 41388" class="cls-2" d="M12.72,11.25h-.43v-.44h.43Z"/><path id="Path_41389" data-name="Path 41389" class="cls-2" d="M10.92,12.15h-.43v-.43h.43Z"/><path id="Path_41390" data-name="Path 41390" class="cls-2" d="M12.29,12.14v-.43h.43v.43Z"/><path id="Path_41391" data-name="Path 41391" class="cls-2" d="M15.87,16h-.43V12.39h.43Z"/><path id="Path_41392" data-name="Path 41392" class="cls-2" d="M17.22,16h-.43V12.39h.43Z"/><path id="Path_41393" data-name="Path 41393" class="cls-2" d="M6.42,16H6V12.39h.43Z"/><path id="Path_41394" data-name="Path 41394" class="cls-2" d="M7.77,16H7.34v-3.6h.43Z"/></g></svg>