<svg id="Layer_1" data-name="Layer 1" xmlns="http://www.w3.org/2000/svg" viewBox="0 0 22 22"><defs><style>.cls-1{fill:#494849;}</style></defs><path class="cls-1" d="M19.42,3.17H2.58a2,2,0,0,0-1.95,2V16.78a1.94,1.94,0,0,0,2,1.94H19.42a1.94,1.94,0,0,0,1.95-1.94V5.12A2,2,0,0,0,19.42,3.17Zm.65,13.61a.65.65,0,0,1-.65.65H2.58a.65.65,0,0,1-.65-.65V5.12a.65.65,0,0,1,.65-.65H19.42a.65.65,0,0,1,.65.65Z"/><path class="cls-1" d="M4.82,7.06a.65.65,0,1,0,.65.65A.65.65,0,0,0,4.82,7.06Z"/><path class="cls-1" d="M4.82,10.3a.65.65,0,1,0,.65.65A.65.65,0,0,0,4.82,10.3Z"/><path class="cls-1" d="M4.82,13.54a.65.65,0,1,0,.65.65A.65.65,0,0,0,4.82,13.54Z"/><path class="cls-1" d="M16.48,7.06H7.41a.65.65,0,1,0,0,1.3h9.07a.65.65,0,1,0,0-1.3Z"/><path class="cls-1" d="M16.48,10.3H7.41a.65.65,0,1,0,0,1.3h9.07a.65.65,0,0,0,0-1.3Z"/><path class="cls-1" d="M16.48,13.54H7.41a.65.65,0,1,0,0,1.29h9.07a.65.65,0,1,0,0-1.29Z"/></svg>