<svg id="Layer_1" data-name="Layer 1" xmlns="http://www.w3.org/2000/svg" viewBox="0 0 22 22"><defs><style>.cls-1{fill:#494849;}</style></defs><path class="cls-1" d="M14.82,10.93A3.83,3.83,0,1,0,11,7.1,3.84,3.84,0,0,0,14.82,10.93Zm0-6.37A2.55,2.55,0,1,1,12.27,7.1,2.55,2.55,0,0,1,14.82,4.56Z"/><path class="cls-1" d="M8.57,13.6a6.59,6.59,0,0,1,1.07-1,7.58,7.58,0,0,0-1.56-.32c-.3,0-.6,0-.9,0C2.08,12.2.81,16,.81,17.3a1.12,1.12,0,0,0,1.27,1.27H7.45a2.79,2.79,0,0,1-.27-1.27A5.84,5.84,0,0,1,8.57,13.6ZM2.08,17.3a3.94,3.94,0,0,1,1-2.2,5,5,0,0,1,4-1.62A7,7,0,0,0,5.9,17.3Z"/><path class="cls-1" d="M14.82,12.2c-5.09,0-6.37,3.82-6.37,5.1a1.25,1.25,0,0,0,1.28,1.27H19.92a1.24,1.24,0,0,0,1.27-1.27C21.19,16,19.92,12.2,14.82,12.2Zm5.09,5.1H9.73a3.93,3.93,0,0,1,1-2.19,5.13,5.13,0,0,1,4.13-1.63A5.11,5.11,0,0,1,19,15.1a3.89,3.89,0,0,1,1,2.19Z"/><path class="cls-1" d="M6.54,11.56A3.82,3.82,0,1,0,2.72,7.74,3.82,3.82,0,0,0,6.54,11.56Zm0-6.37A2.55,2.55,0,1,1,4,7.74,2.55,2.55,0,0,1,6.54,5.19Z"/></svg>