<svg id="Layer_1" data-name="Layer 1" xmlns="http://www.w3.org/2000/svg" viewBox="0 0 22 22"><defs><style>.cls-1{fill:#494949;}</style></defs><g id="Group_19091" data-name="Group 19091"><path id="Path_41353" data-name="Path 41353" class="cls-1" d="M14.26,19.49l-2-.54-2.09-.56a1.45,1.45,0,0,0-.35,0q-3.28,0-6.55,0c-.51,0-.72-.22-.72-.72V6c0-.52.21-.73.73-.73H9.16a.19.19,0,0,0,.22-.16c.17-.7.36-1.39.55-2.08a1.19,1.19,0,0,1,1.4-.94l.15,0L18.2,4a1.18,1.18,0,0,1,.94,1.39.83.83,0,0,1,0,.15q-1.74,6.53-3.49,13a1.28,1.28,0,0,1-1,.95ZM3.16,5.89V17.75h8.75c.52,0,.73-.21.73-.73V6.61c0-.51-.21-.72-.72-.72Zm9.11,12.44.14,0,1.78.48a.61.61,0,0,0,.81-.31,1.21,1.21,0,0,0,.05-.18l3.48-13a.6.6,0,0,0-.33-.79.43.43,0,0,0-.16,0L11.37,2.75a.62.62,0,0,0-.82.31.46.46,0,0,0-.05.2L10,5.14c0,.05,0,.09,0,.16h2a1,1,0,0,1,.88.37,1,1,0,0,0,.66.38,1.58,1.58,0,0,1,.31.09.24.24,0,0,0,.27-.06c.51-.49,1-1,1.54-1.44.05,0,.11-.09.16-.08a3.45,3.45,0,0,1,.43.12l-1.09,1.8a1.57,1.57,0,0,1,.29.08.94.94,0,0,0,1.09-.15c.16-.14.3,0,.47,0-.14.22-.27.43-.41.62a.45.45,0,0,0-.09.35c0,.24,0,.48,0,.72a.43.43,0,0,1-.44-.28,2.71,2.71,0,0,0-.21-.37s-.05-.08-.08-.09L15,7.14v2.1l-.27-.07a.29.29,0,0,1-.26-.23c-.19-.66-.39-1.31-.59-2,0,0,0-.13-.08-.14l-.56-.16v4.56l.6.16-.31,1.14-.3-.07V17a1.24,1.24,0,0,1-1,1.35Z"/><path id="Path_41354" data-name="Path 41354" class="cls-1" d="M7.89,7.07a3.56,3.56,0,1,1-3.55,3.56A3.57,3.57,0,0,1,7.89,7.07ZM7,11.36H8.75c0-.46,0-.92,0-1.38,0,0-.08-.08-.12-.09H7ZM9.35,9.9v1.47h1.4a2.62,2.62,0,0,0,0-1.47Zm-2.92,0H5.11A.1.1,0,0,0,5,10a2.6,2.6,0,0,0,0,1.41H6.43ZM8.63,12H7.16a4.86,4.86,0,0,0,.61,1.54.14.14,0,0,0,.18.07A.09.09,0,0,0,8,13.53,4.85,4.85,0,0,0,8.63,12ZM7.16,9.29H8.63A4.55,4.55,0,0,0,8,7.72c-.06-.09-.16-.08-.23,0a4.77,4.77,0,0,0-.61,1.54ZM6.52,12H5.27A2.91,2.91,0,0,0,7,13.44Zm4,0H9.32s-.08.06-.1.11-.09.37-.15.55-.2.54-.31.82A3,3,0,0,0,10.53,12ZM8.78,7.82l.5,1.46h1.24A3,3,0,0,0,8.78,7.82ZM7,7.84A2.67,2.67,0,0,0,5.3,9.29H6.51Z"/><path id="Path_41355" data-name="Path 41355" class="cls-1" d="M10.85,16v.58H5V16Z"/><path id="Path_41356" data-name="Path 41356" class="cls-1" d="M13.87,18.15,13.3,18l1.08-4,.57.15Z"/><path id="Path_41357" data-name="Path 41357" class="cls-1" d="M15.26,13l-.58-.16L15,11.7l.57.15Z"/><path id="Path_41358" data-name="Path 41358" class="cls-1" d="M16.37,11.15,15.82,11l.15-.57.55.15Z"/><path id="Path_41359" data-name="Path 41359" class="cls-1" d="M13.56,10.41l.15-.58.56.15-.15.57Z"/><path id="Path_41360" data-name="Path 41360" class="cls-1" d="M14.69,10.7l.15-.57.55.15-.14.57Z"/></g></svg>