<svg id="Layer_1" data-name="Layer 1" xmlns="http://www.w3.org/2000/svg" viewBox="0 0 22 22"><defs><style>.cls-1{fill:#4a484a;}</style></defs><path class="cls-1" d="M11.59,9.07a.59.59,0,1,0-1.18,0v1.78H8.62a.59.59,0,0,0,0,1.18h1.79v1.79a.59.59,0,0,0,1.18,0V12h1.79a.59.59,0,0,0,0-1.18H11.59Z"/><path class="cls-1" d="M2.85,4.32A2.56,2.56,0,0,1,5.56,1.94H16.41a2.56,2.56,0,0,1,2.71,2.38V18.57a2.56,2.56,0,0,1-2.71,2.37H5.56a2.56,2.56,0,0,1-2.71-2.37ZM16.41,3.13H5.56A1.28,1.28,0,0,0,4.21,4.32V18.57a1.28,1.28,0,0,0,1.35,1.18H16.41a1.28,1.28,0,0,0,1.35-1.18V4.32A1.28,1.28,0,0,0,16.41,3.13Z"/></svg>