<svg id="Layer_1" data-name="Layer 1" xmlns="http://www.w3.org/2000/svg" viewBox="0 0 22 22"><defs><style>.cls-1{fill:#494849;}</style></defs><path class="cls-1" d="M14.19,11.29l-3.32,3.25L9.44,13.13a.64.64,0,0,0-.89,0,.6.6,0,0,0,0,.87l1.88,1.85a.64.64,0,0,0,.89,0h0l3.76-3.69a.6.6,0,0,0,0-.87A.64.64,0,0,0,14.19,11.29Z"/><path class="cls-1" d="M13.38,1.5H6.48A2.49,2.49,0,0,0,4,4V18.72a2.49,2.49,0,0,0,2.51,2.46h10A2.48,2.48,0,0,0,19,18.72V7Zm4.39,17.22A1.24,1.24,0,0,1,16.52,20h-10a1.24,1.24,0,0,1-1.25-1.23V4A1.24,1.24,0,0,1,6.48,2.73h6.9V5.19A1.87,1.87,0,0,0,15.27,7h2.5Z"/></svg>