<svg width="24" height="25" viewBox="0 0 24 25" fill="none" xmlns="http://www.w3.org/2000/svg">
<path opacity="0.4" d="M10.0833 16.238H3.50777C2.67555 16.238 2 16.9017 2 17.7194C2 18.5359 2.67555 19.2007 3.50777 19.2007H10.0833C10.9155 19.2007 11.5911 18.5359 11.5911 17.7194C11.5911 16.9017 10.9155 16.238 10.0833 16.238Z" fill="white"/>
<path opacity="0.4" d="M22.0001 6.6587C22.0001 5.84217 21.3246 5.17847 20.4934 5.17847H13.9179C13.0857 5.17847 12.4102 5.84217 12.4102 6.6587C12.4102 7.47632 13.0857 8.14003 13.9179 8.14003H20.4934C21.3246 8.14003 22.0001 7.47632 22.0001 6.6587Z" fill="white"/>
<path d="M8.87774 6.65859C8.87774 8.52526 7.33886 10.0382 5.43887 10.0382C3.53999 10.0382 2 8.52526 2 6.65859C2 4.79301 3.53999 3.28003 5.43887 3.28003C7.33886 3.28003 8.87774 4.79301 8.87774 6.65859Z" fill="white"/>
<path d="M21.9998 17.6792C21.9998 19.5448 20.4609 21.0578 18.5609 21.0578C16.6621 21.0578 15.1221 19.5448 15.1221 17.6792C15.1221 15.8125 16.6621 14.2996 18.5609 14.2996C20.4609 14.2996 21.9998 15.8125 21.9998 17.6792Z" fill="white"/>
</svg>
