<svg width="268" height="295" viewBox="0 0 268 295" fill="none" xmlns="http://www.w3.org/2000/svg">
<path d="M267.55 240.543C266.75 240.783 265.95 241.053 265.15 241.343C237.16 250.943 212.99 268.783 195.52 291.923C194.99 292.613 194.48 293.303 193.99 294.013L0 153.083C3.4 148.413 6.91 143.833 10.52 139.323L10.43 139.303L27.84 29.3631C29.33 19.9831 34.47 12.0831 41.6 6.93306C48.71 1.73306 57.81 -0.71694 67.19 0.77306L177.11 18.1831H177.13C182.51 16.1631 187.94 14.2431 193.43 12.4731L267.55 240.563V240.543Z" fill="#FFE3EC"/>
<g style="mix-blend-mode:overlay" opacity="0.6">
<path d="M195.52 291.923C194.99 292.613 194.48 293.303 193.99 294.013L0 153.083C3.4 148.413 6.91 143.833 10.52 139.323L10.43 139.303L27.84 29.3631C29.33 19.9831 34.47 12.0831 41.6 6.93306C48.71 1.73306 57.81 -0.71694 67.19 0.77306L177.11 18.1831H177.13C182.51 16.1631 187.94 14.2431 193.43 12.4731L189.16 20.9431C185.98 22.0531 182.73 23.2131 179.49 24.4331L178.33 24.8531H176.57L66.14 7.38306C64.67 7.14306 63.21 7.02306 61.74 7.02306C55.89 7.02306 50.27 8.84306 45.51 12.3631C39.53 16.6731 35.59 23.1031 34.42 30.4131L17.99 134.283L17.5 136.573L15.72 143.513C14.96 144.443 14.23 145.383 13.5 146.313C11.21 149.243 11.79 153.493 14.77 155.723L195.52 291.943V291.923Z" fill="#EFEEE1"/>
</g>
<g style="mix-blend-mode:overlay" opacity="0.4">
<path d="M267.578 240.523L267.558 240.543C266.758 240.783 265.958 241.053 265.158 241.343L189.168 20.9231L193.438 12.4531L267.588 240.523H267.578Z" fill="#1F1E21"/>
</g>
<rect x="45" y="17" width="44" height="44" rx="22" fill="white"/>
<path d="M69 34V27.46C69.91 27.81 70.75 28.34 71.46 29.05L74.94 32.54C75.65 33.25 76.18 34.09 76.53 35H69.99C69.44 35 68.99 34.55 68.99 34H69ZM73 44C73 41.79 71.21 40 69 40C66.79 40 65 41.79 65 44C65 45.48 65.8 46.77 67 47.46V50.27C67 50.91 67.78 51.23 68.23 50.78L69 50.01L69.77 50.78C70.22 51.23 71 50.91 71 50.27V47.46C72.2 46.77 73 45.48 73 44ZM76.98 37H70C68.35 37 67 35.65 67 34V27.02C66.84 27.01 66.68 27 66.51 27H62C59.24 27 57 29.24 57 32V46C57 48.76 59.24 51 62 51H65V48.47C63.77 47.37 63 45.78 63 44C63 40.69 65.69 38 69 38C72.31 38 75 40.69 75 44C75 45.78 74.23 47.37 73 48.47V50.9C75.28 50.44 77 48.42 77 46V37.49C77 37.33 76.99 37.17 76.98 37Z" fill="#C4416B"/>
<path d="M187.261 239.139C193.063 235.248 197.705 231.391 201.187 227.568C204.669 223.711 206.409 220.127 206.409 216.816C206.409 214.768 205.88 213.129 204.822 211.9C203.798 210.638 202.126 210.006 199.805 210.006C197.415 210.006 195.606 210.774 194.377 212.31C193.149 213.812 192.466 215.894 192.329 218.556H187.721C187.96 214.529 189.206 211.44 191.459 209.289C193.712 207.105 196.613 206.012 200.163 206.012C203.542 206.012 206.222 206.917 208.201 208.726C210.181 210.535 211.171 213.095 211.171 216.406C211.171 219.137 210.283 221.919 208.509 224.752C206.768 227.551 204.566 230.162 201.904 232.585C199.275 234.975 196.562 237.006 193.763 238.678H212.093V242.518H187.261V239.139Z" fill="black"/>
</svg>
