<svg width="322" height="228" viewBox="0 0 322 228" fill="none" xmlns="http://www.w3.org/2000/svg">
<path d="M267.53 210.58L267.42 210.54C267.69 216.28 267.82 222.03 267.82 227.84H28.1C28.1 226.97 28.1 226.13 28.08 225.26C27.55 194.85 17.81 166.7 1.48999 143.46C1.01999 142.75 0.51 142.06 0 141.37L193.98 0.439941C197.36 5.10994 200.65 9.81995 203.83 14.6499L203.85 14.6099L303.03 65.1499C311.48 69.4599 317.39 76.7799 320.11 85.1599C322.84 93.5199 322.38 102.95 318.06 111.42L267.52 210.6L267.53 210.58Z" fill="#81AB35"/>
<g style="mix-blend-mode:overlay" opacity="0.7">
<path d="M318.072 111.4C322.382 102.93 322.852 93.4999 320.122 85.1399C317.412 76.7599 311.492 69.4399 303.042 65.1299L203.862 14.5899L203.842 14.6299C200.662 9.80993 197.372 5.08992 193.992 0.419922L0.0117188 141.35C0.521719 142.04 1.03171 142.73 1.50171 143.44L186.952 13.6199C190.002 11.4899 194.222 12.2599 196.292 15.3299C196.982 16.3299 197.622 17.3099 198.272 18.2899L206.942 23.6299L300.032 71.0699C306.612 74.4299 311.502 80.1599 313.792 87.1899C316.082 94.2399 315.502 101.75 312.142 108.36L264.322 202.18L260.632 207.14L260.762 210.85C260.892 213.94 261.002 217.1 261.072 220.23C261.072 220.54 261.092 220.83 261.092 221.14L261.132 221.18L267.822 227.81C267.822 222.01 267.692 216.25 267.422 210.51L267.532 210.55L318.072 111.37V111.4Z" fill="white"/>
</g>
<g style="mix-blend-mode:overlay" opacity="0.4">
<path d="M267.822 227.84H28.102C28.102 226.97 28.102 226.13 28.082 225.26L261.082 221.17L261.122 221.21L267.812 227.84H267.822Z" fill="#1F1E21"/>
</g>
<path d="M67.2384 157.366H48.704V169.449C49.5573 168.289 50.7861 167.367 52.3904 166.685C53.9947 166.002 55.7525 165.661 57.664 165.661C60.224 165.661 62.3403 166.207 64.0128 167.299C65.7195 168.357 66.9653 169.774 67.7504 171.549C68.5696 173.289 68.9792 175.235 68.9792 177.385C68.9792 181.106 67.9381 184.144 65.856 186.499C63.7739 188.854 60.7189 190.032 56.6912 190.032C53.0731 190.032 50.1205 189.059 47.8336 187.113C45.5467 185.134 44.2667 182.488 43.9936 179.177H48.6016C48.9771 181.294 49.8475 182.949 51.2128 184.144C52.6123 185.304 54.3701 185.885 56.4864 185.885C59.1147 185.885 61.0944 185.1 62.4256 183.529C63.7568 181.959 64.4224 179.894 64.4224 177.334C64.4224 174.843 63.7397 172.897 62.3744 171.497C61.0091 170.098 59.0805 169.398 56.5888 169.398C54.8139 169.398 53.2608 169.791 51.9296 170.576C50.5984 171.327 49.5915 172.351 48.9088 173.648H44.4032V153.219H67.2384V157.366Z" fill="white"/>
<rect x="259" y="77" width="44" height="44" rx="22" fill="white"/>
<path d="M285 87H277C274.243 87 272 89.243 272 92V106C272 108.757 274.243 111 277 111H278C278.552 111 279 110.552 279 110V105H278C277.448 105 277 104.552 277 104C277 103.448 277.448 103 278 103H284C284.552 103 285 103.448 285 104C285 104.552 284.552 105 284 105H283V110C283 110.552 283.448 111 284 111H285C287.757 111 290 108.757 290 106V92C290 89.243 287.757 87 285 87ZM279 101H278C277.448 101 277 100.552 277 100C277 99.448 277.448 99 278 99H279C279.552 99 280 99.448 280 100C280 100.552 279.552 101 279 101ZM279 97H278C277.448 97 277 96.552 277 96C277 95.448 277.448 95 278 95H279C279.552 95 280 95.448 280 96C280 96.552 279.552 97 279 97ZM279 93H278C277.448 93 277 92.552 277 92C277 91.448 277.448 91 278 91H279C279.552 91 280 91.448 280 92C280 92.552 279.552 93 279 93ZM284 101H283C282.448 101 282 100.552 282 100C282 99.448 282.448 99 283 99H284C284.552 99 285 99.448 285 100C285 100.552 284.552 101 284 101ZM284 97H283C282.448 97 282 96.552 282 96C282 95.448 282.448 95 283 95H284C284.552 95 285 95.448 285 96C285 96.552 284.552 97 284 97ZM284 93H283C282.448 93 282 92.552 282 92C282 91.448 282.448 91 283 91H284C284.552 91 285 91.448 285 92C285 92.552 284.552 93 284 93Z" fill="#A9D55A"/>
</svg>
