<svg width="240" height="323" viewBox="0 0 240 323" fill="none" xmlns="http://www.w3.org/2000/svg">
<path d="M239.158 94.5501L165.058 322.64C164.238 322.35 163.408 322.11 162.588 321.86C148.978 317.7 134.528 315.46 119.568 315.46C104.608 315.46 90.1778 317.71 76.5678 321.86C75.7478 322.08 74.9478 322.35 74.1478 322.62C74.1278 322.62 74.1278 322.64 74.1278 322.64L0.0078125 94.5501C5.47781 92.7701 10.9878 91.1301 16.5478 89.5901L95.2478 10.8901C101.988 4.18007 110.768 0.820068 119.568 0.820068C128.368 0.820068 137.178 4.18007 143.918 10.8901L222.618 89.5901C228.178 91.1201 233.688 92.7901 239.158 94.5501Z" fill="#B52624"/>
<path d="M116.309 250.751C118.63 250.751 120.627 251.161 122.299 251.98C123.972 252.799 125.235 253.926 126.088 255.359C126.941 256.793 127.368 258.414 127.368 260.223C127.368 262.476 126.702 264.37 125.371 265.906C124.074 267.442 122.163 268.364 119.637 268.671V268.978C122.265 269.661 124.313 270.719 125.781 272.153C127.283 273.586 128.034 275.566 128.034 278.092C128.034 281.062 127.044 283.485 125.064 285.362C123.084 287.24 120.234 288.178 116.514 288.178C112.793 288.178 109.772 287.223 107.451 285.311C105.164 283.366 103.816 280.533 103.406 276.812H108.014C108.322 279.065 109.175 280.857 110.574 282.188C112.008 283.519 113.937 284.185 116.36 284.185C118.647 284.185 120.405 283.605 121.634 282.444C122.862 281.249 123.477 279.713 123.477 277.836C123.477 275.583 122.589 273.877 120.814 272.716C119.074 271.521 116.582 270.924 113.339 270.924H112.11V267.033H113.339C119.62 267.033 122.76 264.934 122.76 260.735C122.76 258.892 122.18 257.424 121.019 256.332C119.859 255.24 118.254 254.694 116.206 254.694C114.158 254.694 112.435 255.291 111.035 256.486C109.636 257.646 108.817 259.37 108.578 261.657H104.021C104.26 258.244 105.437 255.581 107.554 253.67C109.704 251.724 112.622 250.751 116.309 250.751Z" fill="white"/>
<g style="mix-blend-mode:overlay" opacity="0.7">
<path d="M230.09 100.89H230.13L230.73 98.9101L230.09 100.89ZM222.62 89.6001L143.91 10.8901C137.17 4.18007 128.37 0.820068 119.56 0.820068C110.75 0.820068 101.97 4.18007 95.24 10.8901L16.54 89.5901C10.98 91.1201 5.47 92.7701 0 94.5501L74.12 322.64C74.12 322.64 74.12 322.62 74.14 322.62C74.94 322.35 75.74 322.09 76.56 321.86L10.39 105.36C9.28001 101.78 11.35 98.0001 14.95 96.9801C16.06 96.6701 17.17 96.3601 18.31 96.0501L20 95.5601L99.96 15.6101C105.21 10.3901 112.19 7.49007 119.57 7.49007C126.95 7.49007 133.95 10.3801 139.2 15.6301L219.15 95.5601L220.84 96.0501C224.06 96.9401 227.33 97.8701 230.73 98.9201L239.16 94.5601C233.69 92.8001 228.18 91.1401 222.62 89.6001ZM230.09 100.89H230.13L230.73 98.9101L230.09 100.89Z" fill="#EFEEE1"/>
</g>
<g style="mix-blend-mode:overlay" opacity="0.4">
<path d="M239.16 94.55L165.06 322.64C164.24 322.35 163.41 322.11 162.59 321.86L230.13 100.89L230.73 98.91L239.16 94.55Z" fill="#1F1E21"/>
</g>
<rect x="98" y="19" width="44" height="44" rx="22" fill="white"/>
<g clip-path="url(#clip0_1768_19591)">
<path d="M113.868 44.5831C112.814 43.6089 112.009 42.3949 111.523 41.044C111.037 39.6931 110.883 38.2449 111.075 36.8221C111.265 35.3793 111.802 34.0041 112.64 32.8144C113.478 31.6246 114.592 30.6557 115.886 29.9908C117.18 29.3259 118.617 28.9848 120.072 28.9966C121.527 29.0085 122.958 29.373 124.241 30.059C125.524 30.7449 126.622 31.7319 127.441 32.9351C128.259 34.1384 128.773 35.5222 128.94 36.9678C129.106 38.4135 128.919 39.8779 128.395 41.2355C127.872 42.5932 127.027 43.8036 125.932 44.7631C125.228 45.3687 124.681 46.1364 124.338 47.0001H121V39.8161C121.583 39.61 122.088 39.2288 122.446 38.7247C122.804 38.2207 122.998 37.6183 123 37.0001C123 36.7348 122.895 36.4805 122.708 36.2929C122.52 36.1054 122.266 36.0001 122 36.0001C121.735 36.0001 121.481 36.1054 121.293 36.2929C121.106 36.4805 121 36.7348 121 37.0001C121 37.2653 120.895 37.5196 120.708 37.7072C120.52 37.8947 120.266 38.0001 120 38.0001C119.735 38.0001 119.481 37.8947 119.293 37.7072C119.106 37.5196 119 37.2653 119 37.0001C119 36.7348 118.895 36.4805 118.708 36.2929C118.52 36.1054 118.266 36.0001 118 36.0001C117.735 36.0001 117.481 36.1054 117.293 36.2929C117.106 36.4805 117 36.7348 117 37.0001C117.003 37.6183 117.197 38.2207 117.555 38.7247C117.913 39.2288 118.418 39.61 119 39.8161V47.0001H115.563C115.181 46.0806 114.603 45.2557 113.868 44.5831ZM116 49.0001V49.3101C116.001 50.2884 116.391 51.2263 117.082 51.9181C117.774 52.6099 118.712 52.999 119.69 53.0001H120.31C121.289 52.999 122.227 52.6099 122.918 51.9181C123.61 51.2263 123.999 50.2884 124 49.3101V49.0001H116Z" fill="#EB3F3D"/>
</g>
<defs>
<clipPath id="clip0_1768_19591">
<rect width="24" height="24" fill="white" transform="translate(108 29)"/>
</clipPath>
</defs>
</svg>
