<svg width="268" height="295" viewBox="0 0 268 295" fill="none" xmlns="http://www.w3.org/2000/svg">
<path d="M267.53 153.138L73.55 294.068C73.06 293.358 72.55 292.688 72.02 291.998C54.57 268.858 30.42 251.018 2.45001 241.418C1.65001 241.128 0.83 240.838 0 240.598L74.1 12.5076C79.59 14.3076 85.02 16.1976 90.4 18.2176L200.34 0.807609C209.72 -0.682391 218.82 1.78761 225.93 6.96761C233.07 12.1276 238.2 20.0176 239.69 29.3976L257.1 139.338L257.01 139.358C260.61 143.868 264.13 148.448 267.53 153.118V153.138Z" fill="#FFF8E5"/>
<path d="M50.5872 237.084V233.193L69.1216 209.026H74.1392V233.039H79.464V237.084H74.1392V245.378H69.4288V237.084H50.5872ZM69.736 214.71L55.5024 233.039H69.736V214.71Z" fill="black"/>
<rect x="180" y="18" width="44" height="44" rx="22" fill="white"/>
<g clip-path="url(#clip0_1768_19506)">
<path d="M190.291 36.5521C190.075 36.1524 189.975 35.7006 190.002 35.2473C190.029 34.794 190.182 34.3573 190.444 33.9861C190.871 33.3592 191.443 32.8446 192.112 32.4861L199.613 28.5821C200.35 28.1987 201.169 27.9985 202 27.9985C202.831 27.9985 203.649 28.1987 204.387 28.5821L211.887 32.4891C212.555 32.8476 213.127 33.3622 213.555 33.9891C213.816 34.3603 213.969 34.797 213.996 35.2503C214.023 35.7036 213.923 36.1554 213.708 36.5551C213.476 36.9939 213.128 37.3607 212.702 37.6154C212.276 37.8702 211.788 38.0033 211.292 38.0001H192.708C192.211 38.0032 191.723 37.8698 191.296 37.6144C190.87 37.3591 190.522 36.9916 190.291 36.5521ZM213 50.0001C213 49.4696 212.789 48.9609 212.414 48.5858C212.039 48.2108 211.53 48.0001 211 48.0001V40.0001H209V48.0001H206V40.0001H204V48.0001H200V40.0001H198V48.0001H195V40.0001H193V48.0001C192.469 48.0001 191.961 48.2108 191.585 48.5858C191.21 48.9609 191 49.4696 191 50.0001C190.734 50.0001 190.48 50.1054 190.293 50.2929C190.105 50.4805 190 50.7348 190 51.0001C190 51.2653 190.105 51.5196 190.293 51.7072C190.48 51.8947 190.734 52.0001 191 52.0001H213C213.265 52.0001 213.519 51.8947 213.707 51.7072C213.894 51.5196 214 51.2653 214 51.0001C214 50.7348 213.894 50.4805 213.707 50.2929C213.519 50.1054 213.265 50.0001 213 50.0001Z" fill="#F2C141"/>
</g>
<g style="mix-blend-mode:overlay" opacity="0.7">
<path d="M257.01 139.378L257.1 139.358L239.69 29.4176C238.2 20.0376 233.06 12.1376 225.93 6.98763C218.82 1.80763 209.72 -0.662371 200.34 0.827629L90.4 18.2376C85.02 16.2176 79.6 14.3276 74.1 12.5276L0 240.618C0.82 240.858 1.65001 241.148 2.45001 241.438L76.18 27.3776C77.4 23.8376 81.27 21.9976 84.76 23.2676C85.87 23.6676 86.96 24.0876 88.05 24.4876L89.72 25.1076L201.4 7.42763C202.85 7.18763 204.31 7.06763 205.78 7.06763C211.63 7.06763 217.25 8.91762 222.01 12.3776C228.01 16.7176 231.95 23.1376 233.13 30.4576L249.56 134.308L250.25 141.578L251.81 143.558C254.06 146.338 256.15 149.028 258.15 151.698L258.17 151.718L267.55 153.138C264.15 148.468 260.64 143.888 257.03 139.378H257.01Z" fill="white"/>
</g>
<g style="mix-blend-mode:overlay" opacity="0.4">
<path d="M267.53 153.138L73.5496 294.068C73.0596 293.358 72.5495 292.688 72.0195 291.998L250.97 157.128L258.15 151.708L267.53 153.128V153.138Z" fill="#1F1E21"/>
</g>
<defs>
<clipPath id="clip0_1768_19506">
<rect width="24" height="24" fill="white" transform="translate(190 28)"/>
</clipPath>
</defs>
</svg>
