<svg width="322" height="229" viewBox="0 0 322 229" fill="none" xmlns="http://www.w3.org/2000/svg">
<path d="M267.53 211L267.42 210.96C267.69 216.7 267.82 222.45 267.82 228.26H28.1C28.1 227.39 28.1 226.55 28.08 225.68C27.55 195.27 17.81 167.12 1.48999 143.88C1.01999 143.17 0.51 142.48 0 141.79L193.98 0.860107C197.36 5.53011 200.65 10.2401 203.83 15.0701L203.85 15.0301L303.03 65.5701C311.48 69.8801 317.39 77.2001 320.11 85.5801C322.84 93.9401 322.38 103.37 318.06 111.84L267.52 211.02L267.53 211Z" fill="#F6FDEB"/>
<g style="mix-blend-mode:overlay" opacity="0.7">
<path d="M318.072 111.82C322.382 103.35 322.852 93.9201 320.122 85.5601C317.412 77.1801 311.492 69.8601 303.042 65.5501L203.862 15.0101L203.842 15.0501C200.662 10.2301 197.372 5.51009 193.992 0.840088L0.0117188 141.77C0.521719 142.46 1.03171 143.15 1.50171 143.86L186.952 14.0401C190.002 11.9101 194.222 12.6801 196.292 15.7501C196.982 16.7501 197.622 17.7301 198.272 18.7101L206.942 24.0501L300.032 71.4901C306.612 74.8501 311.502 80.5801 313.792 87.6101C316.082 94.6601 315.502 102.17 312.142 108.78L264.322 202.6L260.632 207.56L260.762 211.27C260.892 214.36 261.002 217.52 261.072 220.65C261.072 220.96 261.092 221.25 261.092 221.56L261.132 221.6L267.822 228.23C267.822 222.43 267.692 216.67 267.422 210.93L267.532 210.97L318.072 111.79V111.82Z" fill="white"/>
</g>
<g style="mix-blend-mode:overlay" opacity="0.4">
<path d="M267.822 228.26H28.102C28.102 227.39 28.102 226.55 28.082 225.68L261.082 221.59L261.122 221.63L267.812 228.26H267.822Z" fill="#1F1E21"/>
</g>
<path d="M67.2384 157.786H48.704V169.87C49.5573 168.709 50.7861 167.788 52.3904 167.105C53.9947 166.422 55.7525 166.081 57.664 166.081C60.224 166.081 62.3403 166.627 64.0128 167.719C65.7195 168.777 66.9653 170.194 67.7504 171.969C68.5696 173.71 68.9792 175.655 68.9792 177.806C68.9792 181.526 67.9381 184.564 65.856 186.919C63.7739 189.274 60.7189 190.452 56.6912 190.452C53.0731 190.452 50.1205 189.479 47.8336 187.534C45.5467 185.554 44.2667 182.909 43.9936 179.598H48.6016C48.9771 181.714 49.8475 183.369 51.2128 184.564C52.6123 185.725 54.3701 186.305 56.4864 186.305C59.1147 186.305 61.0944 185.52 62.4256 183.95C63.7568 182.38 64.4224 180.314 64.4224 177.754C64.4224 175.263 63.7397 173.317 62.3744 171.918C61.0091 170.518 59.0805 169.818 56.5888 169.818C54.8139 169.818 53.2608 170.211 51.9296 170.996C50.5984 171.747 49.5915 172.771 48.9088 174.068H44.4032V153.639H67.2384V157.786Z" fill="black"/>
<rect x="259" y="78" width="44" height="44" rx="22" fill="white"/>
<path d="M285 88H277C274.243 88 272 90.243 272 93V107C272 109.757 274.243 112 277 112H278C278.552 112 279 111.552 279 111V106H278C277.448 106 277 105.552 277 105C277 104.448 277.448 104 278 104H284C284.552 104 285 104.448 285 105C285 105.552 284.552 106 284 106H283V111C283 111.552 283.448 112 284 112H285C287.757 112 290 109.757 290 107V93C290 90.243 287.757 88 285 88ZM279 102H278C277.448 102 277 101.552 277 101C277 100.448 277.448 100 278 100H279C279.552 100 280 100.448 280 101C280 101.552 279.552 102 279 102ZM279 98H278C277.448 98 277 97.552 277 97C277 96.448 277.448 96 278 96H279C279.552 96 280 96.448 280 97C280 97.552 279.552 98 279 98ZM279 94H278C277.448 94 277 93.552 277 93C277 92.448 277.448 92 278 92H279C279.552 92 280 92.448 280 93C280 93.552 279.552 94 279 94ZM284 102H283C282.448 102 282 101.552 282 101C282 100.448 282.448 100 283 100H284C284.552 100 285 100.448 285 101C285 101.552 284.552 102 284 102ZM284 98H283C282.448 98 282 97.552 282 97C282 96.448 282.448 96 283 96H284C284.552 96 285 96.448 285 97C285 97.552 284.552 98 284 98ZM284 94H283C282.448 94 282 93.552 282 93C282 92.448 282.448 92 283 92H284C284.552 92 285 92.448 285 93C285 93.552 284.552 94 284 94Z" fill="#A9D55A"/>
</svg>
