<svg width="268" height="295" viewBox="0 0 268 295" fill="none" xmlns="http://www.w3.org/2000/svg">
<path d="M267.55 240.872C266.75 241.112 265.95 241.382 265.15 241.672C237.16 251.272 212.99 269.112 195.52 292.252C194.99 292.942 194.48 293.632 193.99 294.342L0 153.412C3.4 148.742 6.91 144.162 10.52 139.652L10.43 139.632L27.84 29.6919C29.33 20.3119 34.47 12.4119 41.6 7.26191C48.71 2.06191 57.81 -0.388083 67.19 1.10192L177.11 18.5119H177.13C182.51 16.4919 187.94 14.5719 193.43 12.8019L267.55 240.892V240.872Z" fill="#9B1A44"/>
<g style="mix-blend-mode:overlay" opacity="0.6">
<path d="M195.52 292.252C194.99 292.942 194.48 293.632 193.99 294.342L0 153.412C3.4 148.742 6.91 144.162 10.52 139.652L10.43 139.632L27.84 29.6919C29.33 20.3119 34.47 12.4119 41.6 7.26191C48.71 2.06191 57.81 -0.388083 67.19 1.10192L177.11 18.5119H177.13C182.51 16.4919 187.94 14.5719 193.43 12.8019L189.16 21.2719C185.98 22.3819 182.73 23.5419 179.49 24.7619L178.33 25.1819H176.57L66.14 7.71192C64.67 7.47192 63.21 7.35192 61.74 7.35192C55.89 7.35192 50.27 9.17191 45.51 12.6919C39.53 17.0019 35.59 23.4319 34.42 30.7419L17.99 134.612L17.5 136.902L15.72 143.842C14.96 144.772 14.23 145.712 13.5 146.642C11.21 149.572 11.79 153.822 14.77 156.052L195.52 292.272V292.252Z" fill="#EFEEE1"/>
</g>
<g style="mix-blend-mode:overlay" opacity="0.4">
<path d="M267.578 240.852L267.558 240.872C266.758 241.112 265.958 241.382 265.158 241.672L189.168 21.2517L193.438 12.7817L267.588 240.852H267.578Z" fill="#1F1E21"/>
</g>
<rect x="45" y="17" width="44" height="44" rx="22" fill="white"/>
<path d="M69 34V27.46C69.91 27.81 70.75 28.34 71.46 29.05L74.94 32.54C75.65 33.25 76.18 34.09 76.53 35H69.99C69.44 35 68.99 34.55 68.99 34H69ZM73 44C73 41.79 71.21 40 69 40C66.79 40 65 41.79 65 44C65 45.48 65.8 46.77 67 47.46V50.27C67 50.91 67.78 51.23 68.23 50.78L69 50.01L69.77 50.78C70.22 51.23 71 50.91 71 50.27V47.46C72.2 46.77 73 45.48 73 44ZM76.98 37H70C68.35 37 67 35.65 67 34V27.02C66.84 27.01 66.68 27 66.51 27H62C59.24 27 57 29.24 57 32V46C57 48.76 59.24 51 62 51H65V48.47C63.77 47.37 63 45.78 63 44C63 40.69 65.69 38 69 38C72.31 38 75 40.69 75 44C75 45.78 74.23 47.37 73 48.47V50.9C75.28 50.44 77 48.42 77 46V37.49C77 37.33 76.99 37.17 76.98 37Z" fill="#C4416B"/>
<path d="M187.261 239.468C193.063 235.577 197.705 231.719 201.187 227.897C204.669 224.039 206.409 220.455 206.409 217.145C206.409 215.097 205.88 213.458 204.822 212.229C203.798 210.966 202.126 210.335 199.805 210.335C197.415 210.335 195.606 211.103 194.377 212.639C193.149 214.141 192.466 216.223 192.329 218.885H187.721C187.96 214.858 189.206 211.769 191.459 209.618C193.712 207.434 196.613 206.341 200.163 206.341C203.542 206.341 206.222 207.246 208.201 209.055C210.181 210.864 211.171 213.424 211.171 216.735C211.171 219.466 210.283 222.247 208.509 225.081C206.768 227.879 204.566 230.491 201.904 232.914C199.275 235.303 196.562 237.334 193.763 239.007H212.093V242.847H187.261V239.468Z" fill="white"/>
</svg>
