<svg width="240" height="323" viewBox="0 0 240 323" fill="none" xmlns="http://www.w3.org/2000/svg">
<path d="M239.158 94.3701L165.058 322.46C164.238 322.17 163.408 321.93 162.588 321.68C148.978 317.52 134.528 315.28 119.568 315.28C104.608 315.28 90.1778 317.53 76.5678 321.68C75.7478 321.9 74.9478 322.17 74.1478 322.44C74.1278 322.44 74.1278 322.46 74.1278 322.46L0.0078125 94.3701C5.47781 92.5901 10.9878 90.9501 16.5478 89.4101L95.2478 10.7101C101.988 4.00014 110.768 0.640137 119.568 0.640137C128.368 0.640137 137.178 4.00014 143.918 10.7101L222.618 89.4101C228.178 90.9401 233.688 92.6101 239.158 94.3701Z" fill="#FFE8E8"/>
<path d="M116.309 250.571C118.63 250.571 120.627 250.981 122.299 251.8C123.972 252.619 125.235 253.746 126.088 255.179C126.941 256.613 127.368 258.234 127.368 260.043C127.368 262.296 126.702 264.191 125.371 265.727C124.074 267.263 122.163 268.184 119.637 268.491V268.799C122.265 269.481 124.313 270.539 125.781 271.973C127.283 273.407 128.034 275.386 128.034 277.912C128.034 280.882 127.044 283.305 125.064 285.183C123.084 287.06 120.234 287.999 116.514 287.999C112.793 287.999 109.772 287.043 107.451 285.131C105.164 283.186 103.816 280.353 103.406 276.632H108.014C108.322 278.885 109.175 280.677 110.574 282.008C112.008 283.339 113.937 284.005 116.36 284.005C118.647 284.005 120.405 283.425 121.634 282.264C122.862 281.069 123.477 279.533 123.477 277.656C123.477 275.403 122.589 273.697 120.814 272.536C119.074 271.341 116.582 270.744 113.339 270.744H112.11V266.853H113.339C119.62 266.853 122.76 264.754 122.76 260.555C122.76 258.712 122.18 257.244 121.019 256.152C119.859 255.06 118.254 254.514 116.206 254.514C114.158 254.514 112.435 255.111 111.035 256.306C109.636 257.466 108.817 259.19 108.578 261.477H104.021C104.26 258.064 105.437 255.401 107.554 253.49C109.704 251.544 112.622 250.571 116.309 250.571Z" fill="black"/>
<g style="mix-blend-mode:overlay" opacity="0.7">
<path d="M230.09 100.71H230.13L230.73 98.7301L230.09 100.71ZM222.62 89.4201L143.91 10.7101C137.17 4.00014 128.37 0.640137 119.56 0.640137C110.75 0.640137 101.97 4.00014 95.24 10.7101L16.54 89.4101C10.98 90.9401 5.47 92.5901 0 94.3701L74.12 322.46C74.12 322.46 74.12 322.44 74.14 322.44C74.94 322.17 75.74 321.91 76.56 321.68L10.39 105.18C9.28001 101.6 11.35 97.8201 14.95 96.8001C16.06 96.4901 17.17 96.1801 18.31 95.8701L20 95.3801L99.96 15.4301C105.21 10.2101 112.19 7.31014 119.57 7.31014C126.95 7.31014 133.95 10.2001 139.2 15.4501L219.15 95.3801L220.84 95.8701C224.06 96.7601 227.33 97.6901 230.73 98.7401L239.16 94.3801C233.69 92.6201 228.18 90.9601 222.62 89.4201ZM230.09 100.71H230.13L230.73 98.7301L230.09 100.71Z" fill="#EFEEE1"/>
</g>
<g style="mix-blend-mode:overlay" opacity="0.4">
<path d="M239.16 94.3701L165.06 322.46C164.24 322.17 163.41 321.93 162.59 321.68L230.13 100.71L230.73 98.7301L239.16 94.3701Z" fill="#1F1E21"/>
</g>
<rect x="98" y="19" width="44" height="44" rx="22" fill="white"/>
<g clip-path="url(#clip0_1768_19602)">
<path d="M113.868 44.5831C112.814 43.6089 112.009 42.3949 111.523 41.044C111.037 39.6931 110.883 38.2449 111.075 36.8221C111.265 35.3793 111.802 34.0041 112.64 32.8144C113.478 31.6246 114.592 30.6557 115.886 29.9908C117.18 29.3259 118.617 28.9848 120.072 28.9966C121.527 29.0085 122.958 29.373 124.241 30.059C125.524 30.7449 126.622 31.7319 127.441 32.9351C128.259 34.1384 128.773 35.5222 128.94 36.9678C129.106 38.4135 128.919 39.8779 128.395 41.2355C127.872 42.5932 127.027 43.8036 125.932 44.7631C125.228 45.3687 124.681 46.1364 124.338 47.0001H121V39.8161C121.583 39.61 122.088 39.2288 122.446 38.7247C122.804 38.2207 122.998 37.6183 123 37.0001C123 36.7348 122.895 36.4805 122.708 36.2929C122.52 36.1054 122.266 36.0001 122 36.0001C121.735 36.0001 121.481 36.1054 121.293 36.2929C121.106 36.4805 121 36.7348 121 37.0001C121 37.2653 120.895 37.5196 120.708 37.7072C120.52 37.8947 120.266 38.0001 120 38.0001C119.735 38.0001 119.481 37.8947 119.293 37.7072C119.106 37.5196 119 37.2653 119 37.0001C119 36.7348 118.895 36.4805 118.708 36.2929C118.52 36.1054 118.266 36.0001 118 36.0001C117.735 36.0001 117.481 36.1054 117.293 36.2929C117.106 36.4805 117 36.7348 117 37.0001C117.003 37.6183 117.197 38.2207 117.555 38.7247C117.913 39.2288 118.418 39.61 119 39.8161V47.0001H115.563C115.181 46.0806 114.603 45.2557 113.868 44.5831ZM116 49.0001V49.3101C116.001 50.2884 116.391 51.2263 117.082 51.9181C117.774 52.6099 118.712 52.999 119.69 53.0001H120.31C121.289 52.999 122.227 52.6099 122.918 51.9181C123.61 51.2263 123.999 50.2884 124 49.3101V49.0001H116Z" fill="#EB3F3D"/>
</g>
<defs>
<clipPath id="clip0_1768_19602">
<rect width="24" height="24" fill="white" transform="translate(108 29)"/>
</clipPath>
</defs>
</svg>
