<svg width="322" height="229" viewBox="0 0 322 229" fill="none" xmlns="http://www.w3.org/2000/svg">
<path d="M321.829 141.79C321.629 142.03 321.449 142.28 321.299 142.52C320.789 143.21 320.299 143.9 319.829 144.61C303.819 167.71 294.259 195.59 293.749 225.67C293.729 226.54 293.729 227.38 293.729 228.25H53.9786C53.9786 222.45 54.1086 216.69 54.3786 210.95L54.2886 210.99L3.7586 111.82C-0.551402 103.35 -1.0414 93.9201 1.7086 85.5601C4.3986 77.1801 10.3086 69.8601 18.7786 65.5501L117.959 15.0101L117.979 15.0501C121.159 10.2301 124.449 5.51009 127.829 0.840088L321.809 141.77L321.829 141.79Z" fill="#F6E7FB"/>
<g style="mix-blend-mode:overlay" opacity="0.5">
<path d="M293.739 225.68C293.719 226.55 293.719 227.39 293.719 228.26H53.9786C53.9786 222.46 54.1086 216.7 54.3786 210.96L54.2886 211L3.7586 111.82C-0.551402 103.35 -1.0414 93.9201 1.7086 85.5601C4.3986 77.1801 10.3086 69.8601 18.7786 65.5501L117.959 15.0101L117.979 15.0501C121.159 10.2301 124.449 5.51009 127.829 0.840088L129.359 10.2001C127.289 13.1601 125.359 15.9601 123.529 18.7101L122.619 20.2001L114.879 24.0701L21.7886 71.4901C15.1886 74.8501 10.2986 80.5801 8.0286 87.6301C5.7186 94.6301 6.2986 102.15 9.6786 108.77L57.2386 202.13L61.0386 211.25C60.9986 212.41 60.9286 213.58 60.8786 214.76C60.7486 218.5 63.6986 221.61 67.4386 221.67L293.729 225.65L293.739 225.68Z" fill="white"/>
</g>
<g style="mix-blend-mode:overlay" opacity="0.4">
<path d="M321.29 142.53C320.78 143.22 320.29 143.91 319.82 144.62L129.37 10.2201L127.84 0.860107L321.29 142.53Z" fill="#1F1E21"/>
</g>
<rect x="19" y="76" width="44" height="44" rx="22" fill="white"/>
<g clip-path="url(#clip0_1768_19768)">
<path d="M48 90H46.9C46.6679 88.8714 46.0538 87.8573 45.1613 87.1287C44.2687 86.4001 43.1522 86.0015 42 86H40C38.8478 86.0015 37.7313 86.4001 36.8387 87.1287C35.9462 87.8573 35.3321 88.8714 35.1 90H34C32.6744 90.0016 31.4036 90.5289 30.4662 91.4662C29.5289 92.4036 29.0016 93.6744 29 95V98H53V95C52.9984 93.6744 52.4711 92.4036 51.5338 91.4662C50.5964 90.5289 49.3256 90.0016 48 90ZM37.184 90C37.3901 89.4171 37.7712 88.9121 38.2753 88.5541C38.7794 88.1961 39.3817 88.0026 40 88H42C42.6183 88.0026 43.2206 88.1961 43.7247 88.5541C44.2288 88.9121 44.6099 89.4171 44.816 90H37.184Z" fill="#855297"/>
<path d="M42 101C42 101.265 41.8946 101.52 41.7071 101.707C41.5196 101.895 41.2652 102 41 102C40.7348 102 40.4804 101.895 40.2929 101.707C40.1054 101.52 40 101.265 40 101V100H29V105C29.0016 106.326 29.5289 107.596 30.4662 108.534C31.4036 109.471 32.6744 109.998 34 110H48C49.3256 109.998 50.5964 109.471 51.5338 108.534C52.4711 107.596 52.9984 106.326 53 105V100H42V101Z" fill="#855297"/>
</g>
<path d="M249.966 157.096V152.744H260.308V188.84H255.393V157.096H249.966Z" fill="black"/>
<defs>
<clipPath id="clip0_1768_19768">
<rect width="24" height="24" fill="white" transform="translate(29 86)"/>
</clipPath>
</defs>
</svg>
