<svg width="322" height="228" viewBox="0 0 322 228" fill="none" xmlns="http://www.w3.org/2000/svg">
<path d="M267.686 210.317L267.576 210.277C267.846 216.017 267.976 221.767 267.976 227.577H28.2562C28.2562 226.707 28.2563 225.867 28.2363 224.997C27.7063 194.587 17.9662 166.437 1.64624 143.197C1.17624 142.487 0.66625 141.797 0.15625 141.107L194.136 0.177246C197.516 4.84725 200.806 9.55725 203.986 14.3873L204.006 14.3472L303.186 64.8873C311.636 69.1973 317.546 76.5172 320.266 84.8972C322.996 93.2572 322.536 102.687 318.216 111.157L267.676 210.337L267.686 210.317Z" fill="#A9D55A"/>
<g style="mix-blend-mode:overlay" opacity="0.7">
<path d="M318.228 111.137C322.538 102.667 323.008 93.2372 320.278 84.8772C317.568 76.4972 311.648 69.1772 303.198 64.8672L204.018 14.3272L203.998 14.3672C200.818 9.54723 197.528 4.82723 194.148 0.157227L0.167969 141.087C0.677969 141.777 1.18796 142.467 1.65796 143.177L187.108 13.3572C190.158 11.2272 194.378 11.9972 196.448 15.0672C197.138 16.0672 197.778 17.0472 198.428 18.0272L207.098 23.3672L300.188 70.8072C306.768 74.1672 311.658 79.8972 313.948 86.9272C316.238 93.9772 315.658 101.487 312.298 108.097L264.478 201.917L260.788 206.877L260.918 210.587C261.048 213.677 261.158 216.837 261.228 219.967C261.228 220.277 261.248 220.567 261.248 220.877L261.288 220.917L267.978 227.547C267.978 221.747 267.848 215.987 267.578 210.247L267.688 210.287L318.228 111.107V111.137Z" fill="white"/>
</g>
<g style="mix-blend-mode:overlay" opacity="0.4">
<path d="M267.978 227.577H28.2582C28.2582 226.707 28.2583 225.867 28.2383 224.997L261.238 220.907L261.278 220.947L267.968 227.577H267.978Z" fill="#1F1E21"/>
</g>
<path d="M44.6619 152.444H66.9339V156.54H48.9627V168.214C50.4987 166.115 53.7755 164.476 57.4107 164.476C66.4219 164.476 69.2891 170.979 69.2891 176.713C69.2891 183.881 65.2955 189.616 56.6427 189.616C49.2699 189.616 44.8155 185.468 43.8939 179.478H48.4507C49.3211 183.369 52.3419 185.673 56.6939 185.673C62.3259 185.673 64.8347 181.884 64.8347 176.816C64.8347 171.542 62.1211 168.47 56.7451 168.47C53.0075 168.47 50.2939 170.416 49.0651 173.334H44.6619V152.444Z" fill="white"/>
<rect x="259.156" y="77.1572" width="44" height="44" rx="22" fill="white"/>
<g clip-path="url(#clip0_3814_3106)">
<path d="M285.156 87.1572H277.156C274.399 87.1572 272.156 89.4002 272.156 92.1572V106.157C272.156 108.914 274.399 111.157 277.156 111.157H278.156C278.708 111.157 279.156 110.709 279.156 110.157V105.157H278.156C277.604 105.157 277.156 104.709 277.156 104.157C277.156 103.605 277.604 103.157 278.156 103.157H284.156C284.708 103.157 285.156 103.605 285.156 104.157C285.156 104.709 284.708 105.157 284.156 105.157H283.156V110.157C283.156 110.709 283.604 111.157 284.156 111.157H285.156C287.913 111.157 290.156 108.914 290.156 106.157V92.1572C290.156 89.4002 287.913 87.1572 285.156 87.1572ZM279.156 101.157H278.156C277.604 101.157 277.156 100.709 277.156 100.157C277.156 99.6052 277.604 99.1572 278.156 99.1572H279.156C279.708 99.1572 280.156 99.6052 280.156 100.157C280.156 100.709 279.708 101.157 279.156 101.157ZM279.156 97.1572H278.156C277.604 97.1572 277.156 96.7092 277.156 96.1572C277.156 95.6052 277.604 95.1572 278.156 95.1572H279.156C279.708 95.1572 280.156 95.6052 280.156 96.1572C280.156 96.7092 279.708 97.1572 279.156 97.1572ZM279.156 93.1572H278.156C277.604 93.1572 277.156 92.7092 277.156 92.1572C277.156 91.6052 277.604 91.1572 278.156 91.1572H279.156C279.708 91.1572 280.156 91.6052 280.156 92.1572C280.156 92.7092 279.708 93.1572 279.156 93.1572ZM284.156 101.157H283.156C282.604 101.157 282.156 100.709 282.156 100.157C282.156 99.6052 282.604 99.1572 283.156 99.1572H284.156C284.708 99.1572 285.156 99.6052 285.156 100.157C285.156 100.709 284.708 101.157 284.156 101.157ZM284.156 97.1572H283.156C282.604 97.1572 282.156 96.7092 282.156 96.1572C282.156 95.6052 282.604 95.1572 283.156 95.1572H284.156C284.708 95.1572 285.156 95.6052 285.156 96.1572C285.156 96.7092 284.708 97.1572 284.156 97.1572ZM284.156 93.1572H283.156C282.604 93.1572 282.156 92.7092 282.156 92.1572C282.156 91.6052 282.604 91.1572 283.156 91.1572H284.156C284.708 91.1572 285.156 91.6052 285.156 92.1572C285.156 92.7092 284.708 93.1572 284.156 93.1572Z" fill="#A9D55A"/>
</g>
<defs>
<clipPath id="clip0_3814_3106">
<rect width="24" height="24" fill="white" transform="translate(269.156 87.1572)"/>
</clipPath>
</defs>
</svg>
