<svg width="240" height="322" viewBox="0 0 240 322" fill="none" xmlns="http://www.w3.org/2000/svg">
<path d="M239.314 93.8872L165.214 321.977C164.394 321.687 163.564 321.447 162.744 321.197C149.134 317.037 134.684 314.797 119.724 314.797C104.764 314.797 90.3341 317.047 76.7241 321.197C75.9041 321.417 75.1041 321.687 74.3041 321.957C74.2841 321.957 74.2841 321.977 74.2841 321.977L0.164062 93.8872C5.63406 92.1072 11.1441 90.4672 16.7041 88.9272L95.4041 10.2272C102.144 3.51723 110.924 0.157227 119.724 0.157227C128.524 0.157227 137.334 3.51723 144.074 10.2272L222.774 88.9272C228.334 90.4572 233.844 92.1272 239.314 93.8872Z" fill="#EB3F3D"/>
<path d="M104.228 259.458C104.689 253.109 109.502 249.423 116.363 249.423C123.582 249.423 127.524 253.621 127.524 258.946C127.524 263.196 124.862 266.524 120.971 267.394V267.65C125.271 268.674 128.19 271.848 128.19 277.173C128.19 282.908 124.196 287.413 116.465 287.413C109.451 287.413 104.228 283.676 103.665 276.508H108.171C108.631 280.45 111.499 283.471 116.414 283.471C121.38 283.471 123.735 280.552 123.735 276.764C123.735 271.541 120.1 269.544 113.444 269.544H112.267V265.653H113.495C119.691 265.602 123.019 263.708 123.019 259.407C123.019 255.874 120.663 253.416 116.209 253.416C111.857 253.416 109.246 255.874 108.785 259.458H104.228Z" fill="white"/>
<g style="mix-blend-mode:overlay" opacity="0.7">
<path d="M230.246 100.227H230.286L230.886 98.2472L230.246 100.227ZM222.776 88.9372L144.066 10.2272C137.326 3.51723 128.526 0.157227 119.716 0.157227C110.906 0.157227 102.126 3.51723 95.3963 10.2272L16.6963 88.9272C11.1363 90.4572 5.62625 92.1072 0.15625 93.8872L74.2763 321.977C74.2763 321.977 74.2763 321.957 74.2963 321.957C75.0963 321.687 75.8962 321.427 76.7162 321.197L10.5463 104.697C9.43626 101.117 11.5063 97.3372 15.1063 96.3172C16.2163 96.0072 17.3262 95.6972 18.4662 95.3872L20.1562 94.8972L100.116 14.9472C105.366 9.72723 112.346 6.82723 119.726 6.82723C127.106 6.82723 134.106 9.71723 139.356 14.9672L219.306 94.8972L220.996 95.3872C224.216 96.2772 227.486 97.2072 230.886 98.2572L239.316 93.8972C233.846 92.1372 228.336 90.4772 222.776 88.9372ZM230.246 100.227H230.286L230.886 98.2472L230.246 100.227Z" fill="#EFEEE1"/>
</g>
<g style="mix-blend-mode:overlay" opacity="0.4">
<path d="M239.316 93.8872L165.216 321.977C164.396 321.687 163.566 321.447 162.746 321.197L230.286 100.227L230.886 98.2472L239.316 93.8872Z" fill="#1F1E21"/>
</g>
<rect x="98.1562" y="18.1572" width="44" height="44" rx="22" fill="white"/>
<g clip-path="url(#clip0_3814_3081)">
<path d="M114.024 43.7403C112.97 42.7661 112.165 41.5522 111.679 40.2012C111.193 38.8503 111.039 37.4021 111.231 35.9793C111.421 34.5365 111.958 33.1614 112.796 31.9716C113.634 30.7818 114.747 29.813 116.042 29.148C117.336 28.4831 118.773 28.142 120.228 28.1539C121.683 28.1657 123.113 28.5303 124.397 29.2162C125.68 29.9022 126.778 30.8891 127.596 32.0924C128.415 33.2956 128.929 34.6794 129.095 36.125C129.262 37.5707 129.075 39.0351 128.551 40.3928C128.027 41.7504 127.182 42.9608 126.088 43.9203C125.384 44.526 124.837 45.2936 124.494 46.1573H121.156V38.9733C121.739 38.7672 122.244 38.386 122.602 37.882C122.96 37.3779 123.154 36.7755 123.156 36.1573C123.156 35.8921 123.051 35.6377 122.863 35.4502C122.676 35.2626 122.421 35.1573 122.156 35.1573C121.891 35.1573 121.637 35.2626 121.449 35.4502C121.262 35.6377 121.156 35.8921 121.156 36.1573C121.156 36.4225 121.051 36.6768 120.863 36.8644C120.676 37.0519 120.421 37.1573 120.156 37.1573C119.891 37.1573 119.637 37.0519 119.449 36.8644C119.262 36.6768 119.156 36.4225 119.156 36.1573C119.156 35.8921 119.051 35.6377 118.863 35.4502C118.676 35.2626 118.421 35.1573 118.156 35.1573C117.891 35.1573 117.637 35.2626 117.449 35.4502C117.262 35.6377 117.156 35.8921 117.156 36.1573C117.159 36.7755 117.352 37.3779 117.71 37.882C118.068 38.386 118.573 38.7672 119.156 38.9733V46.1573H115.719C115.337 45.2378 114.758 44.4129 114.024 43.7403ZM116.156 48.1573V48.4673C116.157 49.4456 116.546 50.3836 117.238 51.0753C117.93 51.7671 118.868 52.1562 119.846 52.1573H120.466C121.445 52.1562 122.382 51.7671 123.074 51.0753C123.766 50.3836 124.155 49.4456 124.156 48.4673V48.1573H116.156Z" fill="#EB3F3D"/>
</g>
<defs>
<clipPath id="clip0_3814_3081">
<rect width="24" height="24" fill="white" transform="translate(108.156 28.1572)"/>
</clipPath>
</defs>
</svg>
