<svg width="268" height="295" viewBox="0 0 268 295" fill="none" xmlns="http://www.w3.org/2000/svg">
<path d="M267.53 153.448L73.55 294.378C73.06 293.668 72.55 292.998 72.02 292.308C54.57 269.168 30.42 251.328 2.45001 241.728C1.65001 241.438 0.83 241.148 0 240.908L74.1 12.8184C79.59 14.6184 85.02 16.5084 90.4 18.5284L200.34 1.1184C209.72 -0.3716 218.82 2.0984 225.93 7.2784C233.07 12.4384 238.2 20.3284 239.69 29.7084L257.1 139.648L257.01 139.668C260.61 144.178 264.13 148.758 267.53 153.428V153.448Z" fill="#C9A036"/>
<path d="M50.5872 237.395V233.504L69.1216 209.337H74.1392V233.35H79.464V237.395H74.1392V245.689H69.4288V237.395H50.5872ZM69.736 215.02L55.5024 233.35H69.736V215.02Z" fill="white"/>
<rect x="180" y="19" width="44" height="44" rx="22" fill="white"/>
<g clip-path="url(#clip0_1768_19496)">
<path d="M190.291 37.5521C190.075 37.1524 189.975 36.7006 190.002 36.2473C190.029 35.794 190.182 35.3573 190.444 34.9861C190.871 34.3592 191.443 33.8446 192.112 33.4861L199.613 29.5821C200.35 29.1987 201.169 28.9985 202 28.9985C202.831 28.9985 203.649 29.1987 204.387 29.5821L211.887 33.4891C212.555 33.8476 213.127 34.3622 213.555 34.9891C213.816 35.3603 213.969 35.797 213.996 36.2503C214.023 36.7036 213.923 37.1554 213.708 37.5551C213.476 37.9939 213.128 38.3607 212.702 38.6154C212.276 38.8702 211.788 39.0033 211.292 39.0001H192.708C192.211 39.0032 191.723 38.8698 191.296 38.6144C190.87 38.3591 190.522 37.9916 190.291 37.5521ZM213 51.0001C213 50.4696 212.789 49.9609 212.414 49.5858C212.039 49.2108 211.53 49.0001 211 49.0001V41.0001H209V49.0001H206V41.0001H204V49.0001H200V41.0001H198V49.0001H195V41.0001H193V49.0001C192.469 49.0001 191.961 49.2108 191.585 49.5858C191.21 49.9609 191 50.4696 191 51.0001C190.734 51.0001 190.48 51.1054 190.293 51.2929C190.105 51.4805 190 51.7348 190 52.0001C190 52.2653 190.105 52.5196 190.293 52.7072C190.48 52.8947 190.734 53.0001 191 53.0001H213C213.265 53.0001 213.519 52.8947 213.707 52.7072C213.894 52.5196 214 52.2653 214 52.0001C214 51.7348 213.894 51.4805 213.707 51.2929C213.519 51.1054 213.265 51.0001 213 51.0001Z" fill="#F2C141"/>
</g>
<g style="mix-blend-mode:overlay" opacity="0.7">
<path d="M257.01 139.688L257.1 139.668L239.69 29.7284C238.2 20.3484 233.06 12.4484 225.93 7.29842C218.82 2.11842 209.72 -0.35158 200.34 1.13842L90.4 18.5484C85.02 16.5284 79.6 14.6384 74.1 12.8384L0 240.928C0.82 241.168 1.65001 241.458 2.45001 241.748L76.18 27.6884C77.4 24.1484 81.27 22.3084 84.76 23.5784C85.87 23.9784 86.96 24.3984 88.05 24.7984L89.72 25.4184L201.4 7.73842C202.85 7.49842 204.31 7.37842 205.78 7.37842C211.63 7.37842 217.25 9.22842 222.01 12.6884C228.01 17.0284 231.95 23.4484 233.13 30.7684L249.56 134.618L250.25 141.888L251.81 143.868C254.06 146.648 256.15 149.338 258.15 152.008L258.17 152.028L267.55 153.448C264.15 148.778 260.64 144.198 257.03 139.688H257.01Z" fill="white"/>
</g>
<g style="mix-blend-mode:overlay" opacity="0.4">
<path d="M267.53 153.448L73.5496 294.378C73.0596 293.668 72.5495 292.998 72.0195 292.308L250.97 157.438L258.15 152.018L267.53 153.438V153.448Z" fill="#1F1E21"/>
</g>
<defs>
<clipPath id="clip0_1768_19496">
<rect width="24" height="24" fill="white" transform="translate(190 29)"/>
</clipPath>
</defs>
</svg>
