<svg width="322" height="228" viewBox="0 0 322 228" fill="none" xmlns="http://www.w3.org/2000/svg">
<path d="M321.829 141.37C321.629 141.61 321.449 141.86 321.299 142.1C320.789 142.79 320.299 143.48 319.829 144.19C303.819 167.29 294.259 195.17 293.749 225.25C293.729 226.12 293.729 226.96 293.729 227.83H53.9786C53.9786 222.03 54.1086 216.27 54.3786 210.53L54.2886 210.57L3.7586 111.4C-0.551402 102.93 -1.0414 93.4999 1.7086 85.1399C4.3986 76.7599 10.3086 69.4399 18.7786 65.1299L117.959 14.5899L117.979 14.6299C121.159 9.80993 124.449 5.08992 127.829 0.419922L321.809 141.35L321.829 141.37Z" fill="#602874"/>
<g style="mix-blend-mode:overlay" opacity="0.5">
<path d="M293.739 225.26C293.719 226.13 293.719 226.97 293.719 227.84H53.9786C53.9786 222.04 54.1086 216.28 54.3786 210.54L54.2886 210.58L3.7586 111.4C-0.551402 102.93 -1.0414 93.4999 1.7086 85.1399C4.3986 76.7599 10.3086 69.4399 18.7786 65.1299L117.959 14.5899L117.979 14.6299C121.159 9.80993 124.449 5.08992 127.829 0.419922L129.359 9.77992C127.289 12.7399 125.359 15.5399 123.529 18.2899L122.619 19.7799L114.879 23.6499L21.7886 71.0699C15.1886 74.4299 10.2986 80.1599 8.0286 87.2099C5.7186 94.2099 6.2986 101.73 9.6786 108.35L57.2386 201.71L61.0386 210.83C60.9986 211.99 60.9286 213.16 60.8786 214.34C60.7486 218.08 63.6986 221.19 67.4386 221.25L293.729 225.23L293.739 225.26Z" fill="white"/>
</g>
<g style="mix-blend-mode:overlay" opacity="0.4">
<path d="M321.29 142.11C320.78 142.8 320.29 143.49 319.82 144.2L129.37 9.79994L127.84 0.439941L321.29 142.11Z" fill="#1F1E21"/>
</g>
<rect x="19" y="75" width="44" height="44" rx="22" fill="white"/>
<g clip-path="url(#clip0_1768_19757)">
<path d="M48 89H46.9C46.6679 87.8714 46.0538 86.8573 45.1613 86.1287C44.2687 85.4001 43.1522 85.0015 42 85H40C38.8478 85.0015 37.7313 85.4001 36.8387 86.1287C35.9462 86.8573 35.3321 87.8714 35.1 89H34C32.6744 89.0016 31.4036 89.5289 30.4662 90.4662C29.5289 91.4036 29.0016 92.6744 29 94V97H53V94C52.9984 92.6744 52.4711 91.4036 51.5338 90.4662C50.5964 89.5289 49.3256 89.0016 48 89ZM37.184 89C37.3901 88.4171 37.7712 87.9121 38.2753 87.5541C38.7794 87.1961 39.3817 87.0026 40 87H42C42.6183 87.0026 43.2206 87.1961 43.7247 87.5541C44.2288 87.9121 44.6099 88.4171 44.816 89H37.184Z" fill="#855297"/>
<path d="M42 100C42 100.265 41.8946 100.52 41.7071 100.707C41.5196 100.895 41.2652 101 41 101C40.7348 101 40.4804 100.895 40.2929 100.707C40.1054 100.52 40 100.265 40 100V99H29V104C29.0016 105.326 29.5289 106.596 30.4662 107.534C31.4036 108.471 32.6744 108.998 34 109H48C49.3256 108.998 50.5964 108.471 51.5338 107.534C52.4711 106.596 52.9984 105.326 53 104V99H42V100Z" fill="#855297"/>
</g>
<path d="M250.966 156.676V152.324H261.308V188.42H256.393V156.676H250.966Z" fill="white"/>
<defs>
<clipPath id="clip0_1768_19757">
<rect width="24" height="24" fill="white" transform="translate(29 85)"/>
</clipPath>
</defs>
</svg>
