<svg width="322" height="228" viewBox="0 0 322 228" fill="none" xmlns="http://www.w3.org/2000/svg">
<path d="M321.829 140.95C321.629 141.19 321.449 141.44 321.299 141.68C320.789 142.37 320.299 143.06 319.829 143.77C303.819 166.87 294.259 194.75 293.749 224.83C293.729 225.7 293.729 226.54 293.729 227.41H53.9786C53.9786 221.61 54.1086 215.85 54.3786 210.11L54.2886 210.15L3.7586 110.98C-0.551402 102.51 -1.0414 93.08 1.7086 84.72C4.3986 76.34 10.3086 69.02 18.7786 64.71L117.959 14.17L117.979 14.21C121.159 9.39001 124.449 4.67 127.829 0L321.809 140.93L321.829 140.95Z" fill="#855297"/>
<g style="mix-blend-mode:overlay" opacity="0.5">
<path d="M293.739 224.84C293.719 225.71 293.719 226.55 293.719 227.42H53.9786C53.9786 221.62 54.1086 215.86 54.3786 210.12L54.2886 210.16L3.7586 110.98C-0.551402 102.51 -1.0414 93.08 1.7086 84.72C4.3986 76.34 10.3086 69.02 18.7786 64.71L117.959 14.17L117.979 14.21C121.159 9.39001 124.449 4.67 127.829 0L129.359 9.36C127.289 12.32 125.359 15.12 123.529 17.87L122.619 19.36L114.879 23.23L21.7886 70.65C15.1886 74.01 10.2986 79.74 8.0286 86.79C5.7186 93.79 6.2986 101.31 9.6786 107.93L57.2386 201.29L61.0386 210.41C60.9986 211.57 60.9286 212.74 60.8786 213.92C60.7486 217.66 63.6986 220.77 67.4386 220.83L293.729 224.81L293.739 224.84Z" fill="white"/>
</g>
<g style="mix-blend-mode:overlay" opacity="0.4">
<path d="M321.29 141.69C320.78 142.38 320.29 143.07 319.82 143.78L129.37 9.38002L127.84 0.0200195L321.29 141.69Z" fill="#1F1E21"/>
</g>
<rect x="19" y="75" width="44" height="44" rx="22" fill="white"/>
<g clip-path="url(#clip0_3326_5300)">
<path d="M48 89H46.9C46.6679 87.8714 46.0538 86.8573 45.1613 86.1287C44.2687 85.4001 43.1522 85.0015 42 85H40C38.8478 85.0015 37.7313 85.4001 36.8387 86.1287C35.9462 86.8573 35.3321 87.8714 35.1 89H34C32.6744 89.0016 31.4036 89.5289 30.4662 90.4662C29.5289 91.4036 29.0016 92.6744 29 94V97H53V94C52.9984 92.6744 52.4711 91.4036 51.5338 90.4662C50.5964 89.5289 49.3256 89.0016 48 89ZM37.184 89C37.3901 88.4171 37.7712 87.9121 38.2753 87.5541C38.7794 87.1961 39.3817 87.0026 40 87H42C42.6183 87.0026 43.2206 87.1961 43.7247 87.5541C44.2288 87.9121 44.6099 88.4171 44.816 89H37.184Z" fill="#855297"/>
<path d="M42 100C42 100.265 41.8946 100.52 41.7071 100.707C41.5196 100.895 41.2652 101 41 101C40.7348 101 40.4804 100.895 40.2929 100.707C40.1054 100.52 40 100.265 40 100V99H29V104C29.0016 105.326 29.5289 106.596 30.4662 107.534C31.4036 108.471 32.6744 108.998 34 109H48C49.3256 108.998 50.5964 108.471 51.5338 107.534C52.4711 106.596 52.9984 105.326 53 104V99H42V100Z" fill="#855297"/>
</g>
<path d="M251.546 156.652V152.402H261.171V189.42H256.461V156.652H251.546Z" fill="white"/>
<defs>
<clipPath id="clip0_3326_5300">
<rect width="24" height="24" fill="white" transform="translate(29 85)"/>
</clipPath>
</defs>
</svg>
