<svg width="268" height="294" viewBox="0 0 268 294" fill="none" xmlns="http://www.w3.org/2000/svg">
<path d="M267.686 152.916L73.7063 293.846C73.2163 293.136 72.7062 292.466 72.1762 291.776C54.7262 268.636 30.5763 250.796 2.60626 241.196C1.80626 240.906 0.98625 240.616 0.15625 240.376L74.2563 12.2864C79.7463 14.0864 85.1762 15.9764 90.5562 17.9964L200.496 0.586417C209.876 -0.903583 218.976 1.56642 226.086 6.74642C233.226 11.9064 238.356 19.7964 239.846 29.1764L257.256 139.116L257.166 139.136C260.766 143.646 264.286 148.226 267.686 152.896V152.916Z" fill="#F2C141"/>
<path d="M70.1483 245.157V236.914H51.2043V233.381L69.1755 208.498H74.7563V232.869H79.8763V236.914H74.7563V245.157H70.1483ZM56.5803 232.869H70.3531V213.362L56.5803 232.869Z" fill="white"/>
<rect x="180.156" y="18.1572" width="44" height="44" rx="22" fill="white"/>
<g clip-path="url(#clip0_3814_3069)">
<path d="M190.447 36.7093C190.232 36.3096 190.132 35.8578 190.159 35.4045C190.186 34.9513 190.339 34.5145 190.6 34.1433C191.028 33.5164 191.6 33.0018 192.268 32.6433L199.769 28.7393C200.507 28.3559 201.325 28.1558 202.156 28.1558C202.987 28.1558 203.806 28.3559 204.543 28.7393L212.043 32.6463C212.712 33.0048 213.284 33.5194 213.711 34.1463C213.973 34.5175 214.126 34.9543 214.153 35.4075C214.18 35.8608 214.08 36.3126 213.864 36.7123C213.632 37.1511 213.284 37.5179 212.858 37.7727C212.432 38.0275 211.945 38.1605 211.448 38.1573H192.864C192.368 38.1604 191.879 38.027 191.453 37.7716C191.027 37.5163 190.679 37.1488 190.447 36.7093ZM213.156 50.1573C213.156 49.6269 212.946 49.1181 212.571 48.7431C212.196 48.368 211.687 48.1573 211.156 48.1573V40.1573H209.156V48.1573H206.156V40.1573H204.156V48.1573H200.156V40.1573H198.156V48.1573H195.156V40.1573H193.156V48.1573C192.626 48.1573 192.117 48.368 191.742 48.7431C191.367 49.1181 191.156 49.6269 191.156 50.1573C190.891 50.1573 190.637 50.2626 190.449 50.4502C190.262 50.6377 190.156 50.8921 190.156 51.1573C190.156 51.4225 190.262 51.6769 190.449 51.8644C190.637 52.0519 190.891 52.1573 191.156 52.1573H213.156C213.422 52.1573 213.676 52.0519 213.864 51.8644C214.051 51.6769 214.156 51.4225 214.156 51.1573C214.156 50.8921 214.051 50.6377 213.864 50.4502C213.676 50.2626 213.422 50.1573 213.156 50.1573Z" fill="#F2C141"/>
</g>
<g style="mix-blend-mode:overlay" opacity="0.7">
<path d="M257.166 139.156L257.256 139.136L239.846 29.1964C238.356 19.8164 233.216 11.9164 226.086 6.76643C218.976 1.58643 209.876 -0.883562 200.496 0.606438L90.5562 18.0164C85.1762 15.9964 79.7563 14.1064 74.2563 12.3064L0.15625 240.396C0.97625 240.636 1.80626 240.926 2.60626 241.216L76.3363 27.1564C77.5563 23.6164 81.4263 21.7764 84.9163 23.0464C86.0263 23.4464 87.1163 23.8664 88.2063 24.2664L89.8763 24.8864L201.556 7.20644C203.006 6.96644 204.466 6.84644 205.936 6.84644C211.786 6.84644 217.406 8.69643 222.166 12.1564C228.166 16.4964 232.106 22.9164 233.286 30.2364L249.716 134.086L250.406 141.356L251.966 143.336C254.216 146.116 256.306 148.806 258.306 151.476L258.326 151.496L267.706 152.916C264.306 148.246 260.796 143.666 257.186 139.156H257.166Z" fill="white"/>
</g>
<g style="mix-blend-mode:overlay" opacity="0.4">
<path d="M267.686 152.916L73.7058 293.846C73.2158 293.136 72.7058 292.466 72.1758 291.776L251.126 156.906L258.306 151.486L267.686 152.906V152.916Z" fill="#1F1E21"/>
</g>
<defs>
<clipPath id="clip0_3814_3069">
<rect width="24" height="24" fill="white" transform="translate(190.156 28.1572)"/>
</clipPath>
</defs>
</svg>
