<svg width="268" height="294" viewBox="0 0 268 294" fill="none" xmlns="http://www.w3.org/2000/svg">
<path d="M267.706 240.358C266.906 240.598 266.106 240.868 265.306 241.158C237.316 250.758 213.146 268.598 195.676 291.738C195.146 292.428 194.636 293.118 194.146 293.828L0.15625 152.898C3.55625 148.228 7.06625 143.648 10.6763 139.138L10.5863 139.118L27.9962 29.1782C29.4862 19.7982 34.6263 11.8982 41.7563 6.74824C48.8663 1.54824 57.9663 -0.901754 67.3463 0.588246L177.266 17.9982H177.286C182.666 15.9782 188.096 14.0582 193.586 12.2882L267.706 240.378V240.358Z" fill="#C4416B"/>
<g style="mix-blend-mode:overlay" opacity="0.6">
<path d="M195.676 291.738C195.146 292.428 194.636 293.118 194.146 293.828L0.15625 152.898C3.55625 148.228 7.06625 143.648 10.6763 139.138L10.5863 139.118L27.9962 29.1782C29.4862 19.7982 34.6263 11.8982 41.7563 6.74824C48.8663 1.54824 57.9663 -0.901754 67.3463 0.588246L177.266 17.9982H177.286C182.666 15.9782 188.096 14.0582 193.586 12.2882L189.316 20.7582C186.136 21.8682 182.886 23.0282 179.646 24.2482L178.486 24.6682H176.726L66.2962 7.19825C64.8262 6.95825 63.3663 6.83825 61.8963 6.83825C56.0463 6.83825 50.4263 8.65824 45.6663 12.1782C39.6863 16.4882 35.7462 22.9182 34.5762 30.2282L18.1463 134.098L17.6562 136.388L15.8763 143.328C15.1163 144.258 14.3862 145.198 13.6562 146.128C11.3663 149.058 11.9463 153.308 14.9263 155.538L195.676 291.758V291.738Z" fill="#EFEEE1"/>
</g>
<g style="mix-blend-mode:overlay" opacity="0.4">
<path d="M267.734 240.338L267.714 240.358C266.914 240.598 266.114 240.868 265.314 241.158L189.324 20.7381L193.594 12.2681L267.744 240.338H267.734Z" fill="#1F1E21"/>
</g>
<rect x="45.1562" y="16.1572" width="44" height="44" rx="22" fill="white"/>
<g clip-path="url(#clip0_3814_3059)">
<path d="M69.1562 33.1572V26.6172C70.0662 26.9672 70.9062 27.4972 71.6162 28.2072L75.0963 31.6972C75.8062 32.4072 76.3363 33.2472 76.6863 34.1572H70.1462C69.5962 34.1572 69.1462 33.7072 69.1462 33.1572H69.1562ZM73.1562 43.1572C73.1562 40.9472 71.3663 39.1572 69.1562 39.1572C66.9462 39.1572 65.1562 40.9472 65.1562 43.1572C65.1562 44.6372 65.9563 45.9272 67.1562 46.6172V49.4272C67.1562 50.0672 67.9362 50.3872 68.3862 49.9372L69.1562 49.1672L69.9263 49.9372C70.3763 50.3872 71.1562 50.0672 71.1562 49.4272V46.6172C72.3562 45.9272 73.1562 44.6372 73.1562 43.1572ZM77.1362 36.1572H70.1562C68.5063 36.1572 67.1562 34.8072 67.1562 33.1572V26.1772C66.9963 26.1672 66.8363 26.1572 66.6663 26.1572H62.1562C59.3963 26.1572 57.1562 28.3972 57.1562 31.1572V45.1572C57.1562 47.9172 59.3963 50.1572 62.1562 50.1572H65.1562V47.6272C63.9262 46.5272 63.1562 44.9372 63.1562 43.1572C63.1562 39.8472 65.8463 37.1572 69.1562 37.1572C72.4662 37.1572 75.1562 39.8472 75.1562 43.1572C75.1562 44.9372 74.3862 46.5272 73.1562 47.6272V50.0572C75.4363 49.5972 77.1562 47.5772 77.1562 45.1572V36.6472C77.1562 36.4872 77.1462 36.3272 77.1362 36.1572Z" fill="#C4416B"/>
</g>
<path d="M187.478 242.128V238.8C197.206 230.967 206.422 223.594 206.422 216.016C206.422 211.92 204.63 208.848 199.612 208.848C194.799 208.848 192.342 212.176 192.137 216.836H187.631C187.938 208.951 192.905 204.855 199.561 204.855C206.524 204.855 211.03 208.951 211.03 215.812C211.03 225.028 201.097 232.861 194.492 238.237H212.105V242.128H187.478Z" fill="white"/>
<defs>
<clipPath id="clip0_3814_3059">
<rect width="24" height="24" fill="white" transform="translate(55.1562 26.1572)"/>
</clipPath>
</defs>
</svg>
