<svg xmlns="http://www.w3.org/2000/svg" width="18.696" height="16.482" viewBox="0 0 18.696 16.482">
  <g id="Group_19090" data-name="Group 19090" transform="translate(3933 50)">
    <g id="license-line" transform="translate(-3933 -50)">
      <path id="Path_41348" data-name="Path 41348" d="M19.528,6H3.169A1.169,1.169,0,0,0,2,7.169V18.854a1.169,1.169,0,0,0,1.169,1.169h8.764l.333-.409.543-.666-.053-.093H3.169V7.169H19.528v5A4.914,4.914,0,0,1,20.7,13.227V7.169A1.169,1.169,0,0,0,19.528,6Z" transform="translate(-2 -6)" fill="#484848"/>
      <path id="Path_41349" data-name="Path 41349" d="M7,12h9.932v.935H7Z" transform="translate(-4.079 -8.494)" fill="#484848"/>
      <path id="Path_41350" data-name="Path 41350" d="M7,16h6.427v.935H7Z" transform="translate(-4.079 -10.157)" fill="#484848"/>
      <path id="Path_41351" data-name="Path 41351" d="M7,23h5.843v.935H7Z" transform="translate(-4.079 -13.068)" fill="#484848"/>
      <path id="Path_41352" data-name="Path 41352" d="M24.795,17.23a3.716,3.716,0,0,0-2.571,6.427l-1.133,1.385.526,2.109,2.138-2.606a3.657,3.657,0,0,0,2.074,0l2.138,2.606.526-2.109L27.36,23.657a3.716,3.716,0,0,0-2.571-6.427Zm0,6.24a2.518,2.518,0,1,1,2.553-2.518A2.518,2.518,0,0,1,24.795,23.47Z" transform="translate(-9.92 -10.669)" fill="#484848"/>
    </g>
  </g>
</svg>
