<svg xmlns="http://www.w3.org/2000/svg" width="17.447" height="17.446" viewBox="0 0 17.447 17.446">
  <g id="Group_19093" data-name="Group 19093" transform="translate(409.278 -558.17)">
    <path id="Path_41366" data-name="Path 41366" d="M-404.405,558.17h7.7c.188.078.222.233.221.417,0,1.243,0,2.486,0,3.73v.215h4.256c.294,0,.4.1.4.382q0,5.143,0,10.286c0,.278-.1.376-.381.378-.167,0-.334,0-.493,0,0,.569,0,1.108,0,1.646,0,.294-.1.391-.385.391H-408.01c-.294,0-.392-.095-.393-.383,0-.431,0-.863,0-1.294v-.36c-.169,0-.328-.007-.486,0a.368.368,0,0,1-.389-.213V562.736a.419.419,0,0,1,.412-.207c1.346.005,2.691,0,4.037,0h.2v-.214q0-1.865,0-3.73C-404.627,558.4-404.595,558.248-404.405,558.17Zm.373,11.373a1.132,1.132,0,0,1,1.213.436,1.138,1.138,0,0,1-.067,1.476l.541.486.807-.777c-.4-.555-.459-.681-.463-1.059a1.433,1.433,0,0,1,.467-1.092,1.455,1.455,0,0,1,1.875-.071,1.4,1.4,0,0,1,.526.869,1.446,1.446,0,0,1-.443,1.348l.807.784.547-.487a1.137,1.137,0,0,1-.129-1.374,1.149,1.149,0,0,1,1.271-.544V558.761h-6.954ZM-392.424,573v-9.875h-4.048c0,.047-.012.085-.012.124q0,3.278,0,6.556a.42.42,0,0,0,.077.215,1.12,1.12,0,0,1,.13,1.07,3.016,3.016,0,0,1-.221.395,1.815,1.815,0,0,1,.841,1.122l.352-.264a1.167,1.167,0,0,1,.047-1.63,1.152,1.152,0,0,1,1.523-.076,1.109,1.109,0,0,1,.42.68,1.137,1.137,0,0,1-.259.99c.208.226.4.437.6.645a.159.159,0,0,0,.1.047C-392.727,573-392.581,573-392.424,573Zm-16.262-9.875v9.868l.094.008a.566.566,0,0,0,.629-.261,2.155,2.155,0,0,1,.441-.409,1.165,1.165,0,0,1,.042-1.6,1.152,1.152,0,0,1,1.522-.1,1.129,1.129,0,0,1,.43.673,1.185,1.185,0,0,1-.282,1.047l.359.259a1.822,1.822,0,0,1,.852-1.13l-.09-.117a1.153,1.153,0,0,1-.036-1.31.607.607,0,0,0,.1-.31q.008-3.2,0-6.4v-.209Zm9.57,11.91a.311.311,0,0,0,.016-.062c0-.653.02-1.306,0-1.957a1.434,1.434,0,0,0-1.406-1.458,1.415,1.415,0,0,0-1.474,1.285c-.035.685-.02,1.372-.026,2.058a1.253,1.253,0,0,0,.013.134Zm2.924,0c0-.546,0-1.074,0-1.6a4.26,4.26,0,0,0-.025-.628,1.144,1.144,0,0,0-1.3-.946,1.147,1.147,0,0,0-.994,1.174c-.008.63,0,1.26,0,1.89a.773.773,0,0,0,.016.112Zm-6.408,0c0-.727.014-1.437-.006-2.145a1.031,1.031,0,0,0-.545-.872,1.156,1.156,0,0,0-1.762,1c-.012.641,0,1.282,0,1.924a.588.588,0,0,0,.015.094Zm9.305,0c0-.428.014-.836,0-1.243a1.134,1.134,0,0,0-1.047-1.065,1.11,1.11,0,0,0-1.226.913,11.76,11.76,0,0,0-.011,1.395Zm-14.511,0h2.309c0-.392,0-.771,0-1.15a1.292,1.292,0,0,0-.022-.2,1.154,1.154,0,0,0-1.152-.957,1.125,1.125,0,0,0-1.125.963C-407.839,574.12-407.806,574.569-407.806,575.023Zm7.259-4.064a.869.869,0,0,0,.863-.871.878.878,0,0,0-.869-.868.878.878,0,0,0-.871.883A.868.868,0,0,0-400.547,570.959Zm-2.629-.287a.574.574,0,0,0-.57-.576.583.583,0,0,0-.588.58.586.586,0,0,0,.574.578A.578.578,0,0,0-403.176,570.672Zm5.824-.576a.574.574,0,0,0-.581.566.578.578,0,0,0,.573.593.587.587,0,0,0,.585-.585A.583.583,0,0,0-397.352,570.1Zm-9.309.872a.573.573,0,0,0-.577.57.578.578,0,0,0,.578.588.587.587,0,0,0,.581-.572A.583.583,0,0,0-406.661,570.968Zm12.212,0a.583.583,0,0,0-.581.57.588.588,0,0,0,.583.587.577.577,0,0,0,.576-.589A.573.573,0,0,0-394.449,570.968Z" fill="#484848"/>
    <path id="Path_41367" data-name="Path 41367" d="M-260.389,586.578c-.545,0-1.09,0-1.634,0-.309,0-.4-.1-.4-.411q0-1.038,0-2.077c0-.324.095-.421.413-.421h3.251c.31,0,.411.1.411.4q0,1.055,0,2.111c0,.29-.1.391-.387.392C-259.288,586.58-259.838,586.578-260.389,586.578Zm-1.447-.6h2.89v-1.72h-2.89Z" transform="translate(-140.166 -24.338)" fill="#484848"/>
    <path id="Path_41368" data-name="Path 41368" d="M-223.732,737.173h.557v.565h-.557Z" transform="translate(-177.1 -170.854)" fill="#484848"/>
    <path id="Path_41369" data-name="Path 41369" d="M-223.884,763.351v-.562h.565v.562Z" transform="translate(-176.954 -195.304)" fill="#484848"/>
    <path id="Path_41370" data-name="Path 41370" d="M-223.266,660.683v.556h-.563v-.556Z" transform="translate(-177.007 -97.846)" fill="#484848"/>
    <path id="Path_41371" data-name="Path 41371" d="M-223.808,712.265V711.7h.561v.565Z" transform="translate(-177.027 -146.541)" fill="#484848"/>
    <path id="Path_41372" data-name="Path 41372" d="M-223.254,686.279v.559h-.56v-.559Z" transform="translate(-177.021 -122.277)" fill="#484848"/>
    <path id="Path_41373" data-name="Path 41373" d="M-275.019,686.783v-.559h.56v.559Z" transform="translate(-128.147 -122.225)" fill="#484848"/>
    <path id="Path_41374" data-name="Path 41374" d="M-172.732,712.338v-.555h.565v.555Z" transform="translate(-225.778 -146.62)" fill="#484848"/>
    <path id="Path_41375" data-name="Path 41375" d="M-274.359,737.343v.559h-.56v-.559Z" transform="translate(-128.243 -171.017)" fill="#484848"/>
    <path id="Path_41376" data-name="Path 41376" d="M-248.878,737.909h-.56v-.558h.56Z" transform="translate(-152.564 -171.024)" fill="#484848"/>
    <path id="Path_41377" data-name="Path 41377" d="M-198.251,737.808v-.559h.559v.559Z" transform="translate(-201.421 -170.927)" fill="#484848"/>
    <path id="Path_41378" data-name="Path 41378" d="M-172.692,737.8v-.56h.56v.56Z" transform="translate(-225.816 -170.918)" fill="#484848"/>
    <path id="Path_41379" data-name="Path 41379" d="M-274.445,763.4h-.561v-.558h.561Z" transform="translate(-128.16 -195.35)" fill="#484848"/>
    <path id="Path_41380" data-name="Path 41380" d="M-249.41,762.719h.558v.562h-.558Z" transform="translate(-152.59 -195.237)" fill="#484848"/>
    <path id="Path_41381" data-name="Path 41381" d="M-198.255,763.386v-.557h.561v.557Z" transform="translate(-201.417 -195.342)" fill="#484848"/>
    <path id="Path_41382" data-name="Path 41382" d="M-172.032,762.791v.555h-.564v-.555Z" transform="translate(-225.908 -195.306)" fill="#484848"/>
    <path id="Path_41383" data-name="Path 41383" d="M-248.757,711.79v.558h-.559v-.558Z" transform="translate(-152.68 -146.627)" fill="#484848"/>
    <path id="Path_41384" data-name="Path 41384" d="M-198.222,712.364v-.555h.562v.555Z" transform="translate(-201.448 -146.645)" fill="#484848"/>
    <path id="Path_41385" data-name="Path 41385" d="M-275.008,712.3v-.559h.559v.559Z" transform="translate(-128.158 -146.585)" fill="#484848"/>
    <path id="Path_41386" data-name="Path 41386" d="M-172.078,686.277v.554h-.565v-.554Z" transform="translate(-225.863 -122.275)" fill="#484848"/>
    <path id="Path_41387" data-name="Path 41387" d="M-249.2,660.057v.559c-.164,0-.326,0-.487,0-.029,0-.057-.05-.083-.079-.006-.006,0-.022,0-.033C-249.807,660.022-249.727,659.959-249.2,660.057Z" transform="translate(-152.237 -97.211)" fill="#484848"/>
    <path id="Path_41388" data-name="Path 41388" d="M-197.621,661.289h-.557v-.557h.557Z" transform="translate(-201.49 -97.893)" fill="#484848"/>
    <path id="Path_41389" data-name="Path 41389" d="M-248.821,686.864h-.558v-.557h.558Z" transform="translate(-152.62 -122.304)" fill="#484848"/>
    <path id="Path_41390" data-name="Path 41390" d="M-198.257,686.784v-.558h.564v.558Z" transform="translate(-201.415 -122.227)" fill="#484848"/>
    <path id="Path_41391" data-name="Path 41391" d="M-108.252,709.942h-.558v-4.636h.558Z" transform="translate(-286.79 -140.438)" fill="#484848"/>
    <path id="Path_41392" data-name="Path 41392" d="M-69.953,709.957h-.559v-4.635h.559Z" transform="translate(-323.345 -140.453)" fill="#484848"/>
    <path id="Path_41393" data-name="Path 41393" d="M-376.43,709.964h-.558v-4.638h.558Z" transform="translate(-30.82 -140.457)" fill="#484848"/>
    <path id="Path_41394" data-name="Path 41394" d="M-338.169,709.909h-.555V705.27h.555Z" transform="translate(-67.342 -140.404)" fill="#484848"/>
  </g>
</svg>
