<svg xmlns="http://www.w3.org/2000/svg" width="20.975" height="19.25" viewBox="0 0 20.975 19.25">
  <g id="dashboard-outline-badged" transform="translate(-1.494 -1)">
    <path id="Path_41324" data-name="Path 41324" d="M15.519,16.308a1.878,1.878,0,1,0,3.024.532L22.249,13.2l-.883-.883-3.7,3.637a1.878,1.878,0,0,0-2.147.351Z" transform="translate(-5.038 -4.233)" fill="#484848"/>
    <path id="Path_41325" data-name="Path 41325" d="M20.954,9.729a4.664,4.664,0,0,1-1.29.275,9.015,9.015,0,0,1,1.208,4.025h-2.21v1.252h2.21a9.033,9.033,0,0,1-1.947,4.908H4.728a9.033,9.033,0,0,1-1.947-4.908h2.16V14.029H2.781a9.021,9.021,0,0,1,2.16-5.371l1.534,1.534.883-.883L5.836,7.769A9.021,9.021,0,0,1,11.2,5.528V7.719h1.252V5.534a9.021,9.021,0,0,1,2.241.438,4.708,4.708,0,0,1-.05-.626,4.708,4.708,0,0,1,.056-.682A10.323,10.323,0,0,0,3.939,21.247l.188.219h15.4l.188-.219A10.3,10.3,0,0,0,20.967,9.754Z" transform="translate(0 -1.216)" fill="#484848"/>
    <path id="Path_41326" data-name="Path 41326" d="M31.26,4.13A3.13,3.13,0,1,1,28.13,1,3.13,3.13,0,0,1,31.26,4.13Z" transform="translate(-8.791)" fill="#484848"/>
  </g>
</svg>
