<svg id="dashboard-outline-badged" xmlns="http://www.w3.org/2000/svg" width="21.325" height="21.33" viewBox="0 0 21.325 21.33">
  <g id="Group_19089" data-name="Group 19089" transform="translate(546.721 -237.767)">
    <path id="Path_41338" data-name="Path 41338" d="M-529.469,254.364a.427.427,0,0,0-.421.429c0,.048,0,.1,0,.146v2.728c0,.471-.125.6-.589.6h-14.828c-.451,0-.58-.13-.58-.586V239.183c0-.453.13-.583.582-.583h14.828c.456,0,.586.128.586.579q0,2.135,0,4.27c0,.316.168.517.421.513s.411-.2.411-.5q0-2.2,0-4.395a1.272,1.272,0,0,0-.535-1.073,2.651,2.651,0,0,0-.506-.226H-545.68a1.138,1.138,0,0,0-1.042,1.042v19.247c.345.852.631,1.042,1.571,1.042h14.662a2.833,2.833,0,0,0,.291-.009,1.207,1.207,0,0,0,1.125-1.14c.028-1.054.015-2.11.01-3.165A.409.409,0,0,0-529.469,254.364Z" fill="#484848"/>
    <path id="Path_41339" data-name="Path 41339" d="M-301.849,337.506a1.747,1.747,0,0,0-1.618.974q-2.484,4.308-4.974,8.614a1.79,1.79,0,0,0-.3.85c-.008.263-.056.523-.085.786q-.118,1.065-.235,2.129a.439.439,0,0,0,.134.416.418.418,0,0,0,.569-.017q1.284-.94,2.564-1.885a.841.841,0,0,0,.229-.265q2.574-4.461,5.148-8.921a1.841,1.841,0,0,0,.27-.9A1.735,1.735,0,0,0-301.849,337.506Zm-6.285,12.557c.066-.586.127-1.136.193-1.723l1.206.693Zm6.138-8.8q-2.025,3.507-4.047,7.016c-.07.122-.119.128-.232.062q-.642-.383-1.295-.747c-.112-.063-.141-.105-.069-.229q2.026-3.495,4.041-7c.07-.123.119-.142.245-.066.426.258.861.5,1.292.753.046.027.1.04.127.1Z" transform="translate(-225.254 -94.533)" fill="#484848"/>
    <path id="Path_41340" data-name="Path 41340" d="M-443.266,284.695a3.844,3.844,0,0,0-3.838-3.815,3.845,3.845,0,0,0-3.826,3.828,3.844,3.844,0,0,0,3.839,3.836A3.844,3.844,0,0,0-443.266,284.695Zm-2.125,2.479a3.143,3.143,0,0,1-1.715.541,3.135,3.135,0,0,1-1.695-.54c-.1-.067-.086-.108-.033-.192a2.088,2.088,0,0,1,3.471,0C-445.312,287.061-445.288,287.1-445.391,287.173Zm-1.035-2.759a1.986,1.986,0,0,1-.021.269.668.668,0,0,1-.638.528.65.65,0,0,1-.646-.486,1.185,1.185,0,0,1,0-.616.64.64,0,0,1,.719-.49.659.659,0,0,1,.583.628c0,.055,0,.111,0,.166Zm.616,1.1c-.136-.065-.054-.123-.014-.189a1.892,1.892,0,0,0-.065-1.932,1.49,1.49,0,0,0-1.581-.567,1.485,1.485,0,0,0-1.121,1.364,1.723,1.723,0,0,0,.248,1.175c.06.086.025.114-.051.152a2.774,2.774,0,0,0-1.04.873c-.1.137-.125.019-.165-.042A2.992,2.992,0,0,1-447.8,281.8a2.992,2.992,0,0,1,3.68,3.226,3,3,0,0,1-.566,1.462A2.852,2.852,0,0,0-445.81,285.517Z" transform="translate(-90.791 -40.863)" fill="#484848"/>
    <path id="Path_41341" data-name="Path 41341" d="M-449.459,453.269h-5.659a1.479,1.479,0,0,0-.166,0,.426.426,0,0,0-.4.408.424.424,0,0,0,.407.419c.062.006.125,0,.187,0h4.993c.215,0,.43,0,.645,0,.316,0,.515-.168.511-.421S-449.139,453.271-449.459,453.269Z" transform="translate(-86.288 -204.253)" fill="#484848"/>
    <path id="Path_41342" data-name="Path 41342" d="M-449.572,497.944h-4.889c-.257,0-.513,0-.77,0a.424.424,0,0,0-.442.36c-.042.268.168.471.5.471q1.425,0,2.85,0,1.446,0,2.892,0c.3,0,.5-.165.5-.412s-.193-.415-.492-.42Z" transform="translate(-86.291 -246.596)" fill="#484848"/>
    <path id="Path_41343" data-name="Path 41343" d="M-455.274,543.5c.062.006.125,0,.187,0h5.617c.334,0,.536-.162.532-.421s-.2-.41-.542-.412h-5.638a1.48,1.48,0,0,0-.166,0,.425.425,0,0,0-.4.408A.424.424,0,0,0-455.274,543.5Z" transform="translate(-86.288 -288.984)" fill="#484848"/>
    <path id="Path_41344" data-name="Path 41344" d="M-384.943,588.189q1.039,0,2.078,0c.3,0,.5-.165.5-.411s-.192-.418-.49-.42c-.346,0-.693,0-1.039,0s-.693,0-1.039,0c-.314,0-.514.169-.509.422S-385.245,588.188-384.943,588.189Z" transform="translate(-152.86 -331.343)" fill="#484848"/>
    <path id="Path_41345" data-name="Path 41345" d="M-488.961,453.728a.419.419,0,0,0-.411-.408.433.433,0,0,0-.414.411.432.432,0,0,0,.406.418A.418.418,0,0,0-488.961,453.728Z" transform="translate(-53.964 -204.302)" fill="#484848"/>
    <path id="Path_41346" data-name="Path 41346" d="M-489.349,498.026a.43.43,0,0,0-.437.407.432.432,0,0,0,.4.42.419.419,0,0,0,.421-.4A.418.418,0,0,0-489.349,498.026Z" transform="translate(-53.963 -246.675)" fill="#484848"/>
    <path id="Path_41347" data-name="Path 41347" d="M-489.788,543.116a.432.432,0,0,0,.421.424.419.419,0,0,0,.4-.416.419.419,0,0,0-.405-.413A.433.433,0,0,0-489.788,543.116Z" transform="translate(-53.962 -289.027)" fill="#484848"/>
  </g>
</svg>
