<svg xmlns="http://www.w3.org/2000/svg" width="23.396" height="14.867" viewBox="0 0 23.396 14.867">
  <g id="Group_19094" data-name="Group 19094" transform="translate(-328.976 -54.195)">
    <path id="Path_41395" data-name="Path 41395" d="M352.372,65.509c-.266,0-.532-.011-.8-.011h-4.907a6.447,6.447,0,0,1,.031.714,5.081,5.081,0,0,1-.131,1.148,2.378,2.378,0,0,1-2.35,1.691c-2.376.016-4.753.021-7.129,0a2.443,2.443,0,0,1-2.491-2.562c0-.318,0-.636,0-.983H329a4.684,4.684,0,0,1,3.106-4.769A2.671,2.671,0,0,1,331,58.315a2.563,2.563,0,0,1,.929-1.8,2.67,2.67,0,0,1,3.644.174,2.588,2.588,0,0,1,.742,2.107,2.646,2.646,0,0,1-1.07,1.9l1.553.9a6.273,6.273,0,0,1,2.092-1.124,3.382,3.382,0,0,1-1.622-2.932,3.249,3.249,0,0,1,1.085-2.455,3.381,3.381,0,0,1,4.873.294,3.416,3.416,0,0,1-.819,5.093,6.158,6.158,0,0,1,2.107,1.14l1.571-.925a2.639,2.639,0,0,1-1.066-2.4,2.579,2.579,0,0,1,.919-1.78,2.677,2.677,0,1,1,3.306,4.2c.258.127.522.235.764.38a4.634,4.634,0,0,1,2.323,3.5.747.747,0,0,0,.041.127Zm-11.735,2.8h.457c1.1,0,2.209.012,3.312-.02a1.663,1.663,0,0,0,1.523-1.483,5.312,5.312,0,0,0-7.144-5.5,5.183,5.183,0,0,0-3.4,4.284A4.218,4.218,0,0,0,335.4,67a1.658,1.658,0,0,0,1.742,1.312C338.307,68.314,339.472,68.309,340.637,68.309Zm-.006-8.1a2.637,2.637,0,1,0-2.638-2.626A2.633,2.633,0,0,0,340.631,60.214Zm4.461,1.956a6.475,6.475,0,0,1,1.389,2.458c.018.058.162.11.247.111,1.546.007,3.091,0,4.637,0h.248a3.973,3.973,0,0,0-6.521-2.574Zm-8.9-.007a3.947,3.947,0,0,0-6.472,2.54c.047.023.061.035.074.035,1.621,0,3.242.006,4.863,0,.055,0,.136-.079.161-.14.1-.231.165-.473.26-.7A6.385,6.385,0,0,1,336.191,62.162ZM349.6,58.542a1.929,1.929,0,1,0-1.935,1.933A1.945,1.945,0,0,0,349.6,58.542Zm-14.041-.1a1.922,1.922,0,1,0-1.852,2.018A1.912,1.912,0,0,0,335.563,58.446Z" transform="translate(0 0)" fill="#484848"/>
  </g>
</svg>
