<svg xmlns="http://www.w3.org/2000/svg" width="20.807" height="21.785" viewBox="0 0 20.807 21.785">
  <g id="Group_19091" data-name="Group 19091" transform="translate(425.205 -62.236)">
    <path id="Path_41353" data-name="Path 41353" d="M-410.541,84.022q-1.248-.34-2.5-.68-1.313-.354-2.628-.7a1.758,1.758,0,0,0-.439-.06q-4.1-.005-8.2,0c-.64,0-.906-.264-.906-.9q0-7.268,0-14.535c0-.649.266-.913.918-.913q3.682,0,7.365,0c.164,0,.23-.044.272-.206.224-.871.461-1.739.7-2.606a1.484,1.484,0,0,1,1.943-1.113q4.208,1.124,8.415,2.255a1.488,1.488,0,0,1,1.129,1.939q-2.185,8.168-4.375,16.335a1.592,1.592,0,0,1-1.231,1.187ZM-424.452,66.97V81.841h10.966c.65,0,.914-.266.914-.919q0-6.522,0-13.043c0-.641-.265-.908-.9-.909h-10.978Zm11.421,15.589c.067.023.119.045.172.059q1.118.3,2.237.6a.768.768,0,0,0,1.07-.62q2.183-8.135,4.365-16.271a.764.764,0,0,0-.616-1.054q-4.176-1.121-8.353-2.238a.784.784,0,0,0-1.1.638q-.317,1.18-.63,2.36c-.016.059-.023.119-.036.2h2.57a1.293,1.293,0,0,1,1.1.469,1.252,1.252,0,0,0,.828.475,3.331,3.331,0,0,1,.389.108.3.3,0,0,0,.338-.079c.638-.606,1.284-1.2,1.93-1.8.052-.048.135-.107.193-.1a5.415,5.415,0,0,1,.544.146l-1.368,2.259a2.562,2.562,0,0,1,.358.1,1.184,1.184,0,0,0,1.367-.183c.2-.172.386-.068.591.012-.179.272-.34.531-.517.779a.593.593,0,0,0-.108.436c.03.3.037.6.054.9a.547.547,0,0,1-.556-.347,3.435,3.435,0,0,0-.26-.463c-.028-.047-.063-.109-.108-.122-.337-.1-.678-.188-1.017-.28v2.631a3.479,3.479,0,0,0-.341-.084.356.356,0,0,1-.322-.3c-.239-.823-.5-1.64-.749-2.459-.02-.065-.044-.163-.09-.179-.229-.079-.465-.136-.714-.2v5.718l.754.2-.383,1.43-.378-.089v.277q0,2.692,0,5.384A1.537,1.537,0,0,1-413.032,82.559Z" fill="#484848"/>
    <path id="Path_41354" data-name="Path 41354" d="M-382.412,169.175a4.463,4.463,0,0,1,4.459,4.447,4.468,4.468,0,0,1-4.455,4.473,4.468,4.468,0,0,1-4.46-4.47A4.467,4.467,0,0,1-382.412,169.175Zm-1.074,5.375h2.146c0-.586,0-1.157-.007-1.728,0-.041-.1-.111-.152-.114-.226-.013-.453-.006-.68-.006h-1.308Zm2.907-1.837v1.844h1.746a3.253,3.253,0,0,0,0-1.844Zm-3.669-.009c-.553,0-1.1,0-1.656,0a.138.138,0,0,0-.1.077,3.281,3.281,0,0,0,.02,1.767h1.741Zm2.76,2.614h-1.845a6.241,6.241,0,0,0,.765,1.935.173.173,0,0,0,.308.011A6.133,6.133,0,0,0-381.488,175.318Zm-1.846-3.363h1.844a5.736,5.736,0,0,0-.785-1.968c-.076-.118-.208-.107-.292.029A6.206,6.206,0,0,0-383.334,171.955Zm-.8,3.371H-385.7a3.7,3.7,0,0,0,2.175,1.831Zm5.025-.019c-.534,0-1.022,0-1.509.006-.043,0-.107.077-.124.13-.072.229-.12.467-.2.694-.115.338-.247.671-.381,1.03A3.734,3.734,0,0,0-379.11,175.306Zm-2.186-5.2.616,1.836h1.559A3.7,3.7,0,0,0-381.3,170.111Zm-2.234.023a3.358,3.358,0,0,0-2.129,1.823h1.517Z" transform="translate(-36.106 -100.717)" fill="#484848"/>
    <path id="Path_41355" data-name="Path 41355" d="M-366.4,361.072v.721H-373.8v-.721Z" transform="translate(-48.411 -281.45)" fill="#484848"/>
    <path id="Path_41356" data-name="Path 41356" d="M-193.02,323.4l-.718-.192,1.345-5.021.718.189Z" transform="translate(-218.001 -241.064)" fill="#484848"/>
    <path id="Path_41357" data-name="Path 41357" d="M-163.238,270.463l-.718-.19.384-1.433.715.19Z" transform="translate(-246.05 -194.584)" fill="#484848"/>
    <path id="Path_41358" data-name="Path 41358" d="M-138.957,242.435l-.7-.187.188-.713.7.181Z" transform="translate(-268.932 -168.868)" fill="#484848"/>
    <path id="Path_41359" data-name="Path 41359" d="M-188.147,229.359l.186-.715.7.184-.188.717Z" transform="translate(-223.267 -156.727)" fill="#484848"/>
    <path id="Path_41360" data-name="Path 41360" d="M-163.923,235.816l.188-.712.7.181-.186.717Z" transform="translate(-246.081 -162.811)" fill="#484848"/>
  </g>
</svg>
