<svg xmlns="http://www.w3.org/2000/svg" width="16.731" height="16.991" viewBox="0 0 16.731 16.991">
  <g id="operations-record" transform="translate(-2.731 -2.25)">
    <path id="Path_41361" data-name="Path 41361" d="M22.5,22.5h6.068v1.214H22.5Z" transform="translate(-9.106 -9.327)" fill="#484848"/>
    <path id="Path_41362" data-name="Path 41362" d="M22.5,27h6.068v1.214H22.5Z" transform="translate(-9.106 -11.4)" fill="#484848"/>
    <path id="Path_41363" data-name="Path 41363" d="M22.5,31.5h6.068v1.214H22.5Z" transform="translate(-9.106 -13.473)" fill="#484848"/>
    <path id="Path_41364" data-name="Path 41364" d="M14.891,17.318a2.45,2.45,0,1,1,2.427-2.427h1.214a3.641,3.641,0,1,0-3.641,3.641Z" transform="translate(-3.924 -4.146)" fill="#484848"/>
    <path id="Path_41365" data-name="Path 41365" d="M19.04,7.738,17.608,5.258a1.213,1.213,0,0,0-1.441-.543l-1.477.5a6.7,6.7,0,0,0-.8-.46l-.306-1.529A1.214,1.214,0,0,0,12.4,2.25H9.535a1.214,1.214,0,0,0-1.19.976L8.039,4.754a6.655,6.655,0,0,0-.805.457l-1.469-.5a1.213,1.213,0,0,0-1.439.543L2.894,7.738a1.214,1.214,0,0,0,.249,1.518l1.172,1.03c-.01.153-.023.3-.023.459s.006.311.017.465L3.144,12.235a1.214,1.214,0,0,0-.251,1.518l1.432,2.481a1.213,1.213,0,0,0,1.441.543l1.477-.5a6.659,6.659,0,0,0,.8.461l.305,1.528a1.214,1.214,0,0,0,1.19.975h1.432V18.027H9.535L9.1,15.873a5.519,5.519,0,0,1-1.635-.954l-2.092.708L3.945,13.146,5.6,11.693a5.417,5.417,0,0,1,0-1.9L3.945,8.345l1.432-2.48,2.079.7A5.48,5.48,0,0,1,9.1,5.618l.431-2.154H12.4l.431,2.154a5.521,5.521,0,0,1,1.635.954l2.092-.708,1.432,2.481-1.7,1.488.8.913,1.7-1.489a1.214,1.214,0,0,0,.251-1.518Z" transform="translate(0 0)" fill="#484848"/>
  </g>
</svg>
