<svg width="33" height="33" viewBox="0 0 33 33" fill="none" xmlns="http://www.w3.org/2000/svg">
<path d="M16.0588 32.4656H15.9884C7.18812 32.4656 0.0283203 25.3037 0.0283203 16.5008L0.0283203 16.4304C0.0283203 7.62748 7.18812 0.465576 15.9884 0.465576H16.0588C24.8591 0.465576 32.0189 7.62748 32.0189 16.4304V16.5008C32.0189 25.3037 24.8591 32.4656 16.0588 32.4656ZM15.9884 1.54874C7.78476 1.54874 1.11117 8.2243 1.11117 16.4304V16.5008C1.11117 24.7069 7.78476 31.3824 15.9884 31.3824H16.0588C24.2625 31.3824 30.9361 24.7069 30.9361 16.5008V16.4304C30.9361 8.2243 24.2625 1.54874 16.0588 1.54874H15.9884Z" fill="#383D38"/>
<path d="M6.83871 8.00659L13.966 17.5385L6.79431 25.2885H8.40884L14.6883 18.5036L19.7614 25.2885H25.2547L17.7267 15.2205L24.4025 8.00659H22.788L17.0056 14.2554L12.3331 8.00659H6.83978H6.83871ZM9.21231 9.19591H11.7353L22.8789 24.0992H20.3559L9.21231 9.19591Z" fill="#383D38"/>
</svg>
