<svg width="32" height="33" viewBox="0 0 32 33" fill="none" xmlns="http://www.w3.org/2000/svg">
<path d="M16.0494 32.4656H15.979C7.17872 32.4656 0.0189209 25.3037 0.0189209 16.5008L0.0189209 16.4304C0.0189209 7.62748 7.17872 0.465576 15.979 0.465576H16.0494C24.8497 0.465576 32.0095 7.62748 32.0095 16.4304V16.5008C32.0095 25.3037 24.8497 32.4656 16.0494 32.4656ZM15.979 1.54874C7.77536 1.54874 1.10177 8.2243 1.10177 16.4304V16.5008C1.10177 24.7069 7.77536 31.3824 15.979 31.3824H16.0494C24.2531 31.3824 30.9267 24.7069 30.9267 16.5008V16.4304C30.9267 8.2243 24.2531 1.54874 16.0494 1.54874H15.979Z" fill="url(#paint0_linear_1688_48885)"/>
<path d="M20.7962 7.29736L11.2325 7.29736C8.59037 7.29736 6.44092 9.44745 6.44092 12.0904L6.44092 20.8424C6.44092 23.4853 8.59037 25.6354 11.2325 25.6354H20.7962C23.4384 25.6354 25.5878 23.4853 25.5878 20.8424V12.0904C25.5878 9.44745 23.4384 7.29736 20.7962 7.29736ZM8.13125 12.0904C8.13125 10.3801 9.5227 8.98819 11.2325 8.98819L20.7962 8.98819C22.5061 8.98819 23.8975 10.3801 23.8975 12.0904V20.8424C23.8975 22.5527 22.5061 23.9446 20.7962 23.9446H11.2325C9.5227 23.9446 8.13125 22.5527 8.13125 20.8424L8.13125 12.0904Z" fill="url(#paint1_linear_1688_48885)"/>
<path d="M16.0145 20.9242C18.4715 20.9242 20.4715 18.9247 20.4715 16.4659C20.4715 14.0071 18.4726 12.0076 16.0145 12.0076C13.5564 12.0076 11.5575 14.0071 11.5575 16.4659C11.5575 18.9247 13.5564 20.9242 16.0145 20.9242ZM16.0145 13.6995C17.5402 13.6995 18.7812 14.9408 18.7812 16.467C18.7812 17.9932 17.5402 19.2345 16.0145 19.2345C14.4888 19.2345 13.2478 17.9932 13.2478 16.467C13.2478 14.9408 14.4888 13.6995 16.0145 13.6995Z" fill="url(#paint2_linear_1688_48885)"/>
<path d="M20.8843 12.7272C21.546 12.7272 22.0852 12.1888 22.0852 11.5259C22.0852 10.863 21.547 10.3247 20.8843 10.3247C20.2216 10.3247 19.6835 10.863 19.6835 11.5259C19.6835 12.1888 20.2216 12.7272 20.8843 12.7272Z" fill="url(#paint3_linear_1688_48885)"/>
<defs>
<linearGradient id="paint0_linear_1688_48885" x1="4.69899" y1="27.7841" x2="27.3361" y2="5.15368" gradientUnits="userSpaceOnUse">
<stop stop-color="#FAAD4F"/>
<stop offset="0.35" stop-color="#DD2A7B"/>
<stop offset="0.62" stop-color="#9537B0"/>
<stop offset="1" stop-color="#515BD4"/>
</linearGradient>
<linearGradient id="paint1_linear_1688_48885" x1="8.04895" y1="24.4331" x2="23.9834" y2="8.50438" gradientUnits="userSpaceOnUse">
<stop stop-color="#FAAD4F"/>
<stop offset="0.35" stop-color="#DD2A7B"/>
<stop offset="0.62" stop-color="#9537B0"/>
<stop offset="1" stop-color="#515BD4"/>
</linearGradient>
<linearGradient id="paint2_linear_1688_48885" x1="12.8645" y1="19.6179" x2="19.1653" y2="13.3179" gradientUnits="userSpaceOnUse">
<stop stop-color="#FAAD4F"/>
<stop offset="0.35" stop-color="#DD2A7B"/>
<stop offset="0.62" stop-color="#9537B0"/>
<stop offset="1" stop-color="#515BD4"/>
</linearGradient>
<linearGradient id="paint3_linear_1688_48885" x1="20.0354" y1="12.3751" x2="21.7338" y2="10.6772" gradientUnits="userSpaceOnUse">
<stop stop-color="#FAAD4F"/>
<stop offset="0.35" stop-color="#DD2A7B"/>
<stop offset="0.62" stop-color="#9537B0"/>
<stop offset="1" stop-color="#515BD4"/>
</linearGradient>
</defs>
</svg>
