<svg width="32" height="33" viewBox="0 0 32 33" fill="none" xmlns="http://www.w3.org/2000/svg">
<path d="M16.0048 32.4656C7.18466 32.4656 0.00952148 25.2883 0.00952148 16.4656C0.00952148 7.64281 7.18466 0.465576 16.0048 0.465576C24.825 0.465576 32.0001 7.64281 32.0001 16.4656C32.0001 25.2883 24.825 32.4656 16.0048 32.4656ZM16.0048 1.55172C7.78404 1.55172 1.09535 8.24237 1.09535 16.4656C1.09535 24.6888 7.78404 31.3794 16.0048 31.3794C24.2256 31.3794 30.9143 24.6888 30.9143 16.4656C30.9143 8.24237 24.2256 1.55172 16.0048 1.55172Z" fill="#FF0209"/>
<path d="M25.7348 13.2622C25.6132 12.088 25.3515 10.7901 24.3884 10.108C23.6424 9.57904 22.6619 9.5595 21.7465 9.56058C19.8116 9.56167 17.8756 9.56383 15.9406 9.56492C14.0795 9.56709 12.2184 9.56818 10.3573 9.57036C9.57987 9.57144 8.82413 9.51061 8.10206 9.84731C7.48205 10.1362 6.99669 10.6858 6.7046 11.2973C6.29959 12.1478 6.2149 13.1112 6.16604 14.0518C6.07592 15.7646 6.08569 17.4818 6.19319 19.1936C6.27245 20.4427 6.47332 21.8232 7.43862 22.6193C8.29425 23.3242 9.50169 23.359 10.6114 23.36C14.1338 23.3633 17.6573 23.3666 21.1808 23.3687C21.6325 23.3698 22.1038 23.3611 22.5642 23.3112C23.4698 23.2134 24.333 22.9538 24.915 22.2826C25.5024 21.6059 25.6533 20.6642 25.7424 19.7725C25.9596 17.6089 25.9574 15.4247 25.7348 13.2622ZM13.9036 19.4977V13.4316L19.1547 16.4641L13.9036 19.4977Z" fill="#FF0209"/>
</svg>
