<svg width="33" height="33" viewBox="0 0 33 33" fill="none" xmlns="http://www.w3.org/2000/svg">
<path d="M16.0682 32.4656H15.9978C7.19751 32.4656 0.0377197 25.3037 0.0377197 16.5008V16.4304C0.0377197 7.62748 7.19751 0.465576 15.9978 0.465576H16.0682C24.8685 0.465576 32.0283 7.62748 32.0283 16.4304V16.5008C32.0283 25.3037 24.8685 32.4656 16.0682 32.4656ZM15.9978 1.54874C7.79416 1.54874 1.12057 8.2243 1.12057 16.4304V16.5008C1.12057 24.7068 7.79416 31.3824 15.9978 31.3824H16.0682C24.2719 31.3824 30.9455 24.7068 30.9455 16.5008V16.4304C30.9455 8.2243 24.2719 1.54874 16.0682 1.54874H15.9978Z" fill="#1877F2"/>
<path d="M18.1853 12.8779V16.2454H22.3499L21.6905 20.7817H18.1853V31.2332C17.4825 31.3307 16.7635 31.3816 16.0337 31.3816C15.1912 31.3816 14.3639 31.3144 13.5583 31.1845L13.5583 20.7817H9.71741V16.2454H13.5583V12.1251C13.5583 9.56879 15.6298 7.49561 18.1864 7.49561V7.49776C18.1939 7.49776 18.2004 7.49561 18.208 7.49561H22.351V11.4188H19.6439C18.8393 11.4188 18.1864 12.072 18.1864 12.8768L18.1853 12.8779Z" fill="#1877F2"/>
</svg>
