<svg id="Layer_1" data-name="Layer 1" xmlns="http://www.w3.org/2000/svg" viewBox="0 0 22 22"><defs><style>.cls-1{fill:#494949;}</style></defs><g id="Group_19093" data-name="Group 19093"><path id="Path_41366" data-name="Path 41366" class="cls-1" d="M7.44,2.2h7.7a.39.39,0,0,1,.23.42V6.56h4.25c.3,0,.4.1.4.38V17.23c0,.28-.1.38-.38.38h-.49v1.64c0,.3-.1.4-.39.4H3.84c-.29,0-.39-.1-.39-.39V17.61H3a.38.38,0,0,1-.39-.21V6.77A.42.42,0,0,1,3,6.56H7.22V2.62C7.22,2.43,7.25,2.28,7.44,2.2Zm.38,11.37A1.17,1.17,0,0,1,9,15.49L9.5,16l.81-.78c-.4-.55-.46-.68-.46-1a1.43,1.43,0,0,1,.47-1.1A1.46,1.46,0,0,1,12.19,13a1.43,1.43,0,0,1,.53.87,1.45,1.45,0,0,1-.45,1.35l.81.78.55-.48a1.17,1.17,0,0,1,1.14-1.92V2.79H7.82ZM19.43,17V7.16h-4s0,.08,0,.12v6.56a.4.4,0,0,0,.07.21,1.11,1.11,0,0,1,.13,1.07,2.24,2.24,0,0,1-.22.4,1.8,1.8,0,0,1,.84,1.12l.35-.27a1.18,1.18,0,0,1,.05-1.63,1.16,1.16,0,0,1,1.52-.07,1.09,1.09,0,0,1,.42.68,1.15,1.15,0,0,1-.25,1l.6.64A.12.12,0,0,0,19,17ZM3.16,7.16V17h.1a.57.57,0,0,0,.63-.26,1.91,1.91,0,0,1,.44-.41,1.16,1.16,0,0,1,1.56-1.7A1.17,1.17,0,0,1,6,16.38l.36.26a1.83,1.83,0,0,1,.85-1.13l-.09-.12a1.16,1.16,0,0,1,0-1.31.5.5,0,0,0,.1-.31q0-3.19,0-6.4V7.16Zm9.57,11.91a.19.19,0,0,0,0-.07c0-.65,0-1.3,0-1.95a1.44,1.44,0,0,0-1.41-1.46,1.41,1.41,0,0,0-1.47,1.28c0,.69,0,1.38,0,2.06,0,.05,0,.09,0,.14Zm2.93,0v-1.6a4.43,4.43,0,0,0,0-.63,1.15,1.15,0,0,0-2.29.23c0,.63,0,1.26,0,1.89,0,0,0,.07,0,.11Zm-6.41,0c0-.73,0-1.44,0-2.15a1,1,0,0,0-.54-.87,1.14,1.14,0,0,0-1.59.38,1,1,0,0,0-.17.62c0,.64,0,1.28,0,1.92a.34.34,0,0,0,0,.1Zm9.3,0c0-.43,0-.84,0-1.25a1.13,1.13,0,0,0-1-1.06,1.11,1.11,0,0,0-1.23.91,13.06,13.06,0,0,0,0,1.4ZM4,19.07H6.35V17.92a1.23,1.23,0,0,0,0-.2,1.15,1.15,0,0,0-1.15-1,1.12,1.12,0,0,0-1.13,1c0,.43,0,.88,0,1.33ZM11.3,15a.87.87,0,0,0,.87-.87.89.89,0,0,0-.87-.87.87.87,0,0,0-.87.89.86.86,0,0,0,.87.84Zm-2.63-.29a.58.58,0,0,0-1.15,0h0a.58.58,0,1,0,1.15,0v0Zm5.83-.57a.56.56,0,0,0-.58.56.58.58,0,0,0,.56.6h0a.58.58,0,0,0,.58-.59.57.57,0,0,0-.57-.58ZM5.19,15a.57.57,0,0,0-.58.57h0a.59.59,0,0,0,.57.59h0A.59.59,0,0,0,5.2,15h0ZM17.4,15a.58.58,0,0,0-.58.57.6.6,0,0,0,.58.59.58.58,0,0,0,.58-.58h0a.57.57,0,0,0-.57-.58h0Z"/><path id="Path_41367" data-name="Path 41367" class="cls-1" d="M11.29,6.27H9.66c-.31,0-.4-.1-.4-.41V3.78c0-.32.1-.42.41-.42h3.25c.31,0,.42.1.42.4V5.87c0,.29-.1.39-.39.39Zm-1.44-.6h2.89V4H9.85Z"/><path id="Path_41368" data-name="Path 41368" class="cls-1" d="M11,10.35h.55v.56H11Z"/><path id="Path_41369" data-name="Path 41369" class="cls-1" d="M11,12.08v-.56h.57v.56Z"/><path id="Path_41370" data-name="Path 41370" class="cls-1" d="M11.58,6.87v.55H11V6.87Z"/><path id="Path_41371" data-name="Path 41371" class="cls-1" d="M11,9.75V9.19h.57v.56Z"/><path id="Path_41372" data-name="Path 41372" class="cls-1" d="M11.57,8v.56H11V8Z"/><path id="Path_41373" data-name="Path 41373" class="cls-1" d="M8.68,8.59V8h.56v.56Z"/><path id="Path_41374" data-name="Path 41374" class="cls-1" d="M13.34,9.75V9.19h.56v.56Z"/><path id="Path_41375" data-name="Path 41375" class="cls-1" d="M9.25,10.36v.56H8.69v-.56Z"/><path id="Path_41376" data-name="Path 41376" class="cls-1" d="M10.41,10.92H9.85v-.56h.56Z"/><path id="Path_41377" data-name="Path 41377" class="cls-1" d="M12.18,10.91v-.56h.56v.56Z"/><path id="Path_41378" data-name="Path 41378" class="cls-1" d="M13.34,10.91v-.56h.56v.56Z"/><path id="Path_41379" data-name="Path 41379" class="cls-1" d="M9.24,12.08H8.68v-.56h.56Z"/><path id="Path_41380" data-name="Path 41380" class="cls-1" d="M9.85,11.51h.56v.56H9.85Z"/><path id="Path_41381" data-name="Path 41381" class="cls-1" d="M12.18,12.07v-.55h.56v.55Z"/><path id="Path_41382" data-name="Path 41382" class="cls-1" d="M13.91,11.52v.55h-.56v-.55Z"/><path id="Path_41383" data-name="Path 41383" class="cls-1" d="M10.41,9.19v.56H9.85V9.19Z"/><path id="Path_41384" data-name="Path 41384" class="cls-1" d="M12.18,9.75V9.19h.56v.56Z"/><path id="Path_41385" data-name="Path 41385" class="cls-1" d="M8.68,9.75V9.19h.56v.56Z"/><path id="Path_41386" data-name="Path 41386" class="cls-1" d="M13.91,8v.56h-.57V8Z"/><path id="Path_41387" data-name="Path 41387" class="cls-1" d="M10.41,6.88v.56H9.93s-.06-.05-.09-.08v0C9.81,6.84,9.89,6.78,10.41,6.88Z"/><path id="Path_41388" data-name="Path 41388" class="cls-1" d="M12.74,7.43h-.56V6.87h.56Z"/><path id="Path_41389" data-name="Path 41389" class="cls-1" d="M10.41,8.59H9.85V8h.56Z"/><path id="Path_41390" data-name="Path 41390" class="cls-1" d="M12.18,8.59V8h.56v.56Z"/><path id="Path_41391" data-name="Path 41391" class="cls-1" d="M16.81,13.53h-.56V8.9h.56Z"/><path id="Path_41392" data-name="Path 41392" class="cls-1" d="M18.55,13.53H18V8.9h.56Z"/><path id="Path_41393" data-name="Path 41393" class="cls-1" d="M4.6,13.54H4V8.9H4.6Z"/><path id="Path_41394" data-name="Path 41394" class="cls-1" d="M6.34,13.54H5.78V8.9h.56Z"/></g></svg>