<svg id="Layer_1" data-name="Layer 1" xmlns="http://www.w3.org/2000/svg" viewBox="0 0 22 22"><defs><style>.cls-1{fill:#494849;}</style></defs><path class="cls-1" d="M14.08,9.54a5.7,5.7,0,1,0,5.7,5.69A5.7,5.7,0,0,0,14.08,9.54Zm0,10.25a4.56,4.56,0,1,1,4.56-4.56A4.56,4.56,0,0,1,14.08,19.79Z"/><path class="cls-1" d="M14.62,15l-.34-.08V13.5a.81.81,0,0,1,.77.61h.75a1.44,1.44,0,0,0-1.52-1.22v-.5h-.42v.51a1.38,1.38,0,0,0-1.43,1.32c0,.64.43,1,1.14,1.21l.29.07V17a.87.87,0,0,1-.8-.64H12.3a1.46,1.46,0,0,0,1.56,1.27v.5h.42v-.5c1-.07,1.58-.6,1.58-1.38S15.42,15.14,14.62,15Zm-.76-.18h0c-.42-.1-.65-.3-.65-.6s.25-.58.66-.66Zm.42,2.2V15.6l.06,0c.52.12.75.31.75.65S14.8,16.92,14.28,17Z"/><path class="cls-1" d="M18.64,2.7H2.69A1.14,1.14,0,0,0,1.55,3.84V13a1.14,1.14,0,0,0,1.14,1.13H7.34A6,6,0,0,1,7.63,13H5a2.28,2.28,0,0,0-2.27-2.28V6.12A2.28,2.28,0,0,0,5,3.84h11.4a2.28,2.28,0,0,0,2.28,2.28v4a7.1,7.1,0,0,1,1.14,1.31V3.84A1.14,1.14,0,0,0,18.64,2.7Z"/><path class="cls-1" d="M12.94,8.49V8.4a2.28,2.28,0,1,0-3.57,1.88A6.86,6.86,0,0,1,12.94,8.49Z"/></svg>