<svg id="Layer_1" data-name="Layer 1" xmlns="http://www.w3.org/2000/svg" viewBox="0 0 22 22"><defs><style>.cls-1{fill:#4a484a;}.cls-2{fill:#494849;}</style></defs><path class="cls-1" d="M13.11,10a2.37,2.37,0,1,0,2.38,2.37A2.37,2.37,0,0,0,13.11,10Zm0,4a1.64,1.64,0,1,1,1.65-1.64A1.64,1.64,0,0,1,13.11,14.05Z"/><path class="cls-1" d="M18,11.1,17.75,11a.64.64,0,0,1-.44-.79.75.75,0,0,1,.06-.13l.11-.21A1.37,1.37,0,0,0,15.63,8l-.22.12a.63.63,0,0,1-.86-.25.69.69,0,0,1-.05-.13l-.07-.23a1.33,1.33,0,0,0-1-1,2.17,2.17,0,0,1,0,.26c0,.17,0,.33,0,.49a.61.61,0,0,1,.35.4l.06.24a1.37,1.37,0,0,0,1.7.92.81.81,0,0,0,.27-.11L16,8.69a.63.63,0,0,1,.86.86l-.12.22a1.37,1.37,0,0,0,.55,1.85,1.53,1.53,0,0,0,.27.11l.23.07a.64.64,0,0,1,0,1.22l-.23.07a1.38,1.38,0,0,0-.93,1.7,1.69,1.69,0,0,0,.11.27l.12.21a.64.64,0,0,1-.86.87L15.76,16a1.37,1.37,0,0,0-1.85.55,1.11,1.11,0,0,0-.12.27l-.06.23a.64.64,0,0,1-1.23,0l-.07-.23a1.37,1.37,0,0,0-1.7-.93l-.26.11-.22.12a.64.64,0,0,1-.86-.87l.11-.21A1.37,1.37,0,0,0,9,13.2l-.27-.11L8.46,13a.64.64,0,0,1,0-1.22l.23-.07a1.32,1.32,0,0,0,.52-.29l-.42,0a4.81,4.81,0,0,1-1-.11,1.36,1.36,0,0,0,.47,2.37l.23.07a.66.66,0,0,1,.44.8l-.06.12-.11.21a1.37,1.37,0,0,0,1.85,1.86l.22-.12a.64.64,0,0,1,.86.26.61.61,0,0,1,.05.12l.07.24a1.37,1.37,0,0,0,2.63,0L14.5,17a.64.64,0,0,1,.79-.43l.12.05.22.12a1.37,1.37,0,0,0,1.85-1.86l-.11-.21a.63.63,0,0,1,.25-.86.52.52,0,0,1,.13-.06l.23-.07A1.36,1.36,0,0,0,18,11.1Z"/><path class="cls-2" d="M9.61,6.93l-.24-.06v-1a.57.57,0,0,1,.55.44h.54a1,1,0,0,0-1.09-.89V5.08H9.06v.37a1,1,0,0,0-1,1c0,.46.31.75.83.87l.2,0V8.38a.63.63,0,0,1-.57-.47H7.94c0,.49.43.87,1.12.92v.36h.31V8.83c.72-.05,1.14-.44,1.14-1S10.19,7.07,9.61,6.93ZM9.06,6.8h0c-.31-.07-.47-.21-.47-.43a.5.5,0,0,1,.47-.47Zm.31,1.59v-1h0c.37.09.54.23.54.47S9.74,8.35,9.37,8.39Z"/><path class="cls-2" d="M8.8,2.75a4.11,4.11,0,1,0,4.1,4.11A4.11,4.11,0,0,0,8.8,2.75Zm0,7.4a3.29,3.29,0,1,1,3.28-3.29A3.29,3.29,0,0,1,8.8,10.15Z"/></svg>