<svg id="Layer_1" data-name="Layer 1" xmlns="http://www.w3.org/2000/svg" viewBox="0 0 22 22"><defs><style>.cls-1{fill:#494849;}</style></defs><path class="cls-1" d="M15.57,14.89l-.33-.08V13.45a.81.81,0,0,1,.76.6h.75a1.45,1.45,0,0,0-1.51-1.22v-.5h-.43v.51a1.4,1.4,0,0,0-1.43,1.32c0,.64.43,1.05,1.15,1.22l.28.07V16.9a.88.88,0,0,1-.8-.64h-.76c.06.67.59,1.2,1.56,1.27V18h.43v-.51c1-.07,1.57-.6,1.57-1.37S16.37,15.08,15.57,14.89Zm-.76-.18h0c-.42-.09-.64-.29-.64-.59a.68.68,0,0,1,.65-.66Zm.43,2.2V15.55h.06c.51.12.74.31.74.65S15.75,16.86,15.24,16.91Z"/><path class="cls-1" d="M14.72,9.82a5.7,5.7,0,1,0,5.7,5.69A5.7,5.7,0,0,0,14.72,9.82Zm0,10.25a4.56,4.56,0,1,1,4.56-4.56A4.56,4.56,0,0,1,14.72,20.07Z"/><path class="cls-1" d="M19.28,3h-16A1.14,1.14,0,0,0,2.18,4.12v9.11a1.14,1.14,0,0,0,1.14,1.14H8a6.35,6.35,0,0,1,.29-1.14H5.6A2.28,2.28,0,0,0,3.32,11V6.4A2.28,2.28,0,0,0,5.6,4.12H17A2.28,2.28,0,0,0,19.28,6.4v4a6.79,6.79,0,0,1,1.14,1.31V4.12A1.14,1.14,0,0,0,19.28,3Z"/><path class="cls-1" d="M13.58,8.77V8.68A2.28,2.28,0,1,0,10,10.56,6.83,6.83,0,0,1,13.58,8.77Z"/></svg>