<svg id="Layer_1" data-name="Layer 1" xmlns="http://www.w3.org/2000/svg" viewBox="0 0 22 22"><defs><style>.cls-1{fill:#1b1b1b;}</style></defs><path class="cls-1" d="M18.85,15.27a1.81,1.81,0,0,1-.41.86,1.6,1.6,0,0,1-1.18.56h-2a.22.22,0,0,0-.25.16c-.26.63-.53,1.26-.8,1.89-.1.22-.26.31-.45.24a.33.33,0,0,1-.21-.37,1,1,0,0,1,.05-.16c.31-.71.62-1.41.91-2.13A.42.42,0,0,1,15,16h2.12a1,1,0,0,0,1-.75,1.19,1.19,0,0,0,0-.33v-4.1c0-.4-.17-.67-.51-.73a1,1,0,0,0-1.07.33c-.44.58-.91,1.13-1.35,1.71a.62.62,0,0,1-.53.25c-.44,0-.89,0-1.33,0s-.49.1-.49.5v.16h2.65a.29.29,0,0,0,.26-.13c.25-.35.5-.68.76-1a.34.34,0,0,1,.35-.16.29.29,0,0,1,.26.25.64.64,0,0,1-.1.33c-.26.36-.53.7-.78,1.05a.48.48,0,0,0-.09.26c0,.32,0,.64,0,1s-.13.45-.45.45h-1.1a.65.65,0,0,0-.7.52c-.35,1-.69,2.05-1,3.07a.7.7,0,0,1-.08.2.31.31,0,0,1-.36.15.3.3,0,0,1-.24-.33.65.65,0,0,1,0-.19c.34-1,.69-2.08,1-3.12a1.33,1.33,0,0,1,1.35-1h.84v-.64H6.33v.64c.27,0,.54,0,.81,0a2.11,2.11,0,0,1,.56.09,1.26,1.26,0,0,1,.81.85c.36,1.06.71,2.12,1.06,3.19a.34.34,0,0,1-.19.48c-.19.06-.35,0-.43-.27l0-.06-1-3.07a.67.67,0,0,0-.75-.54H6.08c-.31,0-.44-.13-.44-.43s0-.63,0-.95a.47.47,0,0,0-.12-.32c-.25-.34-.51-.67-.75-1A.54.54,0,0,1,4.67,12a.29.29,0,0,1,.25-.26.34.34,0,0,1,.36.16l.78,1a.25.25,0,0,0,.19.11H8.86L9,13a1.71,1.71,0,0,0,0-.32c0-.22-.14-.31-.39-.32H7.11a.56.56,0,0,1-.49-.24c-.46-.58-.93-1.15-1.38-1.73a1,1,0,0,0-1.09-.32.62.62,0,0,0-.47.57c0,.06,0,.12,0,.18v4.06a1,1,0,0,0,.57,1,1.21,1.21,0,0,0,.54.1c.68,0,1.37,0,2.05,0a.48.48,0,0,1,.5.33c.29.71.6,1.41.9,2.11.12.27,0,.48-.22.53s-.29,0-.38-.24L7,17.35c-.08-.18-.16-.36-.23-.54a.16.16,0,0,0-.18-.12H4.69A1.64,1.64,0,0,1,3,15V10.78A1.28,1.28,0,0,1,4,9.47,1.6,1.6,0,0,1,5.75,10L7,11.63a.26.26,0,0,0,.23.11H8.54A1,1,0,0,1,9.61,12.8v.25h2.63c0-.13,0-.25,0-.37a1,1,0,0,1,.92-.94h0a.14.14,0,0,0,0-.06c0-.68,0-1.37,0-2.06a1.27,1.27,0,0,0-1.16-1.15c-.75,0-1.51,0-2.27,0A1.28,1.28,0,0,0,8.64,9.61c0,.35,0,.71,0,1.06a.39.39,0,0,1-.19.38A.31.31,0,0,1,8,10.82,4.5,4.5,0,0,1,8.1,9,2,2,0,0,1,9.91,7.78c.68,0,1.36,0,2,0a2,2,0,0,1,2,2v1.91a.38.38,0,0,0,0,.1c.26,0,.52,0,.77,0,.05,0,.11-.06.14-.1.43-.54.87-1.07,1.29-1.61a1.67,1.67,0,0,1,2.09-.41,1.29,1.29,0,0,1,.62.85l0,.1Z"/><path class="cls-1" d="M18.85,7.34a2,2,0,0,1-.4.86,1.65,1.65,0,0,1-2.51,0,1.59,1.59,0,0,1-.26-1.7,1.62,1.62,0,0,1,1.4-1,1.66,1.66,0,0,1,1.74,1.31l0,.1Zm-1.64.76a1,1,0,0,0,1-1,1,1,0,1,0-2,0A1,1,0,0,0,17.21,8.1Z"/><path class="cls-1" d="M4.65,8.77A1.65,1.65,0,0,1,3,7.11,1.65,1.65,0,1,1,4.65,8.77Zm0-.67a1,1,0,1,0-1-1A1,1,0,0,0,4.64,8.1Z"/><path class="cls-1" d="M9.28,5.47a1.65,1.65,0,1,1,1.65,1.65A1.65,1.65,0,0,1,9.28,5.47Zm1.64,1a1,1,0,1,0-1-1A1,1,0,0,0,10.92,6.45Z"/><path class="cls-1" d="M11.26,19h-.65V14.39h.65Z"/><path class="cls-1" d="M11.26,9.11v.64h-.65V9.11Z"/></svg>