<svg id="Layer_1" data-name="Layer 1" xmlns="http://www.w3.org/2000/svg" viewBox="0 0 22 22"><defs><style>.cls-1{fill:#fff;}.cls-2{fill:#202020;}</style></defs><path class="cls-1" d="M1.62,1.66H20.38V20.43H1.62ZM8.68,19.8v-.21c0-.51,0-1,0-1.52a.88.88,0,0,1,.87-.9c1,0,2,0,2.94,0a.87.87,0,0,1,.85.72,3.31,3.31,0,0,1,0,.44v1.46h.57a.09.09,0,0,0,0-.05V18.12a.9.9,0,0,1,1-.95h2.78a.9.9,0,0,1,.95.95V19.8h.58V18a1.45,1.45,0,0,0-1.15-1.42c-.14,0-.28,0-.43-.05a1.8,1.8,0,0,0-.13-2.42,1.75,1.75,0,0,0-2.17-.21,1.7,1.7,0,0,0-.78,1.23A1.75,1.75,0,0,0,15,16.59a1.49,1.49,0,0,0-1.32.58,1.55,1.55,0,0,0-1.31-.59A1.76,1.76,0,0,0,10,14a1.68,1.68,0,0,0-.69,1,1.77,1.77,0,0,0,.37,1.64,1.51,1.51,0,0,0-1.29.54,3.62,3.62,0,0,0-.61-.41,3.31,3.31,0,0,0-.69-.17A1.76,1.76,0,0,0,4.67,14,1.7,1.7,0,0,0,4,15a1.74,1.74,0,0,0,.39,1.55H4.3a1.42,1.42,0,0,0-1.45,1.22,7.34,7.34,0,0,0,0,1.05c0,.31,0,.62,0,.93h.58V18.13a.89.89,0,0,1,1-1H7.14a.89.89,0,0,1,1,.95V19.8ZM11,2.25a7.87,7.87,0,0,0-2.36.33A6.14,6.14,0,0,0,5.43,4.69a3.69,3.69,0,0,0-.69,3.44A4.54,4.54,0,0,0,6.47,10.5a6.68,6.68,0,0,0,3,1.25.88.88,0,0,1,.68.46,4.17,4.17,0,0,0,.5.67.54.54,0,0,0,.84,0,2.69,2.69,0,0,0,.3-.37c.13-.19.25-.39.39-.57a.51.51,0,0,1,.23-.15c.2-.05.41-.07.61-.12a6.38,6.38,0,0,0,3.45-2,3.76,3.76,0,0,0,.85-3.78,4.47,4.47,0,0,0-1.7-2.25A7.56,7.56,0,0,0,11,2.25ZM4.57,19.8V18.07H4V19.8Zm2.92,0V18.06H6.93V19.8Zm1.79-1.74v1.73h.56V18.06Zm3.49,0H12.2v1.73h.57Zm1.77,1.73h.56V18.06h-.56Zm3.49,0V18.06h-.56V19.8Z"/><path class="cls-2" d="M8.68,19.8H8.09V18.12a.89.89,0,0,0-1-.95H4.37a.89.89,0,0,0-1,1v1.66H2.83c0-.31,0-.62,0-.93a7.34,7.34,0,0,1,0-1.05A1.42,1.42,0,0,1,4.3,16.59h.13A1.74,1.74,0,0,1,4,15a1.7,1.7,0,0,1,.63-1,1.76,1.76,0,0,1,2.44,2.52,3.31,3.31,0,0,1,.69.17,3.62,3.62,0,0,1,.61.41,1.51,1.51,0,0,1,1.29-.54A1.77,1.77,0,0,1,9.33,15,1.68,1.68,0,0,1,10,14a1.76,1.76,0,0,1,2.32,2.61,1.55,1.55,0,0,1,1.31.59A1.49,1.49,0,0,1,15,16.59a1.75,1.75,0,0,1-.42-1.42,1.7,1.7,0,0,1,.78-1.23,1.75,1.75,0,0,1,2.17.21,1.8,1.8,0,0,1,.13,2.42c.15,0,.29,0,.43.05A1.45,1.45,0,0,1,19.21,18V19.8h-.58V18.12a.9.9,0,0,0-.95-.95H14.9a.9.9,0,0,0-1,.95v1.62a.09.09,0,0,1,0,.05h-.57V18.33a3.31,3.31,0,0,0,0-.44.87.87,0,0,0-.85-.72c-1,0-2,0-2.94,0a.88.88,0,0,0-.87.9c0,.51,0,1,0,1.52ZM6.92,15.43a1.17,1.17,0,0,0-2.34,0,1.17,1.17,0,1,0,2.34,0Zm5.27,0a1.17,1.17,0,1,0-2.34,0,1.17,1.17,0,1,0,2.34,0Zm4.1,1.17a1.19,1.19,0,0,0,1.16-1.17,1.17,1.17,0,0,0-1.17-1.17,1.17,1.17,0,1,0,0,2.34Z"/><path class="cls-2" d="M11,2.25a7.56,7.56,0,0,1,4.55,1.42,4.47,4.47,0,0,1,1.7,2.25,3.76,3.76,0,0,1-.85,3.78,6.38,6.38,0,0,1-3.45,2c-.2.05-.41.07-.61.12a.51.51,0,0,0-.23.15c-.14.18-.26.38-.39.57a2.69,2.69,0,0,1-.3.37.54.54,0,0,1-.84,0,4.17,4.17,0,0,1-.5-.67.88.88,0,0,0-.68-.46A6.68,6.68,0,0,1,6.47,10.5,4.54,4.54,0,0,1,4.74,8.13a3.69,3.69,0,0,1,.69-3.44A6.14,6.14,0,0,1,8.66,2.58,7.87,7.87,0,0,1,11,2.25Zm0,10.24.23-.3c.13-.19.24-.38.38-.56a.89.89,0,0,1,.61-.42,5,5,0,0,0,.77-.15,5.75,5.75,0,0,0,3-1.81,3.22,3.22,0,0,0,.38-3.8,4.35,4.35,0,0,0-1.56-1.57,7.43,7.43,0,0,0-6-.73A5.43,5.43,0,0,0,6,4.89a3.25,3.25,0,0,0-.82,2.6,3.57,3.57,0,0,0,1,2,5.89,5.89,0,0,0,3.28,1.63,1.38,1.38,0,0,1,1.05.71c.08.15.19.29.28.43Z"/><path class="cls-2" d="M4.57,19.8H4V18.07h.56Z"/><path class="cls-2" d="M7.49,19.8H6.93V18.06h.56Z"/><path class="cls-2" d="M9.28,18.06h.56v1.73H9.28Z"/><path class="cls-2" d="M12.77,18.06v1.73H12.2V18.06Z"/><path class="cls-2" d="M14.54,19.79V18.06h.56v1.73Z"/><path class="cls-2" d="M18,19.8h-.56V18.06H18Z"/><path class="cls-1" d="M6.92,15.43a1.17,1.17,0,1,1-1.14-1.18A1.18,1.18,0,0,1,6.92,15.43Z"/><path class="cls-1" d="M12.19,15.42A1.17,1.17,0,1,1,11,14.25,1.18,1.18,0,0,1,12.19,15.42Z"/><path class="cls-1" d="M16.29,16.59a1.17,1.17,0,1,1,0-2.34,1.17,1.17,0,0,1,1.17,1.17A1.19,1.19,0,0,1,16.29,16.59Z"/><path class="cls-1" d="M11,12.49l-.16-.19c-.09-.14-.2-.28-.28-.43a1.38,1.38,0,0,0-1.05-.71A5.89,5.89,0,0,1,6.25,9.53a3.57,3.57,0,0,1-1-2A3.25,3.25,0,0,1,6,4.89,5.43,5.43,0,0,1,8.85,3.15a7.43,7.43,0,0,1,6,.73,4.35,4.35,0,0,1,1.56,1.57A3.22,3.22,0,0,1,16,9.25a5.75,5.75,0,0,1-3,1.81,5,5,0,0,1-.77.15.89.89,0,0,0-.61.42c-.14.18-.25.37-.38.56Zm1.17-6.44c0-.13,0-.25,0-.37.06-.95-.35-1.15-1-1.29a.59.59,0,0,0-.73.58c0,.21,0,.42,0,.63a.54.54,0,0,1-.45.53l-.59.12c-.09,0-.13,0-.19-.07A.37.37,0,0,0,9,6.06H7.82a.28.28,0,0,0-.31.31V9.24a.28.28,0,0,0,.31.32H9a.49.49,0,0,0,.27-.15.18.18,0,0,1,.2-.1l1.93.12c.65.05,1.31.1,2,.13A.56.56,0,0,0,13.94,9c.1-.73.19-1.47.29-2.21a.61.61,0,0,0-.66-.75Z"/><path class="cls-2" d="M12.19,6.05h1.38a.61.61,0,0,1,.66.75c-.1.74-.19,1.48-.29,2.21a.56.56,0,0,1-.62.55c-.66,0-1.32-.08-2-.13L9.42,9.31a.18.18,0,0,0-.2.1A.49.49,0,0,1,9,9.56H7.82a.28.28,0,0,1-.31-.32V6.37a.28.28,0,0,1,.31-.31H9a.37.37,0,0,1,.24.12c.06.08.1.1.19.07L10,6.13a.54.54,0,0,0,.45-.53c0-.21,0-.42,0-.63a.59.59,0,0,1,.73-.58c.68.14,1.09.34,1,1.29C12.18,5.8,12.19,5.92,12.19,6.05Zm1.46.59H11.94c-.23,0-.33-.11-.34-.34s0-.61,0-.91a.49.49,0,0,0-.16-.3A1.72,1.72,0,0,0,11,5a2.42,2.42,0,0,0,0,.27,1.83,1.83,0,0,1-.29,1.18.44.44,0,0,1-.3.23c-.35.06-.69.13-1,.21-.05,0-.12.07-.12.11,0,.57,0,1.14,0,1.73L13.35,9Zm-5,0H8.1V9h.57Z"/></svg>