<svg id="Layer_1" data-name="Layer 1" xmlns="http://www.w3.org/2000/svg" viewBox="0 0 22 22"><defs><style>.cls-1{fill:#4a484a;}</style></defs><path class="cls-1" d="M10.93,7.22A3.78,3.78,0,1,0,14.71,11,3.78,3.78,0,0,0,10.93,7.22Zm0,6.39A2.61,2.61,0,1,1,13.54,11,2.61,2.61,0,0,1,10.93,13.61Z"/><path class="cls-1" d="M18.68,8.91l-.37-.11a1,1,0,0,1-.69-1.26,1.19,1.19,0,0,1,.08-.2L17.89,7a2.18,2.18,0,0,0-3-3l-.34.19a1,1,0,0,1-1.38-.41,1.19,1.19,0,0,1-.08-.2L13,3.25a2.18,2.18,0,0,0-4.18,0l-.11.37a1,1,0,0,1-1.26.69l-.2-.08L6.93,4A2.18,2.18,0,0,0,4,7l.18.34a1,1,0,0,1-.41,1.38l-.2.08-.37.11a2.18,2.18,0,0,0,0,4.18l.37.11a1,1,0,0,1,.69,1.26,1.19,1.19,0,0,1-.08.2L4,15a2.18,2.18,0,0,0,3,3l.34-.19a1,1,0,0,1,1.38.41,1.19,1.19,0,0,1,.08.2l.11.37a2.18,2.18,0,0,0,4.18,0l.11-.37a1,1,0,0,1,1.26-.69l.2.08.34.19a2.18,2.18,0,0,0,3-3l-.19-.34a1,1,0,0,1,.41-1.38l.2-.08.37-.11A2.18,2.18,0,0,0,18.68,8.91ZM18.35,12l-.37.11a2.18,2.18,0,0,0-1.48,2.71,2.3,2.3,0,0,0,.18.43l.18.34a1,1,0,0,1-1.37,1.37l-.34-.18a2.18,2.18,0,0,0-3,.87,3.25,3.25,0,0,0-.18.43l-.11.37a1,1,0,0,1-1.94,0l-.11-.37a2.18,2.18,0,0,0-2.71-1.48,2.3,2.3,0,0,0-.43.18l-.34.18A1,1,0,0,1,5,15.56l.18-.34a2.18,2.18,0,0,0-.87-3,2.77,2.77,0,0,0-.43-.18L3.51,12a1,1,0,0,1,0-2l.37-.1A2.19,2.19,0,0,0,5.36,7.21a2.3,2.3,0,0,0-.18-.43L5,6.44A1,1,0,0,1,6.37,5.07l.34.18a2.17,2.17,0,0,0,3-.87A3.25,3.25,0,0,0,9.85,4L10,3.58a1,1,0,0,1,1.94,0L12,4a2.18,2.18,0,0,0,2.71,1.48,2.3,2.3,0,0,0,.43-.18l.34-.18a1,1,0,0,1,1.37,1.37l-.18.34a2.18,2.18,0,0,0,.87,3,3.25,3.25,0,0,0,.43.18l.37.11A1,1,0,0,1,18.35,12Z"/></svg>