<?xml version="1.0" encoding="utf-8"?>
<!-- Generator: Adobe Illustrator 25.0.0, SVG Export Plug-In . SVG Version: 6.00 Build 0)  -->
<svg version="1.1" id="Layer_1" xmlns="http://www.w3.org/2000/svg" xmlns:xlink="http://www.w3.org/1999/xlink" x="0px" y="0px"
	 viewBox="0 0 512 512" style="enable-background:new 0 0 512 512;" xml:space="preserve">
<style type="text/css">
	.st0{fill:#FFFFFF;}
</style>
<path class="st0" d="M242,492c0,11-9,20-20,20H107c-44.1,0-80-35.9-80-80V80c0-44.1,35.9-80,80-80h245.9c44.1,0,80,35.9,80,80v212
	c0,11-9,20-20,20c-11,0-20-9-20-20V80c0-22.1-17.9-40-40-40H107c-22.1,0-40,17.9-40,40v352c0,22.1,17.9,40,40,40h115
	C233,472,242,481,242,492z M477.6,325.7c-9-6.4-21.5-4.4-27.9,4.6l-98.6,137.7c-2.7,3.1-6.1,3.8-7.9,3.9c-1.9,0.1-5.5-0.1-8.6-3.1
	l-63.8-61.3c-8-7.6-20.6-7.4-28.3,0.6s-7.4,20.6,0.6,28.3l63.9,61.3c9.6,9.1,22.3,14.2,35.5,14.2c1.1,0,2.3,0,3.4-0.1
	c14.3-1,27.7-7.9,36.7-19.1c0.2-0.3,0.5-0.6,0.7-0.9l99-138.3C488.7,344.7,486.6,332.2,477.6,325.7z M332.9,120h-206
	c-11,0-20,9-20,20s9,20,20,20h206c11,0,20-9,20-20S343.9,120,332.9,120z M352.9,220c0-11-9-20-20-20h-206c-11,0-20,9-20,20
	s9,20,20,20h206C343.9,240,352.9,231,352.9,220z M126.9,280c-11,0-20,9-20,20s9,20,20,20H252c11,0,20-9,20-20s-9-20-20-20H126.9z"/>
</svg>
