<?xml version="1.0" encoding="utf-8"?>
<!-- Generator: Adobe Illustrator 25.0.0, SVG Export Plug-In . SVG Version: 6.00 Build 0)  -->
<svg version="1.1" id="Capa_1" xmlns="http://www.w3.org/2000/svg" xmlns:xlink="http://www.w3.org/1999/xlink" x="0px" y="0px"
	 viewBox="0 0 285.1 285.1" style="enable-background:new 0 0 285.1 285.1;" xml:space="preserve">
<style type="text/css">
	.st0{fill:#FFFFFF;}
</style>
<g>
	<path class="st0" d="M220.7,46.1h-30.2v-5.8c0-7.4-6.1-13.5-13.5-13.5h-1.7C172.3,11.6,158.7,0,142.6,0s-29.7,11.6-32.8,26.9H108
		c-7.4,0-13.5,6.1-13.5,13.5v5.8H64.4c-12.4,0-22.5,10.1-22.5,22.5v194c0,12.4,10.1,22.5,22.5,22.5h156.4
		c12.4,0,22.5-10.1,22.5-22.5v-194C243.2,56.2,233.1,46.1,220.7,46.1z M109.5,41.9h66v24.6h-66C109.5,66.4,109.5,41.9,109.5,41.9z
		 M142.6,15c7.9,0,14.6,4.9,17.2,11.9h-34.5C128,19.9,134.7,15,142.6,15z M228.2,262.6c0,4.1-3.4,7.5-7.5,7.5H64.4
		c-4.1,0-7.5-3.4-7.5-7.5v-194c0-4.1,3.4-7.5,7.5-7.5h30.2v6.8c0,7.4,6.1,13.5,13.5,13.5h69c7.4,0,13.5-6.1,13.5-13.5v-6.8h30.2
		c4.1,0,7.5,3.4,7.5,7.5L228.2,262.6L228.2,262.6z"/>
	<path class="st0" d="M193.2,107.9H91.9c-4.1,0-7.5,3.4-7.5,7.5c0,4.1,3.4,7.5,7.5,7.5h101.3c4.1,0,7.5-3.4,7.5-7.5
		C200.7,111.3,197.4,107.9,193.2,107.9z"/>
	<path class="st0" d="M193.2,145.3H91.9c-4.1,0-7.5,3.4-7.5,7.5s3.4,7.5,7.5,7.5h101.3c4.1,0,7.5-3.4,7.5-7.5
		C200.7,148.6,197.4,145.3,193.2,145.3z"/>
	<path class="st0" d="M193.2,182.6H91.9c-4.1,0-7.5,3.4-7.5,7.5s3.4,7.5,7.5,7.5h101.3c4.1,0,7.5-3.4,7.5-7.5
		S197.4,182.6,193.2,182.6z"/>
	<path class="st0" d="M193.2,231.3h-31.3c-4.1,0-7.5,3.4-7.5,7.5s3.4,7.5,7.5,7.5h31.3c4.1,0,7.5-3.4,7.5-7.5
		S197.4,231.3,193.2,231.3z"/>
</g>
</svg>
