<?xml version="1.0" encoding="utf-8"?>
<!-- Generator: Adobe Illustrator 25.0.0, SVG Export Plug-In . SVG Version: 6.00 Build 0)  -->
<svg version="1.1" id="Layer_1" xmlns="http://www.w3.org/2000/svg" xmlns:xlink="http://www.w3.org/1999/xlink" x="0px" y="0px"
	 viewBox="0 0 512 512" style="enable-background:new 0 0 512 512;" xml:space="preserve">
<style type="text/css">
	.st0{fill:#FFFFFF;}
</style>
<g>
	<path class="st0" d="M497,199.4h-47.4c-3.3-10.7-7.4-21-12.4-31l37.2-37.2c2.8-2.8,4.4-6.6,4.4-10.6c0-4-1.6-7.8-4.4-10.6
		l-66.2-66.2c-5.9-5.9-15.4-5.9-21.2,0l-36,36c-10.1-5.4-20.7-9.9-31.6-13.5V15.2c0-8.3-6.7-15-15-15h-93.6c-8.3,0-15,6.7-15,15v50
		c-11.4,3.5-22.5,8.1-33.1,13.6l-32.4-32.4c-5.9-5.9-15.4-5.9-21.2,0l-66.2,66.2c-5.9,5.9-5.9,15.4,0,21.2l32.7,32.7
		c-5.4,10.6-9.9,21.6-13.3,32.9H15c-8.3,0-15,6.7-15,15V308c0,8.3,6.7,15,15,15h48.8c3.5,10.6,8,20.9,13.2,30.8l-34.8,34.8
		c-2.8,2.8-4.4,6.6-4.4,10.6c0,4,1.6,7.8,4.4,10.6l66.2,66.2c5.9,5.9,15.4,5.9,21.2,0l36-36c9.1,4.6,18.6,8.4,28.3,11.5v45.3
		c0,8.3,6.7,15,15,15h93.6c8.3,0,15-6.7,15-15v-45.2c10.5-3.4,20.7-7.6,30.6-12.6l37.3,37.3c5.9,5.9,15.4,5.9,21.2,0l66.2-66.2
		c2.8-2.8,4.4-6.6,4.4-10.6c0-4-1.6-7.8-4.4-10.6l-37.1-37.1c4.8-9.3,8.9-18.9,12.2-28.8H497c8.3,0,15-6.7,15-15v-93.6
		C512,206.1,505.3,199.4,497,199.4L497,199.4z M482,293h-45.2c-6.8,0-12.7,4.5-14.5,11.1c-4.1,15-10.2,29.4-18.1,42.7
		c-3.5,5.9-2.6,13.4,2.3,18.3l34.5,34.5l-45,45l-34.7-34.7c-4.8-4.8-12.3-5.8-18.2-2.3c-13.9,8.2-28.8,14.3-44.3,18.3
		c-6.6,1.7-11.3,7.7-11.3,14.5v41.5h-63.6v-41.6c0-6.8-4.6-12.8-11.3-14.5c-14.8-3.8-29-9.6-42.3-17.2c-5.9-3.4-13.3-2.4-18.1,2.4
		L119,444.2l-45-45l32.3-32.3c4.9-4.9,5.8-12.5,2.2-18.4c-8.4-13.8-14.9-28.8-19.1-44.4c-1.8-6.5-7.7-11.1-14.5-11.1H30v-63.6h43.6
		c6.9,0,13-4.7,14.6-11.5c3.9-16.3,10.3-32,18.8-46.5c3.5-5.9,2.5-13.4-2.3-18.2l-30-30l45-45l29.8,29.8c4.9,4.9,12.4,5.8,18.3,2.3
		c14.6-8.7,30.2-15.1,46.6-19.2c6.7-1.7,11.4-7.7,11.4-14.6V30.2h63.6v47.3c0,6.8,4.6,12.7,11.1,14.5c15.9,4.3,31.1,10.8,45.2,19.3
		c5.9,3.6,13.5,2.7,18.4-2.2l33.5-33.5l45,45L408.1,155c-4.8,4.8-5.8,12.2-2.4,18.1c8,14,14,29.1,17.8,44.8
		c1.6,6.7,7.7,11.5,14.6,11.5H482L482,293z"/>
	<path class="st0" d="M142.5,236.6c3.1,4.8,9.7,8.2,16.3,6.4l26.6-6.7c8-2,12.9-10.2,10.9-18.2c-1.7-6.9-8-11.5-14.8-11.3
		c16.3-24.2,43.9-39.6,74.1-39.6c38.9,0,73,24.9,84.9,61.9c2.5,7.9,11,12.2,18.9,9.7c7.9-2.5,12.2-11,9.7-18.9
		c-15.9-49.5-61.5-82.7-113.5-82.7c-43,0-82.1,23.3-103.1,59.3c-4.7-6-13.2-7.5-19.8-3.4c-7,4.4-9.1,13.7-4.6,20.7l14.4,22.7
		C142.4,236.5,142.5,236.5,142.5,236.6z"/>
	<path class="st0" d="M369.7,275.8c-3.1-4.9-9.5-8.6-16.5-6.7l-26.6,6.7c-8,2-12.9,10.2-10.9,18.2c1.7,6.8,7.8,11.3,14.5,11.3
		c0.1,0,0.2,0,0.3,0c-16.3,24.2-43.9,39.6-74.1,39.6c-38.9,0-73-24.9-84.9-61.9c-2.5-7.9-11-12.2-18.9-9.7
		c-7.9,2.5-12.2,11-9.7,18.9c15.9,49.5,61.5,82.7,113.5,82.7c43,0,82.1-23.3,103.1-59.3c4.7,6,13.3,7.5,19.8,3.4
		c7-4.4,9.1-13.7,4.6-20.7L369.7,275.8z"/>
</g>
</svg>
